<mxfile host="Electron" modified="2023-09-15T11:25:29.396Z" agent="Mozilla/5.0 (Macintosh; Intel Mac OS X 10_15_7) AppleWebKit/537.36 (KHTML, like Gecko) draw.io/21.7.5 Chrome/114.0.5735.289 Electron/25.8.1 Safari/537.36" version="21.7.5" etag="u0H0o-ti8mG2lqXaouEY" type="device">
  <diagram id="API-Led-Architecture" name="API-Led Architecture">
    <mxGraphModel dx="4043" dy="2474" grid="1" gridSize="10" guides="1" tooltips="1" connect="1" arrows="1" fold="1" page="1" pageScale="1" pageWidth="1169" pageHeight="827" math="0" shadow="0">
      <root>
        <mxCell id="0" />
        <mxCell id="1" parent="0" />
        <mxCell id="82hZbd6NY0PPkRuZH4To-24" value="" style="group" vertex="1" connectable="0" parent="1">
          <mxGeometry x="150" width="640" height="150" as="geometry" />
        </mxCell>
        <mxCell id="experienceLayer" value="" style="rounded=0;whiteSpace=wrap;html=1;fillColor=#ECEFF1;strokeColor=#808080;fontSize=14;align=left;verticalAlign=top;fontStyle=1;sketch=1;curveFitting=1;jiggle=2;" parent="82hZbd6NY0PPkRuZH4To-24" vertex="1" connectable="0">
          <mxGeometry width="640" height="150" as="geometry" />
        </mxCell>
        <mxCell id="82hZbd6NY0PPkRuZH4To-11" value="Experience APIs" style="text;html=1;strokeColor=none;fillColor=none;align=center;verticalAlign=middle;whiteSpace=wrap;rounded=0;fontStyle=1;fontSize=16;" vertex="1" parent="82hZbd6NY0PPkRuZH4To-24">
          <mxGeometry width="120" height="60" as="geometry" />
        </mxCell>
        <mxCell id="82hZbd6NY0PPkRuZH4To-1" value="OAuth 2.0" style="text;html=1;strokeColor=none;fillColor=none;align=center;verticalAlign=middle;whiteSpace=wrap;rounded=0;fontStyle=1" vertex="1" parent="82hZbd6NY0PPkRuZH4To-24">
          <mxGeometry x="30" y="100" width="60" height="30" as="geometry" />
        </mxCell>
        <mxCell id="82hZbd6NY0PPkRuZH4To-20" value="Mobile API" style="shape=image;verticalLabelPosition=bottom;verticalAlign=top;imageAspect=0;aspect=fixed;image=data:image/png,iVBORw0KGgoAAAANSUhEUgAAAH8AAABqCAYAAACVpo47AAAAAXNSR0IArs4c6QAAAAlwSFlzAAAXEgAAFxIBZ5/SUgAAHXVJREFUeAHtnQmcVPWRx6vPmek5mBPkkBtFAS8Q1MRr1Rg08YommhijoOJiiEfWjclmV+InxpiNR9ZVCa4ESci6ksuYqDGJqBFU8FYQBUfkPoa5e2Z6+tpvvZ43/bp5Pc7BzLwe5v+Znu5+7/2v+lXVv6r+R4sMpoOWAi6n9XzhwoX+nVt3nhyKhtYtXbp0l9Pa19n2XHHFFWVer/d7rrjrOM0Tj8c3jB47egH9i3S2jN5+ztvbFXS1/HXr1klhQeG/e1ye8quuumolBPxTLBZb+8gjj1R3taz+eH7BVQsqml3NF8YkdqXE5dhoPJrrdrm1KYEdO3Y4StgcB35JSUk80hrJE7cc4RHP2Eg48hWXy1V5zdxrVseisZXhWPiNZcuWbe8PYDPViTR7t2zZMoX7FwYl+AXAHi8xKYzFY14YQMRRkCd74TjwtWlxV9zvEpc7Eovk8zU/HouXwgBTYYjLYYhdc66cs47rryJdrxQXF2+47777ajVfX6Zrr73WR5smRcPR0wH+TJVyt9tdGo1EAxFXxGO0RYEn8Ry8EPMnvjnnv+PAHzFiRHTrJ1tXQqLRXre3FJUvMVfME41FDUaAKcpcbtckCPr5eDQeqqut+5jh4W2+rw6Hw2thhsr7778/1BskXrBgQVFjY+NUt7hPjUViJyHZU6m3mDblwag5fE9IeRvoHrfHAD4u8SpP3PO89q032tXdMh2pkK688spipOgICHsuInMBxtIUPosyAlohta9xiXo8nhD3WxgW6lCxGwBnFZL498KSwrfvvffe5tQMXfs2Z86cQoA7DhY8GwY8hXom0rY82pIL2Cr9CRqaUk4DaI9wTw27t2DUJ2DKZ8nzIQZsn2uojnrrSPC1wZdcconH7/fnQ7Qy3s+AAS4B0JMZT/Oi0Sgf26md7B8XwSJCnmbAaeLGuzDCn/15/icfeuihyuSDn/5p7ty5E6nzfKo5l6ePpMz8NsCT2rK9CS7hfqJQl+ygGX/zRD1/DMVDr2Cw1jc0NDStWLHCUVKvjXUs+AlKGv9dMEJuAckdd093eVxfApRzUbXDeRek0fJoao9glDCgBGGWXW6P+ykAWbp46eJ3UzOkfrv66quPYjiZQ9nnkGcogOcjxfsBrrnUilfQAbuJ9qzFJnmytbH1OV++7xMs++DTTz/dK8NPaou7/y0bwG/vHUzg9/l8+UjTWF6zIfhFgHMMY6snRRuYOczegQ6quAlAd/LxD/je6i20iar5MAOMS0bxzAUAegjlBfieKMEy0piAw3RRPm9gGPoLbXgmFAq9Q5saJ0yY0Iz1z+Dv/GSSx/kttbQQ4rr3rNsTqPPXFed4c2ahDb7A7TPxCkapJAKGjrnJHGYvQR6AgtxIUxdtj8bFE4niYVhA149apg7tMIQOKxupb6U74v5r2BV+nSGphtxNixcvDicrzI5PJlmyo7U2rZw9e3YOVrTaBsMB/UTk90wwPglGOFQNLx0a2l/pxqJNeQq2CbiRT+LKLB9w8UWGnVVxd/yt5ubmfTU1NU1OV+s23Uu5lPXgW3rjZljIycvLC/Aa1traOg2GmAFDHA2YE3huKINzAMl1qxSnpzagI7zXkW8bLPMez7zG6+1IJPIh14K7d+9uBvBWrlkGgvSSsuf7/lTox7YTOJkGWDMAoCYQCDyHv17fzea4cRf9wWAwJzc3NwcNMATAR/AahuquAMgSxusCIPQzZiuQQe7twSDchirfwjNVeo12tGzdujX0/PPPdzkef92V142NeqL/xADki4fje3xeX2VYwpVLlixp6GafDng2R4BPkKYC4n+H3n0JUIogeozXO1jbv4EZnoBgO3rYc9dpp53mmTZtmgfDzIMke3C/3ISSjWJhkjgMEa2qqorgVER64Ja5cBGPoe2X0YNzYbrhWgHfo9ggzWigSvyDv3pzvMsXLVq02ai8H//1O/gEUUZgfT+MMj4FUAoYW40EE6ib1gj4m/n8NyT0CbTBa70VvesJBsq8Xpf39KhEz0ObfJZ2l6m3wNCR9CjQL1yPwORNMMZmfI2fwNTLe1JvT/P2K/iES3MIly5hBu9iwqOJ2Lc5mra1DGmJqZsGMYMwyJsQ7+/euPf54bHh7y1curClpwTobn4FHIk+nrafCWOeDOjjaGs+/ciljYlizb6YlVj6BEPXkm8hDHC/ebuv3/sVfMblr+OjL8Znzs1oQllaiMpsZShoxh1rhFA6ufMahH45T/Lejvgiu3rT3Zo/f34BYdoxaKcZtGMWUj2DusfShgCMmYvGSpnM4XrmRJ9gFHUfq70+72W0+9nMD/feHQtpe6+S9JKRGNe8efPywq3h5yDALFR7+iP2383WqgrVYcHjbqEsjelXoUY3UdYGPPj3XF7XR/jfO/Hpq8rKypq6soBCtRFjf2FRbtFQwrMjUdWTqWMqUE0C8PEwayHfcwE8px1wbW26lNv3IHmVvujED31/oThYPPveFT2bg0gW3PlPJjk7n+MAPKnToS0tLTO8Hu9KDKGcLhNO22BpOcAo90QYHtQNawWYMEDVc30v4O2h/Dqs7mpsizqYJAR4+oqhsn0879OpYxinhFexvnNvGNdLyRcAID9l+bnmQ0PpRA632lJXATfzme9aVFxa6cupTPq8Yl7uq/dkzLqvaqQegiR+pPIsCJlDUKZ7yUJ4xk41rPwMB8k587gMxUYYB2gazYuhKTR8q7WpZa+59YWjF3fhhum7qm03xpgG670wixEPgDG4nEgwU9cl3Mxs904LaIsfOlzA7YMDfFRyDpMnX0sJwdoRp7PXLIzQnkXVQWJCJsHgds+0P5z2AYzREgcW6LQqzK8GDeJyKd9vNa/11Xu/SD7jnAdJm2BV3Qe8w10B+4BX3oUCaSeSH+hCjgP2aNIPPWBFdrIgtY6zBaBOdinbHus/8AeB73de6T/w+73rgw0YBP8g5oFB8AfBP4gpcBB3fVDyB8E/iClwEHd9UPIHwT+IKXAQdz0Z3l22eZz4c65nzVGAecZeJclvWqpzv/TiPb1aRzYVHnbnFMjybQ/2dZt1UjGRfr39LskNzJdQS68PBW62Ww2r+6TX6zG75vT3GPP6u4vH9K7E2RAhKfnxeIW0thZIa+/vMNJe7iwYadOcg/hSH9A9nbpW8Im2a8B9MOieTqSB+n1Q9Q5UZDvRr0HwO0GkgfrIIPgDFdlO9GsQ/E4QaaA+Mgj+QEW2E/1KWvudeDirHzGcGP5ZvWmNcujLdHDMd+M6//R9AKeBDb6CaWzCFSngcLfRAb9MKPDI+CK/DM1xS47HJUU+t9SHY8LebNkXisnWYES2NEZlS3NEdjax+y5KIQOUGQYm+Ao4El6U45JZ5bnyuRF5MrMiTyYVecXndokXMD2865jHG6d4JIRfcY7wRRmhvjUu79WGZM3ekLywKyRv1IQkxFYQI5N140YWa4aBBT7YKJIj8j3y5bEFctHogBxe7JcAaDdF4rKhthVAW6WyISJbmyJs7YlLA9cLfcoQLilHGxya75VxBV6ZVuqXM4YHjNeNU2LyVnVIntzSLL/bEpSdQfaBKNeoRsjiNHDAB/Riv1u+PqFI5hxWIOMAUdOLu1sArUler26V7ajxEGCH26RbeUX3ZuhpLYqjBwZQraDaIZ+ydIiYUZYjZ4/MkxPL8wwtcs3hhfLYR42yjNcOyiOTVpOVKdnyX219RLy+ORLq0ZmFfU8EA8G4nDosV/7t6GI5vjwHcEUe/7hRVmwOyrrasAQBHC3OHk7+6fOdSVBG2Yf91hLAXpgyxCcXjM6Xi8cGpMDnkQ/qw3Lfe3Wy4pOghHWYycKhILvBh+gcaS03HFEkN08dguR7ZAWgP7ihXtbXRqQxqoZcG9LJnnYG+sQzZl6+qUYoQMrHFXrlGxML5YoJBYbj8KetTfLvb9YYhqIxFHS+9H5/MrGnXJtx0c3ni9tzrESTGxP7vXUdNQDVPTTHI3fPLJV5k4dgqUflljXV8rMNDVLZGJEm7htenYLeHeC1bjMv7xQnLRS4JxSXl3e1yAsYghNhhNmjAnL6IbnycUPYsCWySQNkJ/ggMSrglYc/WyHnYdQ9v6tZ5q/eJy8wvjdgxPUYdDuma2MEVQbKBNtxCZ/d3iIR6juP4eDzMMEWrq2vYZd4lgwB2RfhQ9WPxphbenK5nIUL9+vKBpm3ap+8WxeWFkXGlFb9rOJ6oJK1POpQr29nS1T+k3F//stVGIkii04sl2sPKzyw9R6o9tuUk13gQ/ByrPD7TyiTU4blyQOM7besrZUdgKA+ert6B/QijLQL0Ap4bz1PMNxEYgTnjspLGIyGgZeor56KV3zcJJe/sFfqWqPy4xml8jXsgUSDel51b5ZwIEjTm+1Llg24evLCj6eX4XoF5JGN9XL7WzVS04oOtko7YJyG5f/YyUPl4c9UyNn46j3SANTrwx/8wTEl8gvKfHBWKS4gfoCpVai7GWZ4HjtgLkNPHe25Bwb4HO6h0xkge8CH2HMnF8plE/IZa5vktjfqpFb9N7MHxse4XHd4kSw7ZaicwZCgQZubpxZxtgoIcb9biXq/PCEgF6JFKihPLf3HTx8mZw3PTYKrwwCFr4IBvvnKPrSNS+6dWSbjMQjN8HK36u7lTNlh8AHArIocY0zdTcz96lVV8okGWCzAq3q/Hen8zlHFMiyPH2NRbUAagWG4AZ/8PYI8XXbFkOgx2BeLTqqQEZSpSQNAQ3M9ctohAfm4MSwfYGsYBh71qaH5CdHDmkhMLkf1jyLvHz9pSpzy3NYeoxCH/DPJ55Dm2DQDic2D4D84tliKQfi7b9TKh/jw1uRCrL9/9BBZcOQQKcEmsCb9evORRUberkq/h7o1cHR4kZ7blEzKWKOJ/j2AgafRv3b1znU9EerRDxtl+UcN8sVDA2gNfh3GHCKSRTjiUyqlHNGktEZAuEvGF8jpjN2/3NQoTxOqjWmrTUni/lxU8Q1HFEuBRmJs0jGEaL82oYtWOLbDObhvX6VuU4tYi9aaRgQ88t+zyuU4oortAHMjSHDpjnfqZFdzVBaijcY6VP07G3wkT2fmbjyiEMNO3ap6zlGD6ibGAD8dwi88tsSYnLGCY/2sPLGAMoYzBHRK+qlDh47bjiuR/AwMpeVrM8bjBdw5vdiYGm4vG031UV1E7llfJ2MxDudMgvH0TDCHJWeDD7jnjy5ghi1HHkGVfsTYbR3n1ZC7DbWsEvhpaWKhT65lUqZdQjvKwFh/y7QhcnRJ8mS3TI8rAXX8v/awopSyVTst/ygo72JrXAX4Y3XoUBfRQcnR4Otii2smFUgD7tMvNjWkCg+MccHYfFwq/TWUT0+quq8GhElM0HQIAur+DCz5uZOKjHj+p5eMCwoVvzWlUCZYy6a+GkKBiz5okJEw58W0NbUDnSm5d59xLviAewwqfWZFrjyzs4nYOUaeiTIClM8c/HVE09TK72zSef7rJ6uEZshBuaW5brn92FImiczKMjybdlnDzV/HPrACrNPFT2wLGqHgy8YFmCbmgoOEvwukS+ttb38FoPMOzTPAfbwSdwlmSIIfl1MOYX4dxuhK0s5+FRfsWAxAW/WPWv4WHsPxuJVdTcoqGtkbBoO1A0yFuxtj8tT2ZmPoms6qog61Tlcr7eHzzgQfnHOQbF1+tRO/fnUVawyskyXcv4jJlDSvrp0U61mt836dOl37Jw383DClqN10aH8C5joJZppPkIiqMyadPKrVqKJN0hVAJxN2tjIWPwMpf97abJSps38ZtY5Neb19yZngQ7CxBT45Yohf1la1yt4m0DZbinSWE2Q55ZDM0rn4wwa57c06Yy1eOgEV1wvG5JNfgaBcTbwVgfjtxxVTtllR4pb1/xamir/JJM6Le+yP+Ve7Yjbxfyuf6pc3q1tkL/MPCr5PH2qr1lp2f3zO3NP+aI1ZJ4J1ZLHPcLNe3RMSDkM27xiEm4wVPh7r3S7tgch/2tbM0q2gPMW7XRqC+/btKcWSY6JE+fMOH2JIbQdCL/e+Xy/v7w0zkRNs55v08meW+XE7IavZZD7uaI6hicIylXaXB5xDcue0xEpFCDdZLWfSe6q+rYjAGFOHeDNa4rradjPGYQuA/vDtWtnLIg+7dObIXJmNTSGocA3S3MhYn2kY0fzP7WyRZRsbhUPX5R+7Q8biEbtyx8KUwzSe0I4+NiDLiXQYKmXIGZGn/TI5w66EvrvmTPAB+wgA1oWWlayhTwEf2hzJitxM6SXAT6y1R91WheRuAkN2SZd/3TRliFTghv0HsYLhHUikztTdxgxiNYEmbcs25hXeqdGpnP2TBoUm0/b0sV1D0srDuijU6hHsX0LfXXEo+C45BAlpRmJqUeMp6NPi0dgDmdImllMZVIbS/JqR/A/j/1qYwC7NxPpezGqgs3Wctnug7drDSLwOP+YETpTw7cYGe4NSyxmWs38kcU+bBlJ7xSnJkeArAXXY1NUyxFxSsNd7mejXiqbYpbN9JpK869q+O96tlZBRUCrZtRxdg6daIFNSdf1fhGm1Le3l8rnGiDPb5ypLb6C2o81D2O+efRF9ctV54ENYHXvV+tZtVC3Ww6G458VazjSBo/gY8QAr6ZD+Z9hs8dhm/U2m/VNHQSLllzuZoNmmQ08apfjplf0La7vCIuL9EnxpJDX2nZLSuuSAZkEcXaOBVyWFXjeMYGki99QO0A0zdsmPBBcq51hxIQ8/qCM/eadetrHAsivpGRaN/Jb5eONHXNIyWqtIu2UMV+nXnPjdQlnnNE/nPxRksN/fqsfar81gwatQBTRTekL6ddHFz3DVOptqqEO9hSYWZrSre0vmwg5m+/ZrH/3R4JKmvUzzOiXZUMoBTQN4jewVMPAXGf6XRc74qON4pjRcx1vL48ZzcEWU1xJmBl9Sw60TaRFG3ut71c1UlkpLaJjR+Zk9Do01pDNMadtYUM1O4PR7aaX32Vdngk/3N9VHDKkfXwiY0MuaPmCuPFOawPy6bQJDddXueEelOZ07UnPoZs4H1MjTy+nYk1Xd+InaLpvUiGW4ScestHyH0S6ttVLHrLR7NsX0ySVngg9x3q9PuFKHFRHGtWJFi99kjlz349mlmUzaGCFUu5tI8UomWZazpStT0uHmRxh5O5qowJY6caKLflbn2LublY2txjo+K8JuNMVkYhN1SP32oLKUM9C37V4mwvTZdQW/higd5vYJFX5xpbTSJRthjF0MC3bpSEKoY1T61XBIT5Srxt9P363jAAb7/E+y9+4JNl/qdKxtQnDPGJGbcYXPW/vC0qR+odlm6htGAGlaiU/Wsxhlr273Me/ZVtB3FzPoyL5rgG1NSKgGa3Qn7AlMr+rCzRp1ARQQCLcbqVzF2H3puP2bX8az5+G73wPAxjbb9AqQwk2Ef299o4aFILkpMXq17R5i8UWT+ng8Z5fycEG/PMZ+AUkUoH8P8yTcwLb8lDkVqa/AFnmUNYghrcQh/t7+1LPrcV9fg24a3VtJPP1b7MDVbdfPoq5N4ysGkf+PyZVL2C6te+qtSb99g3n1X7LyZ6/JMNYH+Az55fdM/PyFqVZTP2g+/ax7/cx6+JqauHcOK3KMefnUO8a3ddgKum8whXEobnbbaqO/7bSfaLIpqk8uOUQB2fRVpUhX6nLrK+NYIWOipI8CuM6rb8gwZ6+q/5vE7VPE2loFSKtBXo0U6hp7fZmfI1pRKj8lctIeXeVzC1vBMwWGlmwMSp1uGDTz81HnDi6ESXWNwRozRGxtSz9+di74qF2Nyb+5LyTnsKhDN0C0MwCtrmXsfGBDY/slKw3VBb+eRRmXjmfdXCbLXgGye1kLsnzW0ztuYRpYVwvbJW3rr1DrKQEhjEcNH4/GPfjN5ibjnB+njPfaB+eCDzDNmPQP45sPQ3qumJi6+VENssdQ/WuZxbNLOvbffXwZR7QU8uvIIAcQ3U6o+6vYG3A9mz/sYjs6RP0IG8OI3ytDaaK6AuyD+awY1rjE/+Jh8IPPiXsO+e9c8JVAqPffMja/j8qchySP0g2SJv1ouUbh7mCLtBLfLumS7p9yeMOiE8rlsyzRAouuJxjn88z6/XA6ewPskKfE+4gcPoOh167utRaY7SIOhToO13MZS7g3aWwizT7pemMObA5ng68Ao97vW9+A2vfIv7KWPkWCIeZfsAvuXp85bKvbty5Ha/zilHJD/dq6gB3RFKPjfNYLHtK2Vy/90T9sDcrdSL16cO3gwzAjUfXfm1Ysurfw5x/UJ6bwu8N86RUewO/OBp+OGuq9MigvsgNWd76ciY9t3RunM6v3Iv1PbUPyMqQ8XCt1w3ZrWDijA58hM+Wv3tvSjqv1qWfwQG56pVr2acTJQknV7reyQET39N+1rk4qiVZa71vL6M/Plib3ZzM6qBtpaeBnWW7j0CONvt01o8w4K69dA9CD6nBUblhbzWGJ9gsrtfTXWHsXtG7p7qDKlFsYni/uDDHXAONY0p9htutfadstbLmujKmHNV2FttFnHsUD0HkFJybng29QzSUv4yb9kEUZR3E44l3Hl0q+BkrMoR71r9I1b3WVcUiCHaFXIb0pC0HtHrK7BoX0wMZXLauBllc2ynUcxPAxa/KNJpjgAvyprNC9k8MZdpHn1teqpQHGtFUbdnX18bXsAB/iakR88fsNspwzePSghNunl4oRXW9jAB1yNxK5m/vSXnmU7dHW1AwohlfQzd7G0DhPYdDVsxrn+2igm9bUyDY0gWG9W4DXzR4PnlRurAy68bUaIpTOM/KsdElOTTn9KDaIrOsn1zDNOpU4+cWsvc/F+l5FsAdsDenSN85cNOyDIIGbo9ngmcczejTbnYy9xkoqEywrFT71s8uwF1YyrPyW83c0KJQizXgbCvySk8tlbL5PFqzZJ3/ErzdmD7pV36c26IA8kD3ga3chZCOE1uXZMwi26ImY5Vjhq3c3J9boaTyeP5X0N2GSl1D1GlPfiJv1OKB12+iiTJ2M06PWWIKfBF65Da3wRTTRIiR+ZMDHnME+Wb6pSQzrg3xOTs6M7XdAMaW3SvI1q/bKfbPKjJ23I/K88t3X9yW2cHvQ7RC9AVBeYn39+rp9xnpAzdeTpKO7sZzQBJTydbPoAg6AvJnInw4B/4wB+AckXg9oStEMPam4F/Nml+QrISC+AqmHMal1X5HnZoIn3ziAaTcrd3Um0HgALQA+rPdj+TfPdtXDs6W5Aq/A8jcTzaOHLl1B5E/P5lnwcrXomr9mbZzJILaFOOdi9oGvtGtjAN21/Q/G/H3M0nxxVL58ATtAD2HQQ5F2m64ZnoDi0eOknMSfHrn6L0wa/RiPY2pJjjyG5f9t3My3WGCScmpIjyvs/QKyTu23k8RggDhLs+JE0BrlbXbQKCi6TVqPQn0cUJYTHHqb41DVWjfG+66EV5Vj2qTcj9E4FePxUvbYX0zItgI74wNCzje9uk+e3cGuXYI8+ni2SLxJw6SCytYj17UnUF7j9iUcxHzhoblyDUek6I8sNAKKTv0+jZv2KkZiJQab/sBCuypI9j55TctjyCjmLKCJWO6fGZojZzEfP50NmLqgVFcR6cFQv2MvgPry2Sbt2j0zJbufzeBrb1T06E0A6VYP4GzCwBfjDZw4LHH+vnoA+rMpumfuQ1YJ7WFY0EOeNDKr8aISVtcOYR5gjP4Gj24Ph3l0YiiXm+rZrd7TbKwvWMlPrlSRV5f4GSt2khQ0aZo178mmZzv4JskN/Zs4u09/VOkoFnaciA/+GWb1phAfKEU7aJhYFYC+zKReojKB/tyK3tcNHrqKVyOLa1hToBFE/dGGZh1CNCUpl/iehf+zd8zPROw2UBSkZlbV6ITQGly+n/sajLF6JFrhUKRbJV3X0useD8VTl3XrwsvtqHI9yFnXCeqwoYtIdcZOJ4aMNABAN0k38MA3e9YGki6k1Z9BaWBwruK1EVfQu9sl6ua0xYSMEUMZIEYeBTmCX5jykyxa1gAC3STRwAXf7KEFNB2jdYwPG3CbD9i8mytuLHltnsr6SwMf/HSIBjig6d3t6Hs357k6KnLwXrZQYBD8bEGqF9o5CH4vEDVbihwEP1uQ6oV2DoLfC0TNliL/HyOEvS6Nh8GPAAAAAElFTkSuQmCC" vertex="1" parent="82hZbd6NY0PPkRuZH4To-24">
          <mxGeometry x="480" y="50" width="59.91" height="50" as="geometry" />
        </mxCell>
        <mxCell id="82hZbd6NY0PPkRuZH4To-3" value="Request and 202 responses with transactionID" style="text;html=1;strokeColor=none;fillColor=none;align=center;verticalAlign=middle;whiteSpace=wrap;rounded=0;fontStyle=1" vertex="1" parent="1">
          <mxGeometry x="70" y="-80" width="290" height="30" as="geometry" />
        </mxCell>
        <mxCell id="82hZbd6NY0PPkRuZH4To-4" value="Mobile" style="shape=image;verticalLabelPosition=bottom;verticalAlign=top;imageAspect=0;aspect=fixed;image=data:image/png,iVBORw0KGgoAAAANSUhEUgAAAKgAAACnCAYAAACFHRdhAAAACXBIWXMAAC4jAAAuIwF4pT92AAAOc0lEQVR4Ae2d/3XbOBLHoXv7v3MVmB1EW0G8FURXgeQK4lQQpYJVKohYwdoVrFTByRUsVcFZFegeki8cSp4BQRIgQGI+7+k5L7IkmvpyfmEwnJ3PZyUIqfKbfDNuzMqqUEoV+OW5Uurd1Qvf4f81O+JNKzzUeVlQzwsEYkGvmJXVHYRW1H7eBvq4Z4j2gEd1XhaHQJ81SrIWKKziHR5ajO8TOCzNHlZYPw7nZfGSwDFFITuBzspqAUEuAlpG3xjBPuZmYScv0FlZvYMYjTBvEjisPhy1UJVS2xzEOlmBIpZcQZi+RXlCzHjNDjFrQTz3wfMxqJpYN+dlUQV4/+hMSqCwllqUDx7c97NJXPDzxUc8WKsGmMedp0RsD6u67fk+STEJgeJLXyullh3f4mgSEv0zhuvExTW/Stq6WH79t2xhVUefXI1aoHDj2lp+bPnSk0k6IMgk3eOsrOa1+LlthUH/jZuxC3WUAsUXt2kZ150gSJ0JPwY8vCDUSmKLlhfkqIU6KoF2dOVPEOVkYjOch0XLWPsEka4DH55XRiFQxGf6y/ji+BJjNbZTzW4NtWqF60WrY9SHsXiR5AWKwvrG0VLok7+eWibrAqyqqWC4JFc661+lfgEnK1BYza1jvLWH+xpdbOmbmrdxEWrybj9JgcJqbh1O8Kjc1ZC0FKqu+S5StKZJCbSF1TxBmNm58rbgnGoL+anhpSeER5ukjj8VgaJ09OgQa37Dicy2w6cLLUpzT4hNkzi/SQh0VlbaDf3Z8GvPOHHSL9mDWVmtIFSb2z/C5Uc/11EFCvezaSiRJOl6xoxjKJVEGBVNoDhJu4YlPLGaAXFMRr+dl8VDtGOMIVDHeDPqickF1E8fGwxFCWs6eFw6uEAhzp3lqj3BakrpaEBmZbVpyPS1N7sbWqT/GvLDEKDbxKlPwlzEOTzwVvcwEBTawu4Qmg3GYBYU4vxu+ZWkyhu54uDhBrWkgwjUQZzleVmsgh+I4IRDAjuYSIO7eAdx3os40wLCu0OPA8Vg7j6oBUUr2N+WX7mX5cq0mZXV1lKnDm5Jg1nQWimJQ8Q5AuDdSuZIg1vSIAJFbc0WaIs4R4SDSIN9l94FiqvpUcQ5LRpE+hGhgHdCWFDbqoSIc8RApE/MX7BEQuwVrwLFagTXzvVVxDkJVkiOKL4j9/CGtywejQd/MU9LnXNCIIw7ML0UeiWq8JXZe7GgSIo46/gs4pwWEN+CWRa9aajetMKLBZ2V1YGJO49YW4+yfFnbPz5nBnpNETNTNHg/Q4PX/Oyjh7e3QGdltbbsV/894pyjpkboqTPIhsLQ338vF4+AmDu4z5HEOUd8lLM4FeLDv0KVfwzYsswtifb+7L4xKHcATzG2aNQWCMYyOXkIlqiuhISLR9/Dwnams0DxwVTceUIpIgYue+lz5BP6IoKAHIP7zr/0KT11ikFhqf5hnv4jxm1WGhpTzCTiqfeazi0b4fbnZRFMpMreWNL5s7veJ4lz7WXEewBxV3BWe5sse4w+6OcCTw95QJvedYilP3vVZaGmtYtHaYFaLTrhAGNBXaH73DbeQYDcxRrUgsLVc+d706XrqUsMygXcUXb91aASoyz30qN6Qi1HBq8Fo6xFrdffdDFgrQSKZgBKCPtE19lz3t8U829/YLL6LwhBnHEWaK34zR2QIPwAYQanlVZlpzZJEjfGr8x18gc8ShuL8IKpzzlY9g2jGV2XXbsma04Crc2apBjVzHNfNOzVsbEInaykgL4IMRSO2jC5dq2Vu7p47m5tX6c+A95C16XUD757JlMFecmROLylayzqKlDKSp5yzZKFVnAe1ilvaRSoJXN/zHwKCNcg0cRzTjG7xYquXOqiLjEoFytkGXvWWNRWTlw5ZHreNsSA4htoy+qFrQJFnECtGpUZx54/gPfI/SJ1ZYtzdZ3HPDQJtMnFc3GCbH4TnMHFTGnmtqnLqkmglHt/jtgQIowXzlJay02sQNEUQpWWJHMXWoOQkEosF7b3sllQTtkyXFboCuXmb2wDH0iBIv2nGl9LGTArdAUlJ6qJhLWinAXlAlexnkJfKA2xt8PhBEop+iSz4wUPkBpCzvOGNgIVcQq9gZFzdvNvBIpGBip7F4EKvqDKlGRYSVlQLmCV2qfgC8rY3VIdTpRAuc1nkr0LvuCM3RvjSAmUWnsX6yl4A0V7alPfmz7ZC4Fa1kVFoIJvnOLQawtKdnrL2rsQAKon9va6R9RFoNy4Z0HoA2f0LjToIlCxnoJ3EIdS9dALN38tUGpaXdaNyUJQKDdPW1DLTsMs97wLg0Bpi41ByQ1MkiAJAaG880WZsy5QqsTE3dxeEHxAeud6Jt+05UPcuxASTl+v4WaTBZXlTSEYluVzsaBCMlBDHUgLGuye34JgwVrGrAuUqoGKBRVi4OziJQYVQkNZUNLFC0IMnF28ICSHCFRImh8CtazDS6OIEBVjQbl1eBGoEBUjUFKIIW9AKggu/BCoWEohVSRJEpJGBCokjQhUiA1VQXpdwWwSaPC74wrZQ1WQXntA6gKlxjOLQIWoiIsXYuPs4qlSk9RBhdBQoz5JFy+1UGFQXG6qWxco1ftJTboTBF80bnWvC5TbAiqJkhCKxq3ujQKVTF4ICKWtCx2+ChRbQBuHOQmCR9wFSj0JGgNZQegIleNcJOsiUCEKllbO1haUvPuCIPTEaZr3tUCdpt4KggcoC/pmmveFQNG4TI0ikURJ8A2lqTcGklqLp9y89Z7egtAGy90MnQTqfBcwQeiI8+2OKIE63wVMEDqyIl72TI1jfCNQiUOFkGB6MjWojrxZ8W/Msehf/nT1fx/1m8s9O+3gC5jjoS/2F5nzfwHniVsJdEsIVOHNt/2PcXog8N9QqyOzstJLyJvzsljnfp4Y9348LwuyF4TsqMcvU27+offhTZBZWemT/l9Le6LOWL/Myupwfau/zM5TwZwj0nqqhi0f1IveSzZ/CcT53fHXdey1y1iknHtnvbJNoNyLxIoCXKybli/TIs3V1VPaYd27sgnU4uapGCJXHpiCs2LOneFTblYUzSG3xFPWnKZpVydlHW7g1gTaZemE6I/zstDW9d9KqZI5T7nVlTnP20ug4ubtUBbhwZSVdEnuvCxWjDXNJpZHKPSReOqpaXCdVaCoeVIW4L2MZmShTnjuO2a5mLuxZOkyuIFLAqSmR0O1JmZb+UCsvSSe0skRW14yNAoUyRI1FueDWFHSda9NjK6/nFlZPTKhQC5WlQsHnQyc6+gb7s1yt6KUi9JZ/fdZWZ2VUv9jYi9lK05PBcSelEBP52XhtCLpJFAE/WJF37LpeMvyr5n0NKyZMpxz7bjN8DCxoldAZG1Lbs8divujA9aTij1PQQTaYEWzrYsi0L93tKRanHeZWE/Oha/b/P1txy9y1nKTcxME4qm5pSivk6n787KY5yBOhH1UU4jO3Ft5D67djkRb0VlZPRGB/w3Em1oBf27ZIeAVFJy1J1ldxeVVpLuoRCltwVCx1rP1+53P57YHoP/wf5inf7ct/IdkVlY74qrVlisLq1VnVlbaUPxJPPUfl9pjz8/WIvxCPLU/L4vWCXXrCcuwBl+Zp2M2M5NDJ9Delk2lwSJOFdqboGmbEqfq6l1bW1D1y4wfmAL01xid4w2WXVCqRF9AyO/gwOw3+nZeFp0E2mlGfUN55YvL5FzfNFj23DmFLgfOymrDiPPY57M7WdDaQT0yKyXRYj8mFs2doLEnQqi/mad7fXbfu3xwrWS3seJRBOJcuSc3TG9qSHG+syzbln0/u5dAG1z9RwTsg4NY6w9mYSEHTgh3igG2PO+Y5cyjj7JjLxf/+iY/4w9qm7LCFRxtX3htn3ouvAxV6puV1ZZZzlS+vncvAlX2DO6E5b0o9VEhDA27Wb1VcnzeaW7BrEdr87/NeSl0aiAp4sT55LPM6E2gKPNwG8Fy3w8+GVBC5BKfo+9dv17v1YmY4zPz9Psc2symDMTJJUXaey58lxa9xaAXb2oPnoOvaAj+aVg9VKFqrUHudgwBciWeJQQsjASIc2cR532oWmvI23EvqKH4QEQ6EtDjsGMqNArr7MG+yyAu/vXNf1153B8n7j5hGmJONUgDSkiBKjeR5rQNYjSkIE4V2MX/AMK7s7h7U4KSsY6JgCJ8dHGqIQSq3EV6iNGmJ1yCjvjvKYhTDeHiLz6s2d0rZISSQA1MbS8RN2hCxcgZBhWochdpiSlxEpcOADzXtuE7+dx2R6YPBheooaGYrxAOrKTJJCxoieQmgBiiebVoAlX2HYB1ouxxmjqOLj16J1pUgaqfJ8rc2sZ2Be/h8sWaesDxnD9jbT3qFL7oAlXuMZASa9oPlPK2Dnu2kllASUKg6pfLWVs68w1HxKZy9zZHcG4fGm76oODSH1KqoiQjUIOj+1Hi9t1A0X1tafQw7HHhJzVYNzmBKvcA3lBiYlruc+AvQNf71kGYKuXQKUmBGlpYUyVC/Qks5spxNkCSVrNO0gJV7WJTwx5CzSZGxTlaOLpylWKsyZG8QA22uwkzHPH726muSNVmwK8cvYzmW9shsjEZjUANcPsbR0th0O7/MfTowSGAtTRuvKksV2eUIdDoBGpokZ3WOWFHon7sRmNFflrKBTrCXBLHOqMOeUYrUENHoRr2NbEmU66CldRiNI82ltJQIrwZdSw+eoEaUFZZ95xst0en1QGju4caIXOHkd13GNPTRZCq5iEmU82YjEANHRMHG8+4K5wR66tFcrFOV7OhzL/Nz6Kj5b/G3NrmcWoJ4eQEWgcJ1aKhrW+sHGEtt1NeTZu0QA21OuEdfvqwrDHIQpR1shDoNYj5jFi7xntDcEJIsYP7zm6VLEuBXlMT7BwPH3FhF54R6x5SqyzEQgRKUEtsCjzqiU3f8ECL8AWJVzV0xWBsiEA7gqVX13GSB9kA2A0RqJAuSqn/A50ETCz7q99eAAAAAElFTkSuQmCC" vertex="1" parent="1">
          <mxGeometry x="490" y="-200" width="65.39" height="65" as="geometry" />
        </mxCell>
        <mxCell id="82hZbd6NY0PPkRuZH4To-5" value="Web" style="shape=image;verticalLabelPosition=bottom;verticalAlign=top;imageAspect=0;aspect=fixed;image=data:image/png,iVBORw0KGgoAAAANSUhEUgAAAKgAAACnCAYAAACFHRdhAAAACXBIWXMAAC4jAAAuIwF4pT92AAAOz0lEQVR4nO2d63HbShKFB679L2cgbgTSRmDeCKyNgFQEpiMwHYHpCExEcKkITEawYgZgBmYE3BrdAwmEumcGz3mgvyqWVBAlgcBBP+eRXS4XJbQny4t7pdRHwx94vixmf+QSt0MEypDlxUwppV+lAOd4pz522/LPnrVg8b3+qoW7118vi9mz5XcniQj0TYxziLF83Xg4lSOEq197Ee1EBVoRZPlqaxHH4KCU2k1VsJMRKGLFJQR5F8ApteEMse4ui9kuvtNvTtIChaVcKaUeAreSbZiEWJMTaJYXHyHIVY+W8oCEpnSx+8rP2AQH53JfOVQmXLPKq48H5wSxbi6LWdHD3wuGZARasZbLDgnOqZqkjFUiyvKiTNBmPYQgTxDq3uG9wRO9QHFztSgXLX79BCHukYQEY33wuebwBm0Eqz/b+rKYbQc4vdGIVqC4gWul1KeGv6pLOVvEblG4w0rY8gDRNvEQUQs1OoEiG980FGZ0ojSR5cUSYv3c4NeiFGo0AoUV2TRw5edK4pBk/RDXZInY2zXZOkCoUcSoUQg0y4s1boKLazvB9e+m1ANHyLNqYFV1MrUK3aMELVBc9I1jknCAtZxEAZsD1Yy1o6c5w5pu/JytnSAFCtelL/IXh7dH5bLGoqFQ9TVchmhNgxMokqCdQ0x1gouatMW0AaFuHFx/kNY0KIEi1vxmeVvwbilEGoRL2po+hBK/ByFQuPSdQ+koh9WUAcAtyfJiBddvSjjPEKn3sMm7QOHS95YLdkKMJHFmD8AgbB3c/lffnsqrQFFw/mV520+4dLGaPZPlxQOEajIOXr2WN4FmebG1ZJjBuJmUQRK1tYRXuhM39yHS0QXq2BEKKlCfAg4J6hkiHbUrN6pAIc69JZP8flnM1qOdlPAKMv2dweWPLtLRBOogzjMSIalregQuf2e5T6OFXh/G+CcO4jzhyRRxegbdpDmSIwptXX8jwR2cwS2ogzi9BeCCGYdE9nHo4XuDClTEGT8OpcC/hnT3gwnUQZz5ZTEbxU0I3bCIdNDEacgY1BRoizgjAm78kTljHZPu0RHsnUEEitiFK/yKOCPEQaQ7eM1e6V2gKPhygfWTiDNeLCK9hSXtVaS9ChS9Xa4bccT8GSFiINKvzCe4Q5ewP031lSRZRiVJtp4YlhJUb6OgehGoJWPXWd59akuyCC/3fWcYsvefPjL7vly8aaT2XMSZLEt4R4pekqbOAkXcyZn6R1mENV0Qsj3AS9a5xTC+TnQSaGUsIUUe+7pAgh14Ry75/dy1Z9/VgnKjsY9YRECYABjk8535pBsYsla0FigmX1HF+HLYnGTsEwJjeKl49KaLq28l0MrCChRriTsnCxePfmrr6ttaUM61H2S++nRBPMoZrk2brL6xQDEtgKp9naVTJMBAHYgLcWMQL0sbC8pZyLXUOwWwZFz9l6ajnhoJFHEEVZA/imsXSmCoOD000olzqxPxQ8HEnoOOqhbiJMuLglkEzlkvTSwot4BsLuIUGLhauHMs6mRBLdbz3z5jT7Ra57X9iFJhj5Wioy3bZXmxZ+rl/3WZxfsvx//DWc/vvsSJYHsb8baGLugb+y3Li6eImx/aWv4mjq8wLciIq4unTPW578GprlTGnqYsziq6rFd0aRn6AuEfVXb6hJKlEatAkblT1nPjZTGpf26SbbnGFLlxsTiBwnYdbafrYkGpP+LNejosvpoyd2Ot6NEnFitqzB2MMShMMFUm8LLFC5I1buxpjkQuFfS1p5KLVR/jLD1gikXZh86WJHUuE/QM97R5Xwl4CJh5P1HG3dqKZnlxJM7/QRsezuCxLh6xHtVzfwqtpZlwF4s0BEMtkjAC1H26MVlQUwz6wByXUfIjYTAEvS+QMAaYYUH16FsJlHLvJ1kiUegIZeDuOK9AChRvppIjsZ5CV7hwjLSiXJLEmdxoBJrlxaayleIJqwK/axkSezSx6+OjrbrBw3tGLViWK2+ADlu4ZIny2pxAqfjzGMt4T6wPVd3ns1w3aEYIr76B2CeI8OohRdL4d+XQDdqQzx7CHr3CMXX8iFLbNvBQTBu6H7Vjt9pz143IOxefiHunWmg39TIVrCdVa6RqrVzSGFLh/A6Vl7/1gxNwts89PO+uMRWDcv3RFJOjKLNhR+6GXLezC/DE1AxQJ4FG7d4BNT5Vx4xX7gOfiWrBURsI7JgSSciepdOU34Hhsvkro0EJlHJ5UVlPJC4/K4dOhtX1HmoizalgvbKCxgmHzhhuGPq1CbV/zw1yvzKQVwOW0Xun+qVBTOngzu+ymGV+zmh4srygRpR/rXsDhCtLpvunp4Nbh7Z5+GzUlJCrFbjrWTz5IWRKR3A8M/dkx/Tvbduc+2JPnOtVzFx38ZRAqRhNCJeYqi3UQ3YVh9YFSj1pYj2FoeDmWr1a0VcXbyhHBC9Ql6kDQnjoonyWF2diAPq81F01BuXmu8Qwo5BK7IQ4eCY896ux/EAdrHCSZRSFgaE8NClQyk3KMorC0FANoNfSU1WgVNtPBCoMDdmhLHOiqkCpuS6yWp0wKIYa+4vBfEmSDAsCRCHQCXaSUoPN5EsLGnMGL8QPqzPjwg2SwQsjQensKgalMvgTcUwQhoCyoB+VxYJKgiR4p/f94gWhBVYXn/LUByF8KBf/ktWXAqXanJLBC94xuXjJ4AXvSAwqBI0IVAgaEagQNCJQIWhEoELQlAJlC6WC4JNSoGwvVBBGgN3/SVy8EAKUQF8WFzMJVCyo4JOXsNPk4qeyzaDgH6uLl7am4BNKoC9G0yhQWbFDGAkqnHxz8THvRy4kATujuJokUVM8xIIKg2KbUfyhfqBGdPuTC9FhnFH8oX6ghnSThKGhvPS5nFFss6BSahKGxjibw2ZBY95ZV4gDN4Ea1siRREkYBCz1TW0aR1pQxWyuJBZUGArO+L0ay7pAKSsqFlQYCi5Bes2H6gKl4tBbQ61KELpACfTKSLpYUGXYSFUYEEOCGv3YCcSfVJWIF6hhk8+g3XyWF++2LkwE8nMl0prmjN6VQKn94veEsj9rxQewHCN3Y37A2qS04Jk2CtS+VZQBiRFKoKf6w8cJ9AtzwbxunKofkCwvcmY/d+pYimwS+UzUnqLvQsx3I+qxey+17XQoceiaOb8poLdFj2mrQ5IsLzgtvTOA3JQPylIu6nt5+wBx8nyCIj0nlKxS24Ofqa3NmwhUhXKBEKfME4rHbOgNfWfV+mCswMhR7p3UHBWDvrh5Zg/FZSi76UKk93AXc0PHa0a00/5EIm4dk+0SG1Du7N4VJ9DKL7zbd1wX7UN6kuEW2OQtywsds36rHT6GuMH/RKBKZ6R7V5Zpx1y2mGrNURgYzHGjivOsV2YFCrdCTQNZhpAsCVFCJUfKVDqzrSyyJo7dSOtTaArGc1C16oMpZLQJlKuJUsKNiZQHv4Tq3bjQ0Jh0u+w0R/0BPcKJM9ehwY3QSi6WRuhFGQ+vNWOcF6WXk63xYMriSzZM63MdSsnJAjdC6wcespRWVbknSoPKd4sa1pM6L2vbNrtc7JvpZnmxZeKHxxhab4bznwp/Gab0DAqsZ0EI9Izmg9FAuC6/yMWcscSiU+7f577ECdac9XQZHeckUGRZOfGjWxTCg2bC/fuDz7o1MncqPDy7jspqsoAtJ8RVDHXRsjWKm5Y6WgDfdbfM8xheToRO1lO5xqCvb+ZjOe1GYsnqyyf7IdFFegv0770mf+ga/SZ+pDN35zJfU4FyAa/yGYgLYQGdPDNz3hsl1o3WqMdTyZnt6AfSCr2xYsR5aFr1abyJwmUxWzM9+igSJmFYMDesPnqspHHC1naXDy7e/CZrOU0ezkL+bDOutZVAEWv+ZH68k9FO0yTLiw0znO7UtmbeZZ8k1tUnNPNQcAQzG6iap2bZtqrQWqD4h5yrX0Q0mEToCMp2JtfeurrTaac5i6vfSDw6GXZM6bG1ay/pYyvENTMB7Ubi0fRB84Zbifuha8Ogs0Arrp7qc98GMNRLGAiEcdwosa99zEbtZTNZnAhX4/qEp0xICCRFv5hP9HRZzHpJlHvb7RgdAi4eXUgRPx2QW3BG52hInhvTqBfvQpYXe2ZVNhXLAGeBB+LcM0mRDvPmfS40McR+8Q+GVTt+SfkpXiziVEiKel0FpXeBWpImJSKNEwdxPg4xmm0IC1pd3EtEmgAO4vw6VOjWewx69cfdnjqJSQPG4R4OOlh9EAtaYik/KVhS6dsHim9xqqEFqt7KT4+Gt3yROml4IAT7n09xqqFd/NU/+ucDbwwf+IgSRUoLKUQJs2RlldHmoI0mUOXmMk5DlCoENzBuYsusgFyiRyeNNpV5VIEqN5EqSZ7GB/dlx8wlKhn9vowuUPU2fnBn2Y/+qctAV6HR/dAW8YfhLbpcuPJhNLwIVL25k52hLarg8pcynXkYHF167+3LJngTaAnKTNxUgRI9CGUt1rQ/MBppawm1vCeu3gWq3C+WWNMeqEzPMHkuNXYyxBGEQJV7XKoQm65S2DNoTODOV4a1OkvOMARBDDQPRqAlDjW4ku9NFqGaMqhBry0ZusLCasuQHv7gBKreFp7aOlzQchk/ESoBruPawZ2fEeMH13YOUqDqer11WwKlRKjXNBCmCtFqVglWoCUoIG8cL3Yp1O0UY9QGrlz5rG02IXiBljj08uvkEGrSWT+Sy6VD8lMlmrJdNAJVzTLRKicIe5eKVcV1eMDLVGSvE10FJCqBllSE6pLtVzki+YpOrBVRzvHV9QFViDPXMXqTKAVa0tKilhwr210HeeMQf8/xamIpS6IVZknUAi2pCHXpmCBQHLBstb6Zz2NbWHyG+8re9/pr04euJIcwow9pkhBoFbRNV45Zv40D1uQvIN4/EG/r5AIlIAURfoQQZx0erJJTpYKRTKktOYGWVLLbLlbVxtFxK8U+HhaKM9rDyVYrkhVoFcRySyQXQ4l1LEpR7kLplw/JJARapbJHUtvEwwfBJ3RDMTmB1kFMWE1OQrCwhzJZ01+n3L6dvEDr1LLp8vs+khiKQ5l44VXIhMFrRKANqIhXVcTrQilCzR8RoSNKqf8D6KaD8M2wN+EAAAAASUVORK5CYII=" vertex="1" parent="1">
          <mxGeometry x="360" y="-200" width="70.42" height="70" as="geometry" />
        </mxCell>
        <mxCell id="82hZbd6NY0PPkRuZH4To-6" value="Exchange" style="shape=image;verticalLabelPosition=bottom;verticalAlign=top;imageAspect=0;aspect=fixed;image=data:image/png,iVBORw0KGgoAAAANSUhEUgAAAMgAAADICAYAAACtWK6eAAAAAXNSR0IArs4c6QAAAERlWElmTU0AKgAAAAgAAYdpAAQAAAABAAAAGgAAAAAAA6ABAAMAAAABAAEAAKACAAQAAAABAAAAyKADAAQAAAABAAAAyAAAAACbWz2VAAAYUElEQVR4Ae1de5AcxXnvnr2HpNPd7QUMNi5TINALUShIqRAhFIuTFFCCTbA5hFKFjOWkkJHNw06My4ULXOUKEGJeiTCq2AiJqghxxkSBWHIhCTkWEDkgRRTiIUCiRAgBQe6lk+6xO52vZ2/udvdmZvub6Znp3fvmj5uZ7q+7v/7173fdPdPTyxgdhAAhQAgQAoQAIUAIEAKEACFACBAChAAhQAgQAoQAIUAIEAKEACFACBAChAAhQAgQAoQAIUAIEAKEACFACBAChAAhQAgQAoQAIUAIEAKEACFACBAChAAhQAgQAoQAIUAIEAKEACFACBAChAAhQAgQAoQAIUAIEAKEACFACBAChAAhQAgQAoQAIUAIEAKEACFACBAChAAhQAgQAoQAIUAIEAKEACFACBAChAAhQAj4INDwrfWz2I3rpvpEU3BaCKw7OJVtODIrreJ1lWvpyiiNfBpufeRK3sB+N6kxs51EkkYL+JQpxdHctI1l2O/YxiNX+lhVRXC1CoQ33LL+h5zxpzljzYzzhSQSQ/jmioOzS6BdmpnFn2YbD/8QvIOmqr6j+py+7t6mxlObH+OcXz0ObiFeGBjMX84eXnt8XBwFxI9AsTjGl/YLJnquZ6vm9o+PMjekugSy5qenNU7h26HnuNAXUhKJLzSxRkhxtDRthzIW+pYjxH7G4B/YqnM/9rUxLKJ6BHLz+jMbM+w5cHhGRQxJJBUh0moQ3HOUFiXEIcbsZWzVOUdLI8y8q4o5SOPND8+clBF7lMQhcXbnJKvvaTYT9hryCiOOQtvAPzhrD/v54ZnVgILxAqm/Zf08bmV+C6z/AgpQKZLW1m2MRIKCDWWMFYebOYe2rOe/ZY++Pc8NMvVs9BBLisOy2C5wsjU0gHK41dOznD16W1/oPCjheARU5hzjU5WFiB42nGtnq6fvK4sw5tZYgchhldNzcPaZyGiRSCJDWJJB2J6jJJORGyGOsWGxiH1j2lte0WmHmSkQmJDLOQd6WBWEJokkCB31OJ3icEsV4n2YuF9i4sTdvDmIfJQLT6u0ikM2BM1JXDqGP8chjkLbwPzSeo5teue08M7Fk9IsgciXgM57DoVHuWHwkCLJZrfTxD0EeO6cQ74hj+PgHJ5uwZKhTQea4sg+bJ4mCYQ3ntqyMfAlYNhalqa7mJ5ulQJS8c7tOYJeAlbMRMGAwwtg3voYWBoz9DdGILC26nbO2VcVYIxuQsMtdQxdccTVc4z35GpYu3X7+OB0QoxQqrMqVy48hO4jURho4h4Md/LicP0RzBZXsa+dvdUNSOucLCE9atlw47rZfFLdXnAknbfeJBKPVoGg9MRR8EeIPnbixB+xNXNe93YwmdB0h1jzvzRl8tsvPm7lho8kU12PUmi4NR6UtMUhPRoaONK69d5NDDgy3sHkQlIVSDY79UFL2PMb33hpGs8Nv5pctctKIpGMAWKCOAZPvprtvGuaNTw4X3JkzLnkrzLJF1kosbV9RYdl8bvkHWeiIfPJB035U854k1mZ01PxifMz6xob/zh33qJOtn/HUCo+pF2oQeLg+WHnM2qYl85rPGvO64NHDqYy1EplDtK0ZOXp9YwdhMqfUswJwa3jg7MXHBZ19RcUhyd6PVHnJAaKw213Idinw4zN6d+5+SM3LKlzKkOseiZ+Wi4OWWEu7Kk03Eqq6YvKMVgcDi/gH6nkTJHHiV0mPsRqXXLtCotz+Y2y50HDLU9Y4gs0XBxuxeET69mNZ5//5uCR1w66YUmckx1iXbS8pa05+yZU7HOVKkfDrUoIaYivEnEU1fTDrr7uWWzvtt6isFgvEx1iZZtafgy1qSgOWWN3uCVywwdiRSAo81p+ulV94pAt9bkRDgW1mta4xASSvXTFXGZZazHeOyJ5c++/QxpY+p7SUYsiMUEcgu1peeonv3GfVim3LnDI4ZJygmiGiQkExPH3MJ5DlSeYeKf30+7vDwzklkM10xVJrawCNkQcrK9/ee/HH31ftjGGwg6HgEuYNFFsUYQNW1Db0mv/DJ5aLcWkF/AFDRdsNXvlmRNyn6vURcLYxVW/VN4gcbC1c47LtpVtLNsaww3JJckpTJqwtkkIxGKC3YN30H6oa+cTsFnDyEEicZEIdzZNHCO1KLSx/RC6UgVOxc7f2AtoaV+5Ar7mm4MBQHa73f32D8alIZGMg0QpwFBxuL7LtsYOtSSnHG65mcR0jlkgHZkMZ3dgfedC3Mpe6jzpmY5E4gmLb6Dh4nD8hrbmtv0d3zr4RBS41RHru7xYBdLSXncNLLRCbRAG/0l2du3c8qwPJoVgEkkgPKOR1SCOEWe7dj35jGz7Ud9VLoBbDsdUbEPaxCoQ2NPqexi/nMlaXnxXKQ2JJBimKhLHaEWg7bETdouLvxlNH8NFbAJpXbJyGTyS+32Uz0Js6H5+i/qLQRKJN7zVKA6oidP2wAHvSnmHwhKUCyXXvGOjh8YmEHh0hR1T9g/n8/hvkUkkpSyoUnG4lRjhAOonEkJwzS2u4jkWgbQu/eo06Covq1h6kQEsaf5Z/+7O/y0KUr8kkRSwqnJxyEpIDkguqDc+g7cI7DLJOUwaVdtYBGKJhjXQ9SkvhBRC5DjP3afqtKfdRBdJDYjDbVfJBckJ977SWXJNcq6SXZh4/QKZP78eFP11lDOcbe7a0XkUlcbLeKKKpIbEIZvV4QJwwquJ/cIczgH3/OLDhmsXSDZ7jlxWcqqqQ/CfQuRy4u9U7SvaTTSR1Jg43PaVnJDccO8rnSXnJPcq2WHjtQuEces6jBNQsV8d373lNUyairYTRSQ1Kg7ZvpITkhsV27rYAMm94qR+11oFkl3851ko6Aq/wrzC87ZY5xUeOcwUkcgf8emI4W1vDYvDbfsQ3LhihINuFpHPWgXC6hq/DJsjNqh7JY727trya3V7pKUBIoFBwhbW2ZlHeh5sPgHEIQEocEMcDQZjLNbhHnBwLCT6lV6BCP4VjEswwNwA9qilzpj8HdsURSJscdPgA2v+Ae1zUIIJIo4RCOwRjgQhUhonrKtKA6Ld6RMI7IAHz3X/BONOXoh/xtiHtk1BJCSO0K1VkhDLEdj04zKduzFqE0hbdko7LEGeXFK7gBtYmPZy384t8JPACR0JioTEoa9NJUckV5RzBA62tTVdqmxfwVCbQGCsjeo9hOCdFXzTH52ASEgc+psNyxVoA9QqjiCPtQkEeg+UU7ad2xrkWGxxMYqExBFPq6G5guRikNdaBDK5vePz8LZ/RlBBJXGCvdX3fGd6v2oag0hIHCUtrPXG4QpwRjVTyUXJSVX7IDstAmngmUuCCimPgycT28vDEr/XKBKoz830tCreFsRypkHULdThkRaBwCeyKGc4s3focD5yHhpE4ojjvhvwmw4EOT+xHuUGITEah+UM5/Cz0hoOLQKBPa8uVvUFnkjkuwZO/kbVPna7CCIhccTeOqMFSM5I7owGVLpAcDIoq+gCcVZQivODCimJE+xV9sK/9pWEpX0TQiQkjoQbTXJGckf5AE5qWN0bWSBt2Rmz4RV/o6rfgvGXVG0TtUOIhMSRaMuMFobhjuSk5OZo4pAXkQUiuI367hzmK/8R0tf4kymIhMQRfzP4lQDzir1+cV7hWG565RFZIKDU87wy9guDR3DqmzL4ZRJneIBISBxxAl85by6s/6psNWaB5eZYyrGryAKBN+jK7z/Adrir+9AbY8UbeuUhEhJH+m0luSM5pOoJhpt+eUYWCHzUMt0v8/JwWEh2iL3yinIFy9Mnel8kEhJHosj7FwbccTjkb1ESg+FmScKim7qi63CXgp0DuycqHTDJelvJ0BQjKZKOjsX0PYcpDSJ3MOFvA93U9nqW3Ix4ROpBWhZ0/B5mBS/nuN+CiFg3PcnpYyc9OGrKBcUhWNnrcDRC2ZEEkmlin0eVLdh7KPtaM6Y35NFbFMkhNEfLPIwkkHyen1GWX+AtTJr+J9CgliNJHFpaF8shLEfLnYwkkIzFlbf3kQXD95MTUyAkjnLehb7HcgjL0XLHIgkEfotW7mKifPDM8DFl41oxJHFobUk8h3AcLXc2mkCEQAlE9Fvd5Q7U9D2JQ3vz2sLuQWWK5Gh53tEEwq3W8gyD7nsbj/UGxddUHIkjlubsy3fhBMJZSxRHIgkEXqA1qBYOS5WH2O7dyhsSq+ZrpB2JI75mAQ45XFIsQTBLeSGtV5ZRBaK8WTCsi6mON+heKGHCSBwYtELZYrgE/8SVOerlTCSBwM9fKRcOjg55OVBTYSSORJoTwyUMR72cjyQQrwwnbBiJoyabPpJAbKE+bIL1M8rzlapDmsSRaJNhuIThqFclIgkEHFWeV8DESnk45uWosWEkjsSbBsMlDEe9KhJVIMrzCphYNbDFi6OvHvaqRVphJI7kkQcOOVxSLBl2QxlUNPU0iyQQhnxp05xpQ7038fTYlEASRyotgeaQYJHevUUTCOeoN+MW8sViKi2gUiiJQwWlWGzQHEJytNzpaAJhAiUQka//TLkDVXdP4ki1yfAcwnG0vHKRBAI/kfVJeYZB9xZnqOXxQXmlEkfiSAX24kKxHMJytLgseR1JIJmMQC1fh2+Eq1cgJI5y7qRyj+UQlqPllYokkHw/+6A8w8B7zs4KjDc1ksRhTssgOYTmaFlNIwmk96XO/2NCnCzL0/cWfgjlXN9IUyNqWRyL76y6x+4oDgE3HY5G4FYkgTjlcvauavmwZct0VVsj7GpYHI23PPLtSRd+djdbfU+zEVgrOoHiEIKbfsVHFgh8I6y8lQ9s2TJDx4bCfpXRGl7j4uAWfwh2pFk4Sf6Oe7WIBDajdjik2NCwqPGQoqmvWWSBwKRJ2QmwrdexobBvbXRFTARxuFhVkUicjdKBQ67rlc6wzET5n7dfXpEFAutiXvfL3Ctcx4bCXvlqC5tI4nBBqxKRYLmD5aYLR/E5skCwGwoLYV1U7IBR1xNRHG4DVIFIsNzBctOFovgcWSDOhsJMKC8Ig0nWgmIHjLmeyOJwG8FwkWC4A73HoI6N0iMLpLAZNX/NxbjimbML2MIvm/XkhMQx1mymikRyRnJH+QBOatgoPbpApMO2/aKq37BUOdM2afIXVe1jt6tlcXxn/U3O0yosiAaKpK1x0mLJHeWqIDgZlKcWgcDYcE9QIeVxsNPE0vKwVO5rXRyMPRgaV8NEIjiOM1hO+uGkRSBDPPeCXwFe4fD47XKv8ETDSByV4TZIJNB7XFbZ4TELLCfHUpZeaRHIyV2dHwgBP46jenA2s/nSjpmq5trtSBzqkBogEocrwBlVpyUXJSdV7YPstAjEKUCIXwcVVB5nWXVXloclck/iwMPsiuTGdVPxiaOnQHMFycUgD7UJBCaDKIHAD6F0BDkWSxyJIzysUiSNme0sBZFguYLlYhAo2gTS1dX/PGZlL4wp/6B5yYoZQc5pjSNxRIczBZFIjkiuKDsPK3gdLionCDbUJhD2yjMnYCEZqhfJcP4Xwe5piiVxaAISsklYJFiOOBwELuqqsD6BSI+E+CXGMXia9XWw1+tDuQMkjnJEot8nJxL4wtbhiLrPSA5WylgvOe2BZ+AV/1ClQsfi+Zkt7StQj+/G0ipc1bA4GHzsxIW4RgGFeEwSEEmBG/xM1Qo43AMOqtqr2GkVSPfuf5G7nDyrUrBrAz+Rtda91nquZXFIoHbfmRvo6VkOvTbqHZRWjGMWSQhuPDvCQW3V1CoQxythP47xDj64+tOpi1ecj0lT0bbWxeEC8OhtfbUqEskJyQ23qkpnJPdU8tQukO7ud/8NKqa8HRCHo66Of0/FWSWbiSIOF4waFYnkhOSGW81KZ8k5yb1Kdth47QKRKyihVhtQjgi2sm1ph/JY0zfviSYOF4gaE4nDBeCEWz2Vs8M5Dat3y8vSLxAoweZDj8DrfvgkWO2QnYgQme+qWftYTVRxuHDUkEgkFyQn3KpVOkuuSc5VsgsTH4tAenY8dRgUjXonAp3pXzYt7vhsmEqwiS4OF7QaEInkgOSCWyWVs+Sa5JyKLdYmFoFIJ2xu/wTnDJ9Sn8n8GJcGrEkcpZBVuUgKHOBTSisVfIfnWnB+xbEgvviO7JJr90FXeaFqCTAms1nentf9/JYDSmlIHP4wwVY+zpY+8CjW3yjmGHgEPTCYv5w9vPa4SknZS1fMZRlrH5BS+R83jK72d+98Yp5K/mFslB0Jkzn8/NW9mHQOMBmu1vOQOIKhrcaeBNoeIw4JAJZjwaCNj41VIL27ck8ywd4aX6x/CCxMW9K2ZMUV/hYQQ+IIhGc0sopE0tZ+zZdk24/6rnIB3HI4pmIb0iZWgTDWmc8L9iOsb4Lz+9mCjsme6UgcnrD4BlaDSKCthWXd51sHn4g8s++UHPOJ1hIcs0AY6921eQsshziI8Rb+k5ybbbL+dlwaEsc4SJQCDBdJdkrdXbLNleriGgGnenduedK9jescu0DAcRu2a7kNXwHrprYl1y4aTUfiGIUi1IUUiZwwG7Z2y2ljzr6NrlOBUzY6HTIBzImSObJLVj4Hz7eXYkqD1ZnvdHf1z2Wr77ZYc9M2ENolmPRabQXbw/r6l7O1c5SeyGgtW2dm8EWg82WgCU+39m63s21NB7C9B7yC3tG9c/MynbD45ZVED1Io27b/2nmM6+eJR7gEruW00+8mcXiAEzYIHrma0pO0nJK9Gy0O+YqNsWirLhDYqW/EhcjUy3TgvYMfTTprzqnwXkR5b16RqT/e03FbC6ur+0OvPBMJq5Weoxis//zVUG7e8ifrMvyL8IVg9DVwxXmrXkO5uVPOmFz3yX83wZaiDarJYJPCf+ze9cRjyvYRDZPrQcDR7v7e2+H0oYrPUhzd1/zgXdYwaa6KfSw2tSgOFygDehKeqbvg5HkXH4ZN4VSHrR+OcMitReznRAXC9m7rtYW4tVKtSByVENIUX2UicbgDHNJUe6VsEpukF3sDS1B+CUOtq4rD3GsSh4tEgmcDJu4in3t18usvTuPC9tx7C5aUPA1LSr6SICpOUcn2ICO1G2b8m/Ak4tPyypI4yhFJ6N7wnkRyRXImITRKiklFIP07N38EK/hLKkziKGmX5G8MEcmgx5xEckVyJnlQEKsmdTvXs2tLJ/xn+JnMl8ShG92Q+RkgElE2cZcckVwJWaPIyVLpQVyvu7uP32zXT3qZnla5iBhwNkAk8unW4OwFh22eeVlyJE1UUpmkl1T4nw7NZo31e+F5fHNJeFI3tfwoNwqGKU/c4aVynxjIXTT08No3olQjatpUexDH+b+a8QYsib8OrpW/YY9a6dH0JI5RKMZdpNiTwLBKfmZ+XdrikJikLxDpxdfO3gpvSO+Ql4kdJI7KUKckEhDIHUP3r9la2cH4LdIfYo3VkbPH35PLl68eC4rpisSBAzbB4Rb0HL8YvH+N3FI1+RGFBypm9CAFx6Bj7bkeOtf9Hn7qCyJx4LFMqCcBAuwf/KTvenDQCHFIoEzqQaQ/jG165zT4MdM94Nr0QoDGvySOaGDG2JOAIg4NnrAXsUe++XE0J/WmNqkHKdRs1bkfM2EvhZ7kfa1VJXFEhzO2nkS8P5hny0wThwTMPIFIr1adc5QNi2UgkmPyNvJB4ogM4WgGukUi2DGRt5exB284OlqGQRdmCkQC9I1pb7FcDn4uWvREwovEEQk+z8SaRALDqh7Y1OPywQdvRO184+lTTIHmCkRWePX0fWw41x66JyFxxEQbyDaqSKDnsG3WPvzADfviczJ6zuZN0r3q9PPDM1k9fw7etn/BK9ozjMThCYv2wFATd/G+HFaZ3HO4OFWHQKS3m96FT0MtKZLKv4xL4nDbN5kzQiTO0yo5ITd0zlEOmNlDrGJv5cSd5RdVfE9C4ihGLZlrxeGW855DPsqtEnFI8KpHINJb+QiY9YJI2FPydtxB4hgHSWIBFUQCy0eeGjzWZ9x7jkr4VM8Qq7QmnG08fDuzrB9BcKEOJI5ShNK6KxtuFRYewtqqB26QP21hzBtyVXiqVSCF+m08ciXIA340lB+oiU3dVFvNdLsRkcAeyxc4q3INWXhoOmzx+LfhyCxnt/d4cqdcwyIAImn41vpZYZNTOkKAECAECAFCgBAgBAgBQoAQIAQIAUKAECAECAFCgBAgBAgBQoAQIAQIAUKAECAECAFCgBAgBAgBQoAQIAQIAUKAECAECAFCgBAgBAgBQoAQIAQIAUKAECAECAFCgBAgBAgBQoAQIAQIAUKAECAECAFCgBAgBAgBQoAQIAQIAUKAECAECAFCgBAgBAgBQoAQIAQIAUKAECAECAFCgBAgBAgBQoAQIAQIAUKAEKh9BP4fK4rb6jUkCWQAAAAASUVORK5CYII=" vertex="1" parent="1">
          <mxGeometry x="-170" y="-5" width="90" height="90" as="geometry" />
        </mxCell>
        <mxCell id="82hZbd6NY0PPkRuZH4To-7" value="Runtime Manager" style="shape=image;verticalLabelPosition=bottom;verticalAlign=top;imageAspect=0;image=data:image/png,iVBORw0KGgoAAAANSUhEUgAAAMgAAADICAYAAACtWK6eAAAAAXNSR0IArs4c6QAAAERlWElmTU0AKgAAAAgAAYdpAAQAAAABAAAAGgAAAAAAA6ABAAMAAAABAAEAAKACAAQAAAABAAAAyKADAAQAAAABAAAAyAAAAACbWz2VAAAjsklEQVR4Ae1dCXhcxZGufjOaGWwMZiGEI8laNgQI9xUSDmMgC+YKLDeb2BgCSLbxIZOEQL5sBDmALFiyjS2JQHwRzBHY8BkIkA8w5ggJCYRjw+nj2wViwMTcnpFmXu9fbyRHtjVS93v9jhl1+/OnmTfV1VV/d70+qrqbyCaLgEXAImARsAhYBCwCFgGLgEXAImARsAhYBCwCFgGLgEXAImARsAhYBCwCFgGLgEXAImARsAhYBCwCFgGLgEXAImARsAhYBCwCFgGLgEXAImARsAhYBCwCFgGLgEXAImARsAhYBCwCFgGLgEXAImARsAhYBCwCFgGLgEXAImARsAhYBCJCQERUzuAtZnrL8DrKjBDCqQfYI0iILwiXtpNCbIvv+CuHEYmsIJkBSNluoAqSRCeRLAgpPpZEa4WU70uH1pKUb+L7aindVV3UuZpamz4YvOCGr7k1EIMY5y6ZU+/WZb6Oxr4f2O4thNgHf3cyWERfrN6WUr6AH16EUf3V6er8Q/6GKav6IrTP9BGwBqKP2YYc2SkdoyhFY0nIMYLEYSRoxw0/xvlB0t8lySdJimVUogcKcxpWxClONZdtDUSr9pqd3PTPj5aOOI0kjUUPsatW9piI0cO8DuN9QLjy7nzrO8uJmt2YRKm6Yq2BKFRZeurcQ1Op9LlCyDMwX9hBIUuCSeQaKcVvSqXikuLsyU8lWNBEiGYNpFI1XNyxXXaIHI9J9YVC0B6VyKr5uZT0Mib9NxU+E4voxoa11axLWLJbA9kE2UxTx94O0aVS0LkAh1eWaj5hVaxTSFqCcdf1nS0NL9a8whoKWgPpBis3o+MoTGwvw2T7OA38ao4UGDwIDK7Nz2x4tOaU86HQoDeQ9LSOw1OO/Akm3GN84FezWTCxX1ZyxY+KsxqeqFklFRQbtAaSmdq2l0iL6wZ7jzFQG+EeRRbldztnT3xpINpa/H3wGcjkG7bNZtJXYTWqAZPvVC1WqmmdMJkvwavfUegs/ifNveR90/yTzG8wGYjIzWi7EIZxLf5vE2elYPjyEVbH3vPCR0igwcn16MkQWkKFbrmyeHNjgUBsAa/8thyWgtWmz2EYuFWcckPOdeSK7+dbG26GHJjb134aFAaSndq+K/qKG6OcZ6CBF+HJfhkAv+gKhIJIegUrY6u7ujpX0ZypH/lqWlNmb1VXl6nHitMIOP52d6TYB610b3jy94CBpX3x9JGJ5yfoUy4uzG583Uf2qspS6wYisk3tU/G2vgaK5sKsGTTUPIxgOYIIl8MgnihS/k/UMmN9mGVu4H1xx5D00NLBMJjDERQ5GsYzOhp95Q8KLY2zIUfN9ia1ayCT5u6QzaUWhDsJh1ea6C5y3fsKIr8sMoPYYBkVPjTN3CIrc2PIcU5EBZ+OoVpo3n+exBfypQk0b/KaCtJU9eOaNJDstLbjRMq5BTWznena8eYPUiwR5N5WHXFN3fFjQpwLLM4JaR6zVpbcbxdmTXzQNN5x86s1AxGZ6W1XCEdchZ4DDnGDSdIfMZLoyH8qbkdYxmcGOUfHCkOx3FB5NnqUBgzDDjFZMHoSF//+s7N14s/Bt2aGXLVjIBdcOyw7fPgtUOibpiqeKx1VfU+pVLqu1gL7ygGYqe/CUE4x+TJBD3tP4cMPx9GvLvvYVD3Eyac2DKSpbecsifswfNjXBJhY98eCE90u3VJzYdakV03wTCqP7LR5uwkn1YxX/tnwCxlpDzCS5wskT6SWiW8lVW9VuYwAolpYGHR1M9r3TUm6DytVO5vgD9u4F57jyweb57g7suBq2MhJJnCE3+atkqATu2Y2Pm+EX0xMqtpA0k3zjkiRc6+JiScM42/oN5oKLQ0PxVQXiSg229RxLPwqLTCUrwQViBc0SuSeVGyZ9HhQXnHlr1oDyU5r/zdyxG8xLBgSBDxU4nqMp67sfHbN9bSsuRiEV83kHdOczhyww6VwSP4YL58tguiF4epn5MpTC7Mafx+ET1x5q9JA4Pw7GYDdicrrOQXEF34wjmVEpYsKLZPf8MWgxjNlm+buQpT6JXAeE0RV4FxA/jPhVFwahE8ceavOQMo9By0NYhyYkHbirfbDQmvj9QC9ZpYkQ2pAIju9/VL01j9DY/G9gcwzEpdOrraepKoMpDznSD0QZFgFa3jNdYtnd7VO/mtIDaom2dZNn7uf46RvR4P5sl8FebhVotLYapqTVI2B8GqVg1gn9By+I1phHL8tdBXO8x0s6Ldl1Eo+BEtm67IL0WhO9asSepKPXMSKVcvqVnUYCPwcORJ/9LuUy34NBBH+qNa8vH4bacB85WgF4WAXpk+/CZaAEdl5SDX4ScyGYwREvs/s7CGHE9C/ccgCQiDOhXH8DPztfKNPkLUeSsaSMe2efGtl9ojhs/LqFHWrnznaHEk3EOGFj/j2kMt1JSmP6ZzVeHu0sNZ+aYwpY4t3zjo/2mKovG92660XI2+iRzGJNhAv8NB3bJV8F/tEjyq2TnzSTwXaPAMjwNgyxjCSdwem3pwCRnIK1/HmvyTnSWKtl0PWKSXuxzBX34gxxpWue0ytx1ElpRl58Vyp1COQR/ugbkwPXSrJE5IaKp9MA8Fmp1wuzQeY+djPId/F3oTR1jiiNZ+ykTjLMWLa3kfJa/P54t5J3HSl/3b2ob1mFsE7AZHHj3GsQ5d/rDUOTcQNkDPmjL3POcl23XWeuBd24gyE95BjWKV9uiGvqBRdeXK1rK8baJOJY8HYcx34Wd3iOvfOD0iYVomyWO/0kbR4AUJpHbDg+Tl4KdeuViWieWWmtZ+NXZ1LdP0kWIPPU1Huk6TTUpLUg/AxbjfqGge3CM8JaI0jEcbBQvCLiutEVyCv7tEGkC8xL+7ECIJD3S4ichgcreSFj8xsOA2ZrBNQC7nQiUV2RsfdaGD6YSkuXYTD6W4KXUKFApLRg+A4ULw0cOKhXoJFvObFVlnj0AMuGmrJdcN1pF2cI39BXpvQzmk8QyIMpPusXK3jQAF8J0fl2sBD423CHEOcIMl1xHWlx1RsU24TernCoI7dQHgvNHqPBm3lsJ/DhqxroxZ5Bq+OUFf6BYuGctvQz2kyR+wG4l1BoHnKOpYRl3VvdjKJheUVEgJcV1xnOuyxApbitqGTJwzaWA2EL6/R9XkAaJx3W8KE3k7Kw2gQIfHEKKt0Ubnu1EvgtsFtRD2HecrITgTvS3S+2Ul3Rc87YGFmle8hP/OOFJ24/why6nZDKNIoYDMc5+gOw3p1OfxbiI9x3i8fvPYBQtFWkNv1Kt333Gq68yw4q6sz8b7/zIz2K7GqdY2OBtxGcJLGUTp5TNLGtsybm952NBrFwzrK8NE8hWfX7Ft1p4/MX4X9Xu5hGDQcjaOFuLIPwP4WvQMnygcfPIsjeR5FcN8jJJ0n6fz6vA5+sdPitJTsATs8j55B90iho+O6MzE2A8nOaH9Af3hFx1XRuVWC5q86Es7PcWiYZ8IgDG8OwiU8kn6DezoWw1AeQxkYxiQ/8blbmF88qCMpXowPFmY2jtXJY4o2FgPxrloW9IKOEgDpXoB0sk6eWGib/ydDo4ZMQE/xffiDefgUfpK0Aj3LL2jFZwuoeU/NJdXwxdu0BLwcl+LlqHWCoytpnziuqI5lko5CL90UtP6+e7FWOA60P5rYf+N5xaKVk2nk0JWYV3VEZhysuGeIKJPLZhlYlgQnPtqV61RHRN02o8O7P9roe5CLO7bLbklvoWD1M5Yk3ZZvaTi3P0Vi/W3xG4eSTM3DMMrI4dmBdcHh0SRKk2jcLk8F5hUSg1xTxxIY9jmq7NnZWPiEdsbVE2tV85igi7wHyQ6R43WMAy8a3DtRajahrHEePPlevHIuUfqJxBgHK+kZKmRi2VjGBCauU65bVdG4zXDbUaU3RRe5gaDyLtQSHvdzJHID1PwVfDHo0wiwnAR9ou+JBwYRMkE2lpFlTVjy6hR1qyWWbtvRYt43caQGkp7edhhWMPboW5S+n/LlNX3/EuPTRatPoJTzl0T1GpXg4N6EZWWZE5Z065bbDl/8E6UakRpISjjKY04PBFx7lribnRavHI/+4h4Yh+Fl2xCrnWVlmVn2BCWvbr2r7dSFSqXSkc5FIzSQZkcIeYY6FEwpO/ToQ6ZetGoqhi0LUEqsEQg+tYTMkN3TwSeHULLp1XG5DTVH1m4jKyg3/fOjMVRXvo4YcTsfeRdmhlIpPph6PYdoRc4kzjdUFYL7ATokqCfhOua6VlWA21C5LannCEIZmYFIR/CuP/WEq5YTc5usN353bobw1WwcPdjz5P3mxMxJyjcG39YjnMpf7bakwrQCTWQGAs/y8RVk6PMx30Pe5w9RP/RWgCTLUo3DqkpoQRfotHDFlysRRPlcSLlEqzxJY7XoAxBHYiDZKR2jsAKxi7qcck2+9Z3l6vQhUbIPIeXcWVUTclUovIm7c0cS/CTlupZr1EUXu3KbUqUPQheJgVDa1eo94DW9i6hZ2YkUBIB+86bl9ZEs5UqJ0Hb5KoIv/uz99z7zs5ATLwGzjrGnZoRacZ1rJM02pcF5I9KIhg3iyI1KHeiL6943EEnov3P4CDkTQylH8ttScIN4hLryT9N3dn+7z3JufmUnqst9Db8dDQM6HcaqvMjRJ78+H0LHxW/8OvawFK5zJzW5TxH7fOi1qRv6/Mngw0gMBEsnh6nKjDdJviDyy1TpQ6HjYD8vtsr4pPxJckvX0L1/+Z3S5qey4dwNHe9GAOI0OunA49GIfoDvyngq4CM8Xc+840AlmRQY+iHhOs/S0DxWEHIq+XXalAq/SjShr8rkLplTT5nMykoCbPoc8Tmxxf5vkIUjYoVj8u20kkqlqTRhlJmeccGKEymVmg15R26QOegH6V5C40ciriy+hL0iD2KueqyyBJ2dI/M3TFmlTO+DMPQ5iFuX+bqOXFKK5Tr0xml5Pwc5lxvjK+lmeu/tvYwZBwvGhsY8mbexBJ093Y0x1GaE0cNjOpl025YO7x7a0A0E/fd+PYWp/MVlEfFeeMObnQTCqoMmSS72mE+k8SMupBmH4qAJw4l5Mm8ug8sKmlhn1j3GpFv3um3Lj2qhGwiE2ltVMGyi6SpS/k+q9CHQAXPsBAyauMG67rk0vr49KKsB83MZXJYJIynrHvqwu5JOxU9Tz2CIjTMalJNy21LmuAlh6AaCa7b22aTM/r6+Qi0zzL9t+yux92+8h9zINlk5mSaMvKM361A/e2WhzKCJdWcM4krsVZfiZdXiNduWKtuN6MI1kOktw1HaThuV2M8XBKJp7VPvh5W/n9I03l/GXrl4XhBFz9GrSO8jl2liTlI+ZGJT7pF9R/f1okZhO1G5jWlk0SMN1UDqSrl6HXEwkNYBR4f1wLTsNZekGW28GduVtPbtKZs9jepBuWzlFcMKYp0Zp3fd1XxJ1lFmRAU9jDwO1UBEmvSEl/SKEa38MOFzq4Lu8eCl3DAm5Kr6cNksQ5DkhaAAi7iSZhsQwtF6CeuqFa6BSKEnvOuGuqbdLzh8qFuw9KTRpVy/spR9LcFWAoNj4Vd6TEFotU5mQZovYR3moA3VQMBda7m00y1qgaOp6wDkAQ2EPeRJSdK9NpAo5dMfA7Hwm7mrq1PvJSnEF/yWpZIvVAMRrvpNtXASfRjbXR/lc6QOUAGsTxqOreLwkaSkpX++H/4R5ejYPsQ+ILaztXCniM4GKp021oeeAz4K1UCkENsOKME/CSI97+ifxeITHyRNAh50vwmBh0k6WNqTxQuG9KcQnxvsYeIve+BcQrynykOzjamy3UAXqoFgfLjdhpIG+IBNM+8PQBLez3zKepAkSesQ7iBFaeR9RIN2c9KgmGzOUfmJTlvQaWPKAvQiDNVApOg+zr9XgZU+ShLxGUj5CoJKog38vJj/48BEEVNwGH2QFBSTAGXrtAWdNuZHpFANBMOWrLpQfDFObIkdmv4Sb3aqtJ/DH0czuVgmbyOWb3b+MfFdZE9Gnbag08Z6+Kv/DdVAENikPK5HfH98p5Lz5TV+k6C3/WYNPV8Q2YJgElAxnbag08b8iBWqgUAgjR6ECn4UMJKn52YnP8wkboNKagoiWxBMguOh0xZ02pi2ZGEbiLZAMWXAKrNNmyBQHW0Dk5BN5Db6NVwQEL6uIW2dBq1ZUiE+8c1QYyHCdxl+MwaTLe+3WAP51HsFIUMdmodqIFijVhYe+wCU5ysGKmBjFuULMzd+pvpNqkcrq7I0RhdItghOVamgqE5bwA5UneFYhRIrPw7VQBAdq/4WEuR/olxZP9VfPlAl3IyOg/v49JGkJZYpSPCloCCe+KBoDNFgUL0GghWGD1UVxUhya1Va43R81XKQVD6aJwgH83kDyyTeNC+UGkc4//5FjRKOBCL/w2OFQkLtQeDwWacgg0eC4ZgyKKo8len4HvJg6ehg2UPJHUwmKYJi4lspzLqVIzBAG2qIUqgGAutWNhCguaNvRINmvO+51TiYTXm+tHlxONQtSRdnerJAJr+J72Rfv/YNv9kN5FM2ELSx6jUQWPffVcGCosPogmvjmYeUAw2fVZV1Mzo+8ZAPdUtKOvmgEwKdwijoOWo4SGcF0pzmU2Zvhb3mW6kyrOoehMh9S1VRpstsPfRLOvRmaWXA4D7vxEOzIvnlJpzL/Gb18kkZbMNVgMLr6jL1WtmlDDWSIdQhlhSO3kRP1u2qBY5J4lJAA+HjQPnEw7hTWYbDAokh6MFA+QNkxmLNCJ3s8BOu0qHXpQ3XQIolrQMEcOxkfAYinScDBveRdxzozKe20K0EY/RcdvlIUv8sOcBxXWm5fwYBcwraXYcDFne02pgOb6YN1UC6Pvn4NR2BMA/ZW4feKO359eyzuTMgz5G03U5zAvLwn71c9kj/DJBT4KDsqbsWAvEIkNmRWueokfYWXU3ZQjUQ+tVlH8NZqDxRx4RrP035zZKXaHFghoK+g4syGwPz0WXAZXLZQVPJDY5BABnQBtRfkty2sEU3QHEDZg3XQFA8xoh/G1CKHgIh96CmmfENUc6vfwwGHcxp6Oki5tKClWf1qBX6X68slBk44RKfCaOCLVYEkeHijiHEbUAxISTleUVS32ShGwganPLyKfYBpNPukIN9axM8I3yb8heB2QgMXR1nSSQ9CfccXBaXGTRJagULvMTjSbkh7le5DaiWjiF59RsIDqR+TlVhpnMccagOvXHaFZ8tQBPRWp7uUwZusEK04TbZmyiMiTvzZN5chgnjIHqTPijO71OXiB66mhcD4d626jcQIUrP6OCLt8JROvTGaZv3hEfdvdoYX54XfG6nl4wuAfNSLvM0MefoUVS6V8U5OWcxcEri6B5xVP6Kkgj9JoDg3fIAmhRaJiNkQeeMJnkETWjODcA23J+X/hkHQRsd347E8uu9tHj1E7h6+SRfYSkcPsJ5mQfzMnq7FHRducjgZTw+qofnnoJ0DOTtwpwGA/PF/mVVHu/1z6b/XzHMegI+jjP6pyr/ijCDLbLb7Dga64wPqdCHQsOhJ998YxKuRn8C/NGpGUuH4Y7BpXTywWvo5NV3YSj3MPGJKJUOfeCQ9XTuEEhwDF4y4VziyfeKlKiRmpsxwokvZWVuDNqI+otRSq6b0FMkBoLKfQztTMlAPI0FnYq/8RkICzFul6do8co2zIpgKIZT+bZa3INIkymDNrFo1cf4jFNIuve3805A3uy00X4Ok3baWx+3hc4f+XTvJ7F8Fs5JOuVGdVVf6EMsT+mS0ApdQFM4BfnCahHq9VAUlxoeavVdtmcIYjdofJD3n/gzNmKFnSQ9Rev/cXnYxQzMv9lB73HawHS9KFwZyQs0EgMpzG58HWuHOuPFnXIzOsb0giOej+xdl+5ZgUNQ4pG+/1L57N71n50RW9RuL+ly0z+PuYf6HfA4u/d1blO9WIT2MRID8aSXpHe4s5QXhKa1DuPzRr2GyjsHWXTuztMpIXpaKRHK7p5JDV9RjnIIU0jEU52rxV+Smeu0FQqNzECEdO9SkGcDCXqc0+nijq03PIjzw/gR96NBcRhHbE40Y+qzcUhxNo0fFckkd0C5x/3XUNDwC0g5YSv3UmXigISRGUj+rUceR/t6V1VebzVrqNR7s6gy90M3buQiDLWmI2v1GkmPcZw34r/9QBBGntx2w87S2SAF9N9BW8KiTzQpMgOhO+8sYbn3bh21MEvnt3Zy0vj62ehJJkCgKhxu8ZZiDBUTZBzdFduoU8F4O93ObUknTxDa6AwEUrrCXaglrBAHpad1HK6VJ2xiryfBKluwg6HDlnJj/hw6U6QjafwIrRfUxkzMf0tPb+N7Ib+qw9kVpSU69EFpIzWQrpmTnsYKxKs6Qqcc+UMd+khoeU4i3YMiWQIOrJB8nArugXR+ffy+jk10SQkso2sk9B6vcRvSyBKYNFIDYWlxSeN8HakxPh1bN73jAJ08kdDy6laJvoZ+cR6rFUmZuoVImaeu4ul00ch3dLOGTZ+5pGN3+HzY36WeXNmhTmyGMnID6fxE3IzWxLv3lJMj6Apl4igJ2U8ybuRkTEkOT2RvIkSO0mnMm5KXnIxsRmi7cvvjNlMQiLSOOCkLaEyuGxvWYmP+7Zr8TstMbdtLM0905ByWsvSZAzHsugR9SfBQeZOSC0zMF6/4lkmWQXllmjr2RqiI1oYy4co7qGXGP4KWrZs/egOBhKWiO0tHUIQhCJFyWnTyRE7LAY7jR86llZ+OxIirAYaiEzkQsrjOXPrVG18MuRBl9lidvJrrVDkDCEsOzdShN0WrJaSpQplPtqnjQYB0rA5PV8pTO1sa79HJEyMtZlurjqQ0jYexnBFJbFW/yspltGLhMbFH7U5rOw4vuwf6FXWTH+Ee+F2hpeGETR5H8jWWHoQ1g2dde1MSrHkmTZmdjQSZ4IVIrBwto3H1F2Ayvz2VSt/AhP7n6F2wChPkmFO/gokxNGr8DL+5jeQb05ymlNDuCUpUutZI+T6YxNaDsKwISIR3nbT8HC7JKzpnNmoblw9swsvCm5/4HnK+arl8m+xw7DVGiDvC3PHmQMEfkHR4vL2KhIuhmmjC//OCCwTDdOXBdN7IF4Lz0ueAuccPsOCiW3dP5Gc2HKFfmpkcsRpIelr76HRKPKajCrrbz6iza//C3EsQRDhI0s2vDKO63PMYtdcH1ljSS/RB10FRb6/NNs3dBecxvIgGl9PRoViiI4qzGmKLG4ttiMUgFWc1LofjUGs8innLEJFJLyburgdL+s7uH5NbHAd1S4FVFrQXDU/rvsUDFov9HpS+Sdc48DK8L07jYKVjNRAWQLruZQBCr+IRnpDZf4dk+kZYqTDShF1wNKp7jRHWQkzHIRLHGOGlwCTbtOOl6P2OVCDdQIIzr1zplmKv49gNpHPWJIyH5S83IKP4AT3Jj+qa2g9SJNcjm78izrO5Ksu6/h9X4se/VCZQ/kXg4IcFNO+FbZRz+CSsm9K2P4zjp9rZJd1YbhvaOY1miN1AWJvCp+JHMJJ1OprxAWMQ/tZQ9oykUy20eNWtWKYdriNT6LR8Z0dRfhvlrDdQ1hdoy2EcJhNewn4eJy1ux9Aqo1WIlO8X6LNExOAlwkAI3nUYiPadFojT2jU7lJYQNYegB3a5pegFWrj6KK3KDZv4/PpXcA7Jd40UE66XXWSHyoVcR/qyiivi8Jr3JWcIDauvYgZ+lp858SYsc/Kyr1bCUOv47Iwdw5l0CvFFzNIepkUrr6PZr2e1BAuT+LwR84CV1uJGZXHgZV+04kuVf/f3S6ap/YcwDr1gRC4KbSDf0qA95PYn5cC5EmMgHjSue5FuICOriC78+1hj/4+B1fVFwTF1l9I26Wdo/gr1k8d9FaWRqUTnw0P/vkaOCqRia+i3EB52Y20h09R2DkC7qkKBFR/zEj7Way4AAZpBMpIxUEyoU5g1ifeKaA+1uGz0JDenm+ZprZToySz2ppTzDM7D5T0MsMmY0/n1a9CMLjIjBbzs9eO19mZUKpc3QcE4FqA+fGAkryifxFmJe/TPE2UgrH5hZsMcLPE9rAsFaiOXEqmldU1tWjvUtMoRIotqvw4HvT2ciOA/b/usnK+lQyViR/wUB+XtW+lnled1M9r3TQnnXgyttIejXOeFljVzVMqJkiZxBgLlZaGziwP83tMFAkYyDLvUHshMm7ePbl4teiGOonTqBVqw6lytfGEQdxamAatVwVmLDMJbbvE718pOm7dbCqdhoufQX/nDQQyFfAmrc/Eef9oXhkk0EKIbprwNN9G32FnUl9D9PxPbOCnn91xh/dMF/FWI4Qi8uzX25WDzXnZfzkhc2HoARp7b66KKeYdEXY+jeZPX6OaNgj6ZBgLNC7Mafy9d/YleGTSxPUKql4fmSNyoZhKwHGzWyz7Nj5e9s7VxCTp/3Y1wmDu6V3FdbwRpgr4k1kAYo87WhqswfLjNH15ieyj3KPadaO058VVWEpaDE+Blz693J6K+3lTFEHF4d2N5/0pV+jjoEm0gAETmi4UJ+PuUH3AwWdwS+e7NzGhn77N6wkVs6sQbKMvLwVvXXbfhSZQfzHvZ27TFb5u0jkpyAg+bBsoLmhcKaz8eD7oBaQfiFebvSTcQwi2mhXxX4VSg6GsiikljnZBiUWZ6x48BpFrDx9mWvkEXcojvvEEzspddut8LysbLL3A86cKVei8WZMzPbuQVyNYBZHi74NLJtPh7nw5AF/vPyTcQhmjO1PekWzwRb50P/CDGa/KOQ83Zpvb7afIN2/rhUTV5eF+8KS+7I27w42UvFAuXoxN5qS/MuA5xt+BYmtXwv339nrRn1WEgQK2zdfLLJVeegle777cOhlxjc5m6Z0P1lSShhk162clZpO1lR68vSy5WIamzNxz4nsf22W92tjS82Pt5kj9XjYEwiLzBqiRLJwYxEgyyvuQI53FM3uE5NhdekahKNullF+JIP152L1Td/eepmJiQF8gtnVZsmaQdbxcntlVlIJ6RtEx6rFSSJwQxEkxEMhh2XZdr2uEPmaYb9oyzAkIrOwFe9kJr4/UYUj3qGYd0/73QOul3oekbEuOqMxDGwetJAhqJhyd2JgpR96w3gb+4oy4kjONja9bL/mvsj8lpKiMLheJ5yHNqNRoH61qVBsKCdw+3jkdP8iF/95u4N/Em8FvKv2and5zol08i85n1su+J/TFXa+s5b/L/FVoaDYXma5ceOEPVGghrzuNZ2SUPhZGsCooEFrq+gpNi7801dSyjYhf7T2ojmfayL1zxjdoARk2LqjYQVrFzTuPfCl2FQ/DRlzNxM5hwuIDIfxIoqnUznnE/MOllF6lI9rLHDVlP+VVvIJ4i8JPAmXg03Hu39ihm//ZCwKSXXdDONGxYey/uNf2xNgyEq4g97i0N38L5vT/GyglGXTZthIBJLzvhZHYfXvaN5KmSL7VjIN2A43Drq/BxLEJ8lC8MrZK6Ci5mArzswZWIlkPNGQjDh5PAH8q7Yj+svz8SLZxVUFrcXvYqgKi3iDVpIJ6CrQ1/x/LiNzDWmgZDWd9b6UH92bSXfeR5Zo4gSmil1K6BlAGX2OM+m1x3fz5OJqF1EL1YJr3sgn4SdC979ACol1jrBuIhwael5Fsaj8T9HBdjbqJ1gqM6lFVGGb+XvSoAGxQG0l0TErvXfpn/RHwZQ652rHTpHZhdFdWpIaRpL3uartEovWpIB5OBlCsFx5xibjIRc5P9sRr8YNXUVBiCmvSyk5hKNehlH3wG0t3QeE9CYWbj2GJJYuhFT4TR/qqCp/Wy91tNg9ZAelDhoMfuK76OxrDroZ7ng+av9bL3W9WD3kB60IGRPAr/yXGlLvcAStUNLiejaS/7opXjenCt9r/WQDapwa45E5+TW2z5+iaPa/+rSS+7wF72m1b+ay2AZg2kFmrRlA7mvOxbUVbo72U3pYdBPtZADIJZ9axMetlJjKYa8LJbA6n6Vm1YAdNe9vmr9jMsYaTsrIFECneVFGbSy54St/jYy54YoNKJkSRJgkhvn7vf25s+SZIqvmRhL/uCN8ZRKv1b7KxRO42yckE7UNq7FOnKyiT2F4uARcAiYBGwCFgELAIWAYuARcAiYBGwCFgELAIWAYuARcAiYBGwCFgELAIWAYuARcAiYBGwCFgELAIWAYuARcAiYBGwCFgELAIWAYuARcAiYBGwCFgELAIWAYuARcAiYBGwCFgELAIWAYuARcAiYBGwCFgELAIWAYuARcAiYBGwCFgELAL0/4+fRXPoZL2bAAAAAElFTkSuQmCC" vertex="1" parent="1">
          <mxGeometry x="-176.25" y="150" width="102.5" height="100" as="geometry" />
        </mxCell>
        <mxCell id="82hZbd6NY0PPkRuZH4To-8" value="API Manager" style="shape=image;verticalLabelPosition=bottom;verticalAlign=top;imageAspect=0;image=data:image/png,iVBORw0KGgoAAAANSUhEUgAAAMgAAADICAYAAACtWK6eAAAAAXNSR0IArs4c6QAAAERlWElmTU0AKgAAAAgAAYdpAAQAAAABAAAAGgAAAAAAA6ABAAMAAAABAAEAAKACAAQAAAABAAAAyKADAAQAAAABAAAAyAAAAACbWz2VAAAUc0lEQVR4Ae2dfXQU13nG35ld7SyFBJ04f9hunCI+TnByJNeGtHHsxKV2m7jtOc0HdkNBH+AWfSAkLbUd29BTTm3sQ11LAoykJS0gAYckjvtH436kTUzqkFNDU2IjJ/E5tkExju32NAYcA7ur3bl9r2ShlbRid3Zn7szdfebA0e7MnXvf+b3z7L3zzN1ZIiwgAAIgAAIgAAIgAAIgAAIgAAIgAAIgAAIgAAIgAAIgAAIgAAIgAAIgAAIgAAIgAAIgAAIgAAIgAAIgAAIgAAIgAAIgAAIgAAIgAAIgAAIgAAIgAAIgAAIgAAIgAAIgAAIgAAIgAAIgAAIgAAIgAAIgAAIgAAIgAAIgAAIgAAIgAAIgAAIgAAIgAAIgAAIgAAJKCex7rZa+9spHlLbpRmNtu6+LdPbVuVFVJdVhVtLBlnisBg2ObKKQ+V8UrTpJQ6e/UmJ9ynaPxPq/Ylnhk4ZpHre6BjZxw4ayxjVvCKAKSeDeV6+jcGiQDGPFtOIH6WKmnZoXnZ+2Phhvu3qqo+acPtbDquyAhKAjyWS6kfo2nMlej9czCUAgM5lMXbP/9CoyqY/FUT11w/vvhHidMtRIa2u+n3O7Tyujm+IsZjHI4rguVwgsknNCiLZUb8vhXNuxbpwABDLbmbDvdDWFqJ+FkX8oJcjmQcsT9NqFLbT1E6nZqlSyfuNOHk1Z27itTYZRwFBK0NcT4mIr9cbOKYlPs0YgkFwJG3r1d8kI86cvObsYF+IkUWY1NSx+KVe1Xq+LxOK1nNBDLIxaR20JeoOE3ZjobX3W0X4VUBgCyU7yzlcsqg5tI8Ms/kJWiCRX+QA11OzgvyK7eg9fG1YszjGLbYZhWMW0w0MuGWt3Mp3cTLs65DFgYQIQyMRpMHiqjkzjICNx9uk7sf/Mv9+jxGgT/fmSN2ZucnEN27c8phrkXmOFG7WyUIaFnVmT2tHGvSEW2LzyQ0Lat4Zx3EVxyDPrdq/t4EjXwKox+9Ylccig5fAMdrAkMb5Udg8yu307wcetv+7awRt3fjBaFRng03mKfetWsBP1wA4mNjArdZH2bTh0kj8yXRma5MG4huaYJ2nf6d/JU66wzcPvXGRxnOITOFPYDsWVksM22UPJnqq4GvTfq/J6EGnfhvm+hsefvjlPDZft4HDH7k+HQqEDfGG+MGd7rq4UhxP2pbZKs4MrSyDSvqXQfu41ct48c/V8ulJlbtrBbbvnRazQTtMw1l6pSXe2iTNki6ZKsoMrQyBu2LfunGGTtbhsB0e64l8wTfoaN/DhyUbcf1VpdnD5C0TOvg2bh3hI5ZZ96/ZZ554d3Lb7ar5m2MvXDne6HeT0+sbsYKLVqZ7m4enbyul9OQtE2rcxMsSjPKQq6uaZwkSf5aFLKzXWfMONNq2u+AY+7sf52mSOG/XNVgfP5Ury7cWHkr0tPVxG1U3R2cLxZH15CkSdfetuUgQdokuZDW7MDrY6+z7G9zMO8ofDcneDnFlbOdvB5SeQfLNvZ+Y3WGvcnB28Pl4VnWtvFWR+lYddIS8PlEVSlrODy0cgftq3bp95sIPdJlp0feUhkGJn3xaDTQi2ielavuj//WJ2d7SPm3bwuu0fiFTP32mS0eQohqIKl48drLdAVNq3gn7J58p6aljwD/yXDYBT7WSa2/m1pxfC5LYdHOv/ommYezhu2MEMId+ir0BU2rdC/CtdurSOmj/+1hSgQyPXs3lziC+Eb5yy3ps3LtvBoX3scn3em1Ana9XdDtZRICrt20tE9v1Uv/DJyZRPexX/URXNueqvuVO5n/sVc9pWt9+6awfH+ts57r+BHTx7mvQSiFr79r8pLdbwd81fnh1f1pZ9pz5DIWOIe5MFWWu9eemiHRxpjy81I8Tfg6Fl3gQ7WauOdrDXn3iTdEp9pW72Lc+QtR+li/93c8HikMe2duEP6Fz6Br5mGCr1UPPub9Bqt2YHp55sfjnxHt3MX7l9lE9gzA6eBj/4PYhK+1bQabLT9dS0+IfTODl7O3hqJX9tN85Drg8529Fhabft4K7+W0KmeYBPihqHkRRRXI/ZwcEWyODICp4yIZ9H5f3sW2nfjiY76J6lvyoi2zN3+fuXr6WItU+RHfwiPyxijSsPi1BtB5PRmOhuPjITYDDWBFMg/tm3bmfF4CcwbuRKt7PIo25XPqW+cTv4QX5YRC+vL3leFH9J6kumQXs47qumtOPyGx7WyVgD+7CI4AlErX37HbZv186wb10+CWjvKx+ncFjOi9LLDu6KX2MZgmcHV64dHCSB8KctPzyBH13DJ5LXs2/z27dui0TawdGrHuZjuw92cG64Y7ODydic7Gnu5hIl94K5W3G2NhgCUWvfnmD7drUjh8oZ0yuX1tgONqrGHkp305UPsPStQbKD/bd5Vdm30vER4jG2bz/lmzjkuaOxHZy8QJ/i7608xpcNdukymL2GID0swr8eZPdP5tEHf43nBHn76JqxNEj7ljIN1LDo6Oxp8WGLajv4H48/SE/dXfK9jnBn/NZQiIb45KnxnhrbwYnMen4S/XvetzWzBf96kLnWDUrEIZ9wPpq4IXDikLloXPgtjq2We7Z/n5kaF9eMT4G5j/6oNvcT6h02ld7RfDR57hzfFKVBh7sWUdxYFY6YfK74s/gnEK+Pd2z2bWYl1dc0uXZvw4uY71n6Jluzn2ORdPL/hBdNeFLn3q/+KtHT3GSTvZLjljOdy3IpT4EIwfbtxVqqX/S0JlkTLJKdlE7zfCjxgiYxj4WZ6m59OiGMWr4u+Y5OcRcaa7kJ5BLZdgefbHd6fm+jUMJOyq1b8lN67eJv84Xwdh6+eHoh7CSsvGV7m99KdrfcKWzRwVYtW+jls5STQE7wSbWMx/W7OD2B8NCLOk3kD/A01jzAQl/Bh/HzourwZyfBTzfZJURmGdu0J/wJwf1W9RdItn3bsOBn7iPyqcamhc/R2XQdS/2ATxEU1Wyqd8PPVNnBRQXocCe9BSLECNu3t/GQ6iFqXj7q8NiDX7xjybv8Fd8Gvu1wNwvlneAH/H6Ee5pHE70tD2Uyxm18AT+iTdw5AtVZIAd59m1dIO3bHKBLWtWw8CkSfKyCtPqJNGkHJ9Ip+R0Z+YUsLRd9BZKyHwm0fev26dD4sV/wdYn8WTe9ll0d7wqbc6Xpoq9ANAWOsPUiAIHolS9Eq5gABKIYOJrTiwAEole+EK1iAhCIYuBoTi8CEIhe+UK0iglAIIqBozm9CEAgeuUL0SomAIEoBo7m9CIAgeiVL0SrmAAEohg4mtOLAASiV74QrWICEIhi4GhOLwIQiF75QrSKCUAgioGjOb0IQCA58mXFBvojnX11OTZhVYURgEByJNwgqjVM87jVNXAv0VYwysGoUlYh+bNkmh/5bxmm8Xg0ds2z1Bn/6CzFsLrMCUAg+RJs0G1WiE5WdfXX5yuK7eVHAAIpIKc85JrPv903xNcmT1Gs29vfHSwgHhRRRwACccCah10ro8bcYauz/3MOdkNRjQlAIM6Tdy2Z5r9Ysfgu7k3mON8de+hEAAIpIlv8Ay/cmVC7Zcw9UdXRxw+cxlKuBCCQEjLL1yZLzbD5fCQ2sIXuuitUQlXYNaAEIJASE8OdSdg0jIejH7n9B9bG+KISq8PuASMAgeRKiBxAOV0M42YKixcim/q/7HRXlA8uAQgkV274Ry5yrc63jnU1j8j8g3zlsF0fAhCIPrlCpD4QgEB8gI4m9SEAgeiTK0TqAwEIxAfoaFIfAhCIPrlCpD4QgEB8gI4m9SEAgeiTK0TqAwEIxAfoaFIfAhCIPrlCpD4QgEB8gI4m9SEAgeiTK0TqAwEIxAfoaFIfAhCIPrlCpD4QgEB8gI4m9SEAgeiTK0TqAwEIxAfoaFIfAhCIPrlCpD4QgEB8gI4m9SEAgeiTK0TqAwEIxAfoaFIfAhCIPrlCpD4QgEB8gI4m9SEAgeiTK0TqAwEIxAfoaFIfAhCIPrlCpD4QgEB8gI4m9SEAgeiTK0TqAwEIxAfoaFIfAhBIrlwV83T3XPUEZZ2gCyTs9dR4/S+Vh7Ru+wcMM7RZebsuNRh2qZ7yqkY+3b2IX0AIJAQhjpGRWUP1i19VHV+4q/8W/vHTA9xujeq23WoPAnGLZPDqSROJR+jUyDbauoJfK1zWx6ui8+ivBIkH+YdWtB6lQCAKzxt1TYlXSFA9NdQcU9fmeEuR9vhSo4oO8bub+Ne3VDfventaq9t1GuVQoRB7SLx7ox/i4N+RbzOqxAkend5UDijlMaAHKZdMCvG/PKT6M2pY+G3lh9QVv8YyxF72Nj6vvG2PG4RAPAaspHpBzxBl7qGGxSwStUuka+BLpsG9lmFcpbZlNa1BIGo4e9OKtG8NsYmHU3u8aeAKtbJ9G6mu7uUx+rorlNJ+k3/XIBeSL/KQ4HAgCepwH0SI45TJ3Ej16sUh7VuruvpFNeIQh9Mpm88Vfxb/epANn3iPD/lPaf/pb7MR2MdddLU/CHK0Guz7IBmy2b49PfKIb/atoAfYnwrlIOfaKr4TdY7T0JbqbfH1Q9Q/gUygbKo5THtfPUrh0CCLZMXEavzNQcAUb1Ja3Epra57PsdXTVdK+NSN0kBtZ5vU9VBbHkWQy3Uh9G854elAFVO6/QGSQ6xZLELfT0MgmHnZtY6FYBcReeUUaFv3Ij4OW9i3n5W+JjDlets89RpLb2Jzsae7mdor6rXq34wuGQMaPSlDDgido32v/RmGTbzQZtW4fLOpzSEChfcu9xjDP71md6mkedhilp8X9u0if7bDWLhqms+lP8uS6J7hIID5FZgu1nNdL+zZqiGGv722wMOS/7mQ6+cmgiUPmN0g9yOT51rGEu1q6lwZH/oltTHltct3kRrzylIC0b+fP32EaxlpP2xmrXJxhATYmuluOeN9WcS0ErwfJPo7GBUcoQ3XckfjqZGSHVM6vL9u3KsQh6OsJ+1Jdors5sOKQuQ5mD5J9Fq6tOcdvg2kHZ8ep8+uJ2bcVZN8Wmq5g9yDZRyHt4HSmjkesgf7EyQ5Zh9fSvuWp6f/JsW5m+9brexvSvq3z+96Gk7wEvwfJPppsO7gqlcrehNfOCSi1bwVtSfa2aGe86CWQ8XNg3A52fj5gjwkCqu1b216T2tF2cqJ5nf7qM8TSiWqAY1Vq3wrqGbNvNRWHTKOOPUiAT78Ah6bSvhX0hiHsxkRv67MBJlJQaBBIQZj0LjTx8ASeYFjj+ZFI+1ZcbKXemHQftV8gEO1TeIUDUG7f2u2p3lb5ffSyWSCQsknl1ANRO/tWfD+ZzDQEYfbtVAqlv4NASmcYuBqsrvgGnqLzuOezb4lS/N2UzTrat4UmDQLJRaqUbxQKwUN9n5bL9i3xwxO8DYMnGL4kMvZqXe3bQjMEmzcXKfmNwiIX1tZqKxb/C97d2zN0WnzK7dvR1PJyF4dErDSJ03Ia2LfR2MBRnkF8SykBssS+mxxNNdKTG98spZ68+yq2bykjmhI7W76XN64yKYAexKNE8rymO6JVkWH5ye5RE6R89m0iU1dJ4pB5wzWIV2evrNegD/H3Kp6ObIrvTSXSnezyyAdVlL6otG+Jzgvb3lBu9m2hSUAPUiipEsox5HWWFf5xVaz/t0qoZmxXtbNv2b7l7+NUqjgkcAik1DO2wP15yLWYe5MfRmIDW+iuu4qaVi7tW/nsW25yWYHNFlWMHYoUX0Pdn+x5+3ba0fx6UZWUyU64SM+RSDcu0nNUm73qKNl2Pc9VGsleOevrtt1XW1Zon9ffD5ftS/vWJloz2t3i28PaZuXgwwb0ID5A5yZvFYbxYmTTwJp8zUdi/V+MWqGXvBYH9xhC2KKXnbflEMdkVtCDTLK4/EqO8+VvXPCwSMFj/MXhxHtGK+1pPn85APkC9u0UHH69gUBmIy+dorniYb4vfh//EIy3Pa2g19O2qE/vaHlOhqN09i2JbyQu2a3U33Z2NhSVvB4CyZP9cOfAZ8MhY4iL/UaeoiVt5hGObdi0nUzD5uHOA9x7FXUhX2gQfCF+nttsT3W3HCx0n0osB4EUkvX18fnReaKfb2ysKqR44MsI+o+ETQ2V7lAVkicIpBBK75fhu+Kr+GK5jz/dg/MkegfxS/uWbaotyZ63+OEJW9mswpKPAASSj9D07Z3xj0ZNGuK75LdN3xTk9zxs+4ltiNVwqJxlydNxrrNQNCl97Jnz6eeXD5k3z7vEQ67P8idMoBlK+5YN3B3Jc2//id1/7y80oRyYMNGDlJCKqo39N5r8JHoecl1fQjXe7SoEC8JuSvS0fde7Rsq7Zm/ty/JmR6O7Wn+cpAvL+CN6d+AOVYhvJhJ2LcRRWmbQg5TG7/LeVlffnYZp7uVh19WXV/rwAvatu9AhEDd5ro9/2Jor/o6drj92s9qC64J9WzCqQgtCIIWSclAuGouv5zvw3Qx3roPdii4q7Vv+zsZfpnr/h38mDfZt0SBz7AiB5IDixiqrY2CJEeIfvTSMkr8DcqV4YN9eiU7p2wJtUZZ+eP7VkDn2zDvp6PL94avnmfzbe7ew0+WqITJm35LYmTz79t2wb73LM3oQ79herjncsfvToXD4IMOuubyylBewb0uh52hf9CCOcBVX2D72z2cy139mb9iKXst34H+zuFre32vcvv3D9K62n5ZUD3YuiAB6kIIwuVeI53Ot5K/exuUDHZzUyo/qepen+baP9rYecLIfypZGAAIpjV9xe8f6f90icz9fl9xRWAXiuUQy3UC7239eWHmUcosABOIWSef1GFasv4tvLD7G902sXLvDvs1FRe06CEQt7xmtRWLxWk6CnM9Vm71xzL4V6TWjvRteyF6P12oJuGo9qg29PFpL9TQPy58pkw9MkNbt+H+efXv2reUQR3nkGEfhEoForO8Oq3Pg91yqDtWAAAiAAAiAAAiAAAiAAAiAAAiAAAiAAAiAAAiAAAiAAAiAAAiAAAiAAAiAAAiAAAiAAAiAAAiAAAiAAAiAAAiAAAiAAAiUJ4H/B6zzj218M91mAAAAAElFTkSuQmCC" vertex="1" parent="1">
          <mxGeometry x="-170" y="314" width="100" height="100" as="geometry" />
        </mxCell>
        <mxCell id="82hZbd6NY0PPkRuZH4To-12" value="Database" style="shape=image;verticalLabelPosition=bottom;verticalAlign=top;imageAspect=0;aspect=fixed;image=data:image/png,iVBORw0KGgoAAAANSUhEUgAAAKgAAACnCAYAAACFHRdhAAAACXBIWXMAAC4jAAAuIwF4pT92AAAOuUlEQVR4nO2d+3HbSBLGh1f7v5SBcBFYGVgXgXkRkI7AcgSmIjAVgYkIjopgyQiOjGDBCFaMgFtjf0OPoO7BABgAM0D/qlhymS8Q+NCvefTscrkoQYiVP+TK+DHLi0wpleHF90qp29Ibb/H/mh3xoQUe6rLIqOcFArGgJWZ58QChZdbfu46+7gjRHvAoLovs0NF3JcmkBQqr+ICHFuOHCA5Ls4cV1o/DZZG9RnBMgzA5gc7yYg5Bzju0jKExgt1OzcKOXqCzvLiFGI0wbyI4rDactFCVUpspiHW0AkUsuYQwQ4vyjJixzA4xa0Y89zHwMShLrOvLIis6+PzBGZVAYS21KB8DuO+jSVzw9zVEPGhVA8zjIVAitodV3bT8nKgYhUBx0VdKqUXDjziZhET/HcJ14ua6LyVtTSy//i0bWNXkk6ukBQo3rq3lp5pvPZukA4KM0j3O8uLeip/rVhj0b1ynLtQkBYoLt64Z150hSJ0Jbzs8vE4oJXt1bsikhZqUQBu68heIcjSxGc7DvGasfYZIVx0fXlCSECish74Y3zzfYqzGZqzZrcGqVvjetDpGfUzFi0QvUBTW156WQp/81dgyWR9gVU0Fwye50ln/MvYbOFqBwmpuPOOtPdxXcrFlaCxv4yPU6N1+lAKF1dx4nOCk3FWf1BSqrvnOY7SmUQm0htU8Q5iTc+V1wTnVFvJLxVvPCI/WUR1/LAJF6WjrEWs+40ROdoZPE2qU5l4Qm0ZxfqMQ6CwvtBv6XvGyI06czJdswSwvlhCqy+2f4PIHP9eDChTuZ11RIonS9aSMZygVRRg1mEBxknYVQ3hiNTvEMxl9viyyx8GOcQiBesabg56YqYD66bbCUOSwpr3Hpb0LFOLcOe7aM6ymlI56ZJYX64pMX3uzh75F+q8+vwwBukuc+iTcizj7B97qMwwEhbawO4RmvdGbBYU4fzheElV5Y6p4eLheLWkvAvUQZ35ZZMvOD0TwwiOB7U2knbt4D3F+FnHGBYT3gDkOFL25+04tKKaC/el4yWcZroybWV5sHHXqzi1pZxbUKiVxiDgTAN4tZ460c0vaiUBRW3MF2iLOhPAQaWfXMrhAcTdtRZzjokKknxAKBKcLC+oalRBxJgxE+sL8ggUS4qAEFShGI7jpXE8izlGwRHJE8QO5RzCCZfGYePA/5mmpc44IhHEHZi6FHonKQmX2QSwokiLOOh5FnOMC4pszw6I3FdWbWoRy8VxSdELBVxgZmALJGZ6PmITemtYCneXFypEUzWVsfbxgUs8T8wO/h4hHWwkUB8BtpvBVJhqPHyxZ5oZEWyfFbS0odwAvskRjUnDx6Ad42MY0FqjDtZ8dsYkwQhDGcdf8WxtX30igyNo51y5x5wRBPMqNNDX2pk0tKOfac+kBNGkeGVf/sekoU22BYgodNVp0xgEKE6XC1a+bzHpqYkE56znIqj8hLuDqqfH6myYGrJZAYaap4a29jLMLFpyr/4b8xRtvgVq7gFCIaxeuYJc8Tiu1yk51LCi3jV8uBXmBYM1Y0UUdK+o1mwnWs2AE+u+xbLONet1tqRlXubNxk4ZcJ9PpGJi+S8rqjFyMbbtyx4JJ79ltvgLlvugpuU35fzfSerBaaHfZ0bgup1LzsF3K4p3lRcGcWy/D5itQ6kuCzvvrAljE8iPlXp37Uvvu6DshO4yb195blQINYab7AjXatp3aUsPukneIcaCkjYH7w+PzOREO7tpLguyiWWsK3GHd+gLnRFntu01rx6Gt7JrYoPgGk0yc5UmnBUW89hfx1KDWs8Z24W0wU8heS52Ni1LC44M9advEvaqn2Hfw3QIdSfbpssicGX2VBeVihKGL8qsAF/ZsxXImGVEducjKz4Q3UB0kbze4Xr3uSmejLTiWJZe3d7zTv9t1zqsESlnJYwRxTt3msUc7sYgxubDO6btzC/FmLZK9GGJxbv/RpesGZgWKVZrUD4t9IvK5FH8lP7uK+g0Iv+6thDDqGFyXlGZ5sSeOc+56n8uCcjFmrJvLPqM35yRGtVBDLOzrAUs79+iJNBQbQqA3ulLEzeUghzoR1FJuNI+47rad+pArLG20u1NDhNTwJ2tFubF4bqmwbM0ttIXSEJtTcAKlFH2WveOFAJAaQs7zjjoCFXEKrYGR83bz7wSKIjiVvYtAhVBQlRUyrKQsKBewymI4IRSUsbuj5olSAqWUvJf1RkJAOGP3zjhSAqUKvmI9hWCghkvtMfpug4c3AnXsACECFULjFYeWLSgZqMpmDEIHUIMqd+W182WBUhaU2+5ZENrAGb03GiyPxVMCTcV63mOy7tQJukd8V2DyyJkoaT7YmisLlNqtLpWrXp6xLcTPgUjK39xgVxfvSJBkzbvQFZS22BiUnHEtCZLQIZR3fmNRbYFSGTzX3F4QQkB6ZzuTr9r6Rty70CVcfnMNN+0kibKgKQ1v/kfCEa8W6NGATJ46HLGgQjSciAO5WtDKJEkQOsZZxrQFStVAxYIKg1Ll4mWKndA1lAW95kNd9IsXhDp4u3hBiA4RqBA1PwXqGIeXGFQYFGNBuXF4yeKFQTEC5cZEuR1GBKEXfgpUVmwKsSJJkhA1IlAhakSgwtBQFaRryFkl0FqNPwWhAVQF6Zq02wLdEy8UgQqD4tMnKRWWUhb7SWpGxenibYEWxBLQlC74IoJjEOpDbfVJunjZ9UDoFccQ+5UqgU61vaDQD5VL3SstaJ3m84JQk8ql7nYMyk0MyRJx/0eZffWTW2b5ToxQxu+NDq8CRT/Fys2cIuZRlh2ntezYR6DlQj1lRZPYLU1IEirHeeOtRaDCIDhq1rUtKNl9QRBaQhq+cphWFqjXrreCEADKgr7bzfuNQNF9gdqKRIYQhdBQmnpnIKnZTJSbd/b0FoQ6OLoZegnUuwuYIDSE88heAvXuAiYIDVkSbztSa+PeCdQRh4pAhdZg92RqpItsVszNqKde/LHcZEkQGsAZuloC3TD/L1ZUaAvl3k/cJiHkjHr94lleaDd/V3rq0SHeoflzlhd7xND6cZjKen8ksA/WI0pwnNTwJmk9VcWSD/2mL6X/+6C/BHFqjHzE4xsu3Alls8NYRIsw6x5iNH+pkk2McB6YNXougW4IgSpY0ceBfzxl3Snu8PhkifZsCfbVCDhG4WK8OsPD/Nvnd8cKpRvWvSuXQOHmj0TGtYxAoBsjuAbcWJb2CrpNmDmlptR2MHNMQ0/lsyyhwt9bS4xcIbsp1IrdXsHNRt1czpCxalXnhuiBeTPLi+VlkQ0Wi14W2WqWF69wGSGXpZib8d1nltqlnBvu3x9aeFUcEaqte/xODs6oOXU0u1wu/JO/7vK/iad0UTWaCSS4O1OMyUJztJLEXSxhC5Kjv4inXi6LzFkZcgoUH75hlvRG2zgLJ+S+lEyMTbR2LB11AthGQz4C1Rf3/8RT+8siS2aWE0RrJxtcySNGjphpfrCSuiSWiTu8sE6OKud3VAoUX7JjLmby7QetZCUrPfpcfGbHtDvr72vqu1zP8mLFJLSfffIYX4FyC7GSsqJNsayv4b5hZ76itOZm1IMJOG8HIrw6XxaZ1/nzEqgauRUVusERez7pSozPl9bZH5T7QK8vEqYFrCclznOdspe3QGElqYKvnuVETQAQpg0XX67qhDXeLl65Y1F9V2TSjEFQbp14Ze42tbYAhxV9IZ66EVcvqN9VEdZ61j1JTfao54asvvhspyeMnkdmzH3fZHi8tkBRIH5ino51rqjQAzBQ3CSeRhOMmnb5WDPrlj6gMCtME85APTcdcGgkUCRDXOb+TVz99JjlxZoZeTu1yU8a90lyJEyarSywmw7I2qnJ7QrbYjau7rRt5LVkXP2dxKPTAIaIW1OUXxYZu97Ih1YCrXD1n2Z5MfTMe6F7dsxUxlOIlRetWyHC1T8zT3+X3kXjBWPt3IyvZYiBmyC9Oi+L7JHaOg9sJWkaHxje5npTPYWaQBSymey83KEBaPO/kaRpPMAr/mB+0IvvTCUfggkUBXxufYl2AzsRafrAG3KJz8mRkzQiaDtumPWvzNMfIlldKDQE4uSSIu0956EnDNWazeT9ofxEVYXSg0zPSwx4v4Nj44j/ti0pUQS1oAYIkNssYAEBC4kAce4c4vzchThVVwIFc0dmLyJNBMyM3znKSc9dbuLRiYu/fvjvO4/7ceLuI6Yi5lR9XL9OBar8RKqt7IPMxo+LGMSpOnbxP4HwHhzu3pSgpElDJKAIP7g4VR8CVf4iPciI0/BgPu+PGMSp+nDxb76s2t0r3x0nhLBYa4k+OT6495yhV4Eqf5HmbecRCrWuyT3E6bomXy+LrPeBlt4Fev1idzFfIRxYpr43UexgSuSqYve/wbzaYAJV7o2lbLy3SRFqnXsfl35GhWUwIzGoQNWvEzXHiXLdwXu4fLGmAfA850eMrQ+6zePgAlX+MZASa9oOlPI2HvuiRjOAEoVA1W+Xs3IsvjKcEJvKjnqe4Nya7iwuq3mGp4qmihKNQA2e7keJ2/cDRfeVR/uaPW78qHZujk6gyj+AN+TYMS2JLbH7ArPeN559laINnaIUqKGGNVUi1F/AYi4999+P0mraRC1QVS82NejNJNZTilFxjuaerlzFGGtyRC9QAzL9dY3OHCe8fjPWESlk5Y+wmL5tdp7rbiI7JMkI1AC3v67Zs1K7/21Xs777BNbSuPE6XUiSDIGSE6ihRnZqc8aKxG1MndiqgKWcY0aYT+Jos4cwkwx5khWooaFQDXtLrNGUq2Al7f7vTfo15Qhv0u5jlbpADSirrFp2j9ubtoK6n1FforXabpu2jU0biBkPMZpqxmgEamiYOLiw2xAqqxOcV4vuUtvtW6sJ2H3A/u9HxOXbsSWEoxOoDRKqecW0vlQ5wVpuxjyaNmqBGqw64QP+ptr5eBKitJmEQMtY/eXnPTaMbcLZare9neIo2SQFWsYSrOkxHyIubMLRarkdVWVhKESgBESLbjuxaRseaBG+Wp2Pe60YpIYItCEYevXdTnLUbbe7RAQqxItS6h98I43AXYusOQAAAABJRU5ErkJggg==" vertex="1" parent="1">
          <mxGeometry x="700" y="850" width="80.48" height="80" as="geometry" />
        </mxCell>
        <mxCell id="82hZbd6NY0PPkRuZH4To-13" value="IoT" style="shape=image;verticalLabelPosition=bottom;verticalAlign=top;imageAspect=0;aspect=fixed;image=data:image/png,iVBORw0KGgoAAAANSUhEUgAAAKgAAACoCAYAAAB0S6W0AAAACXBIWXMAAC4jAAAuIwF4pT92AAAWgUlEQVR4nO1dPY8jSRkuAwEBYhYSMsb3C3ZWpEjjlch3LkfyTER4XomAALQ+ERGdB0FCwI4liNeTkN44Rzo7IEFCZwsJ6aIbSwQEoEE1+5S3pv2+b1WXq6ur7H6k0e6Mv9rdT7/fH72HhwfVoUOu+EZ3ZTrkjG91V0dGb7oaKKWeKaXO8MQz/K7w73PhDTZKqYX1+wo/9/j7/cOwvxBef/ToVDzQm67OQL6+UmqA/58k+vgliKvJeqf/fRj2NYmPHkdLUBByYP2kIqMv1iDr48/DsL/K7PiS4GgI2puunoGMF/jJjZAuLEHWm2MyCw6eoL3p6hKEfJXB4cSClq6zYyDrQRIU6nsUWVKuKw6OwQJ/o1B1qGxHK+ZxTTRhD9EMOCiCQlqOHJ61C2uQzjgsjXnaiBD0IzpmU0jVu4iH2SqKJyhsyxF+Qi7usuKMtOo996arfsV5Ow14G/2dJg/D/k0Dh5gUxRJ0D2JuYL/dQS1mHc4BYY1jd17z5VobjEsmanEEDSSmIaUm5KzhQ2wM+O6aqJc1yVosUYsiaG+60qQc1yDmXNtkJUjKuoBkvcSPrxkwB1GLsVGLICiciRvPC2Gk5fhYgtu96eoCGsVXqk5LOT9ZExQqTYdQhh5P3+C5k2NNE1rhNd/zpUk6SXBowciWoJAKNx7q/OiJWQXU/9iTqFrtj3IN+GdHUEjNG4/MT0dMB0DUiWcW7XWO0jQrgsLWnHlIzWJsqByA8zrxSGBoaXqR0w2fDUF705VWSW8cT1tCHR1MpiQlPKMgG5A0i3PcOkGh0mcOD3QDVT5OeGgHiRom1Kc5nO9WCQqvc+YIHy1xR3fqPCI8ndBbHWdtU+W3RlAUdkwcJyiLu/hQ4am9WhUQrRAU5HwrPGWNO7ezNRMAtulnwidpE2vQRigqOUF709WNIz6XnSd5DPCIoLRC0qQE9SDn9cOwP0p2QB2eACr/zhGOukpZdJKsL96DnFcdOdsFtNYAcWYOb2GiJUESCeogZ2v2TQcevelKO7CfCE9JIkkbJ2hHznLh4cw2TtJGCeog5xrOUEfOjOEgaeMCpjGCOr7YEl+s89QLQJskbYSgHTkPDx4k7TdxTaN78UhfcmVbm7ZTZx3CAFvzinmxjp3eIUwVFVEJasXRqGBv5xAVDgdJnwuCKRixJShHTtWR8zAAkl4zX2aItGk0RCMo4mZcBuKqI+fhAAkVLpj/GdKmURCFoCjd4oK6nx7ChIsOOxjB4aUwi2WP7k1QqwCWwm1XLneYgKN7Ad+iihOBE7UQQ4JyFTBrDBXocLgkXYGkFF7FsEf3IigOgCt27UrmjgCo2f2U+aZjdJYGI5igVu81hdedU3Q8gBk3J77w3qp+HwnK9bPMc59W0aERXDL26Pk+5XlBBIXXTqn2TWd3Hidgj3IadRLq1dcmqDUviUI3TOGIAc3JqfqgaE7tYhFhwIJW7dECtE0DNQNVD/Quh0Y9ayPJmfXn+xLm0MM3WTDm30d1j78WQXHiVsyHvyjBMYJ5MhF68Vsb9uo5nDfrYV8qshCrq+K5PvbrQsipSffOMSjiFH03SQlqFdq8ccwK0Lb/Fyn7guoCXv2aOva6aVBvgkJ0U9Xxm1D7IiVQK+AzjtBgmIqknt2UVbyFNsgVXJC+FlfqSFDujccFLCIYOBrAOAwTkWAcuDrnpokazBjALgDKYaolRb0IKkjPdSExT+muXTPqyOe1ewMEk26eJRNfVDAFcm7VZoWa7xv4ruPe+4PaAghAxWyfOEOC8/S8N139VSn170hfYVLZNMJJ6K0zhO9wyYynucj1OuiISG+6mhPn/1GK+kRMnAS1Vp9UsS6kjO6M+fuNffyaNPiuVN/NjyIej744L62Lw6k73RqzUh8qhyZQjdWxifts1UsBffN8TnzOCHa3CB8Vz4U8Si+jo0wTLdn+m+CzbVJSxRRLJl5YXF0tbkTKFn3lU0jiQ1AqnLE5gCJk6uQ8q2H27AOXU8k5PntVBrUITpg57WeRoLDLqJjhIRSDUCcnhcOxrkhCSs2dMtGDImdXQYpSjqgzluuSFtwbFCM9YahvCDNlaHUD3OPic2Oxf6OU+k+Ew1kRW++4BIcOIc0gDH6ilPq5UuoHxPNuIxxXCowJ+/5EJxwkbcymOnHxviYemj4M+0VVLHkuaODQ+PftTVerwK3GKvU4xFAIaXIx/SmpeO6ilLiMdSLEEiWkypKFqu55Kb4AtAbFnXPJWapL0HWJ24KtuZd1STpKUT2EcyrN5KTwLyGGmis434X9HiRBwWgqvlbsKmsUswwcWSMDTeSPU0onmBFcbw+F76Q6tljANajlLHESlGN00aElnKAzEIE6UWs81m9DU6AK6CNIU5e0/26h0RTqvD7n1DzpJPWmqzsiPaXVe6lxOGUVKKyM2obhflb9ey5AUfUzSMs/MQmTl0Xtf3//nb4gHiKdvR2CCt57sQsOiBvu49JsaWFVTFGdDIqPWughHzuam4qDcl+2SPXO9O6PYtjTkAZ9It8fvXVEV42hSLnqG5y7YokZYkZUcJExaEqCUsPzdWozy7pDCUJ/TJC5YlUVUUUbVUSX0jBTqMKLxgbINgFkyd4Rb71jrlBOEiVBS934xrWo1Po+muiorv8aatZn/3p0cwgXjwpHBXdNtgHhxt3h3hOCQkJQ4aXiCIq7lCLSxpc8+nyAmF/WbBdpEiPGw/8EJkcpoCqcZIIKtZNFEdTRuz/yUYUg+GoPYjZiE+LY2QEJTXxmQ6A4tcO/KkEp9b4pcM7SmMlte6UGYYe/c3RX2lhCIsxRvNFofhxtNlzXZCl1EhRBT6paoOrFUxK0KHIKDXJeY3k8VjYqkGOGyqS2tMsl4zBpb79aMZUjOF6d2Y/5qPjS7E9OzU1cgXgPci7hnWuPedRmgByfTZXa5d5I9wjcQJQWeBJdqUpQSi0WI0FRVkc5eUvXpGePlY1ju4MVIaxLa0SNbQ6kWik+wudXTZE3+vsUMCdrQXDuiZm5laBCr3IRw8BAGE5yiBIFdhtHTrN4bILnDpCZ+hI1pucEQc5TOCwgIPc5JQTuKeH3RILaKp4MxBfkIHHzSq8lVQxicxfZkHOBkNMMdh83VdpGkroFx5iZ3MvxKG49kag2QSn706c0rXVAAnLzSl0BbC6Yv13ZCM9y4RmgN0ipeTjnL/ewE2kC2Z68S4Jmr94dMU9x7SLTZ65A7AuLnHc1WzLWKTM7gsMU2kaSBIJm23LRdpIoCVqC/clJwFuPXDhHosehCY7VjgZLhJy2J7sl755q+gtpc8kBW/PI1dWZ+7DUgTBxz+UY9RmzYG4Rm7NrFTz1cS61mLihrqzOyVLGsS+JyAtJ0KzzuMTU4W8LF8BnFLk4HlDI5Stsz3sifa3i5z5sq/vU5NXZKzhyjzazbd7gZrYjNQuUBbYd0Bc/3ybo3lU/TcBad+ObE196TtyjwmpLi1TcezwhJ2zUMUXm3vTxHpmmnN0Pwt0pv4nNG6R1J5llnrYSNPq++JiAFFvULNjwSWdyVVtm0t1AyOXb5ByhfUHy7vWxL1LnyC3nTprYfILHFy1WQlFCMH+C4oTVKdjQ+MozbstdDGN7cvHDLcmQtaJaMCicpJyIHDCxWd+Md/tuhWsCWRIUJzikGv0HII4LXNWWUcPU47dWs90gcFJJqonI3P5UCdEWwMbEI0EzHCN96Yjh/VN4bBT4fWzJ65oJEBrjPGk6eA7NI2W6pORL7SUHTcNIUE7ltZXm5Oy1a+za+aFS6qeYrlHFicfEDeoiGOnInQvzOBee2qCn/iOrt51C02qeO3e3WBWkj/+FMHQsq9BUilmYIaAk2Nxue34Y9v/cm67+xvRYhxj8Rr1zNQmuicjjSvTgEl581cF7LMo1tjIk1gif+2Q8uOWFD3B8Pt0A1Hff2Fk1fPZFb7q6J0yBrMKNRoJKxaO5YMc+wommeltcx02FfO6Fx2xQjsSGsd84df54E0Baf44ogJbK7yqO1I1VMTX0DPtR3/2GITZ1zFmNFH8kaCHtqjGnDlen3W2HysIRuq48/3XAZyiPScqUurdV7M48eo9wEPWZ3LnLvpU86zhoBTuZHyFeKdrOkLx9EE+nB8/smxSmxEvYlC8qqpsiAGf3hjhTLtK4Hqc0wLDqOOJ3Kr5MaaTWkKsNektIj1MUCk+g6kaCQe9UhWZzhvD4HfM+3HtPrInNZsADRdqNw561nbEQLBgn7h+96epXSqm/4HO5VG9W9b+5EnTGZGfOPYqFN03OXULxMlXgcILA/dgRg7SPTaogIwnqkd+nJsNofF8p9XvHa1ULNaTsTaoqKp4qzWolJoaW3WXgy1M0jEmfIZFzUylGkeofOG9cBGND++I6kz4mkqC5tXZcBNQzTlMM0YIUCyGBPbGZJLlD/fteoz8qpf5X89iWLY3PEW1ql5PUmpeHCzmoIUmvUy53gCNVh6RX1tpFauKeMsF92LKUieNbXfZbpdQ3axzb3LS31HhNLFBhLW8J2mocVNt7D8O+NBFZwaF62cbsUsvblzzfW2S/DDm5nZvKikty2SYnQWE6+DT1Kdz8+sZpi5wctgS1nSTqALOobkGJ2xierX1M1aLcPgqFk51sqOQBPvvMuql3CoKFIbQKxSiGgJSqXbscJEd/1s+UUn+3fm99orSQ99+eM5ugzhbQtoETunNSreqnc/yefJeTdWw7EQRciLEg2bbtGSAxdd59IhPSTKo/eLw+NZyt7i4Jquy8ccao2nQ6ML1yTRNpAlDhRsobieq60U0HaT90ch0yTMEzqVqCs9V9a4MK6qOExQmUqggtuwsGEglvkT9/A0fHRc4r69xzdZxTD3UcPJOqRTg7iatePOWIlDAUlRzllzLoDDXu65woSLaXlvN0w3i0Ph2qXFRg3YYWqQHnsLoqQSlVXsIGCW7V4TC3AlzgFjPlTXObNLhMLLGDlmD7+yMdb3TguCntIkrQ7EJNPsAFFNuIExwDt3LaxhRS09icet6T1BTok3iQBlfkPDrTq0i+SlCvqbc5QkiPppw6PAAJ59aPjuF+rJT6no4sWFLzEtKCq7/U38Wl2qXBFbkPbfCa5l0tFuG89UEhc0JHbU4dhjMiEgPE5MJBBkvPzA4nXccF1Ph6pXKfEBRqh6rUGZQwoF9LJx0DpdosQN6kDoM1beQM55AaNluFFznRvUqR3HdwRdugnLodDU6V21H91CWt2hsjVZh86jDSjJM9Ehy3rol8yj2sN/t5TMJ8gB2CUsUixdqhyj11uDHJYhUrh5BT24yvjfPk8XzOMbouZOAwKfAop86XoKqQSWmPEKYOv2ow7FSdU++LKUJOXjePY0FZKdvmKAlKtkHvEBR3MFWdk/s46So4FdhUvWgd02Fj9fg7VXoFrGovofkRmti71oCrB6WefFrSqj20fVA32ikyL7E/b4WQEoc5SKnX2DzDGptY9vC8oPXitfrIuJ6kGVMWdlnCDh4Ll9jGUcUYDlNUiaNNC2SF7PqF2GVt1d33pQyqNaA08ZI7RzvruLcPvM9wVL35oDXWbYJZL66QpSnpwm4BDXCBCrRxKZtYoIGpSTCvORtcIihXXBt9D3qTgHe9YhyYF+Y/uV5kOHWtFxfHgFBz8FGIBH2G/ehVFCd5HJXsNpZwoqKrf19YMU4tIavOxC3K50pcj84JCm0/s5EVtmkOF4hy/Yc5DjqVAPXh03z3HERuZeIw0qALmCSUp6vDS5/rutMMR2a6wLVZi1EVV1cn9+ISbbff1XiuJscXKUv1QM63nrHUc0xELomkVIx246rWEgkKW5MKeJfkyRv18suAl85SaAvcCG89nmrjeSH7OKUZWs7j9xkeRr3JSUGL8xVuqJAU5Emi7Ewo0ZrMjMVEUJ+Vkpyk7RN447aYkBMzqFXjK6XUL/B/bt+nQi3nvfrgxMT83j9WSv2aeWyKmPSZMBZdFyZnm+XDDUSVQHodt5OgSg4PXKUYNbMPhNjbTjRCiJm+RCnfZYAqDsXOudWdqhRJH4b9XqJjqg00ElI3/kufaITvfFBORJdQnMA5EnUmIg8cj8fGmrnxi7A5DYRGwrlvqMyLoAiiUksBGslrJ8JOYN4jGB5SrRQC7jhK2d1vsLdgqzNhmf2wAmNyigqVCY6fIUyq6cPnTPSgGMdUmBHlLT1VHYIKUjSVpxsKThqNbA/Y2rZBwUiuCyQvUqy51n1UW5Li5qHqQF2dpG2BM4dqccXLSdo+2ZHXzjifzRnqChf4XuiubDRaARJSFVcGc0cx9M7m5baBfilqE5+Y1qRQa4mCY657zo1a0gU8daxeafTiC5rJ4Fwg5ya38x67Xypky8eEUSvnuTpMsHkkEnC4TRRGGwWOPPdZ7JUaN0K/VO2KrNoEdU3xyLWQBDHPOiS9TeWU4Jxe1iRpdjFoYUZUcL9U0J4koZ0iy425BiDplcPJqdthGevYFoi3usaKL+2hY7nAMToyWNLXcpKevPD9AS0Ycc5WSOcChEHOrCD8HTUVuQ3g3OrjMkMf7nFsswId0dqO0ZP3DSWochcCZ+vVd4gLwWvfYItfcDfAXgRV8p2zrq4Y7HB4EIpBVAxNGmNXJ7fP6LS03HGHeoApwvWn3cYw8/YmqOWBUngF8d/hwGAtrqB8kGit0FG2HcOr57zPN4UVN3fww0RIcESLgOxtgz55M7qX3qBzmg4EQt2sih3Bib0vfiDEGO9KGp3TgQa0IUfOaezwYlSCQqxzJD3pSFo2HB0FzpHlIYgtQU1GhDvQx0xTofWjRw0HOTdNLaONTlD1YaHBFfPw8wJ7uo8abZFTNUVQ9YGkXHHG87amd3SoB09yNub8NkZQ5a4gOu1s0rzh0cU6ajoy0yhBlZukneOUKRBKksiZpNwvahxU/CB53Z8qocf+GGDtnM/iWiUjqPIjqa66LrWNuXiAnNQaIhtJBUlSgio/ks5jpso6+AFVSVxuXaVwiCg0boNWYVW1cziHh1/S8rCigbrez3Mjp2pDgm4/+L2HyC2kMsiupfaQYFUkSXvul9BorYwgb42g6sNgr5nHYtXWTtChAi0vXAemgddqxibRKkGV/128wWz2TpruCWtlIzWlxEYW2qt1ghoIfS02lggOF7dEIAfA1hw7pOYGGiuLc5wNQZWfJ2kwxX6gTu17AOdVKjA2yC6CkhVBVT0VZMa+TLqQFA30DN04zCeDLFvFsyOogacRrzqi7sIaoiDFmw3mKXLqociWoMo/7WZw9ERFVGRU43yNsx+wkTNBDWBD3Xhu6tjAjj0aGxXahpuLRKEYG74Ighp4eqE25iD27NCkKtT4pbD9g8IcxCwmClIUQdUHtT/Cjy9RjVSdlbQItwp89wvHyhwKaxCzuGqx4ghqEEhUZZH1rgTJCrtyAGLWIaUqmZgGxRLUYA+iGixB1rvMJtuZn5ANeUs4i8XX1xZPUBsoQBl5BKQlrDHqcAHS3jcVgoHzZzbXDRyz6H0wxSrxg8m0HRRBDaxwC7cCOgRrLJC4r+wrWuBvFM6sRWLP8LuKQEQba4TXWttx3yQOkqA2IFUvPDJTJWENO/rm0McJHTxBDWCrGmcjpmRNBWMrHzwpbRwNQauwvGPzkxthtZS0nbejLIw5WoJWAcKeRXRY6mAJ+9Y4ZouuruA9OoI6AE+76uDYjo8UMdhUHKpVxdFqLEJwKOgI2iFrJO/q7NDBG0qp/wMCks2sNCP7ggAAAABJRU5ErkJggg==" vertex="1" parent="1">
          <mxGeometry x="240" y="-200" width="70" height="70" as="geometry" />
        </mxCell>
        <mxCell id="82hZbd6NY0PPkRuZH4To-14" value="Queue" style="sketch=0;points=[[0,0,0],[0.25,0,0],[0.5,0,0],[0.75,0,0],[1,0,0],[0,1,0],[0.25,1,0],[0.5,1,0],[0.75,1,0],[1,1,0],[0,0.25,0],[0,0.5,0],[0,0.75,0],[1,0.25,0],[1,0.5,0],[1,0.75,0]];outlineConnect=0;fontColor=#232F3E;fillColor=#E7157B;strokeColor=#ffffff;dashed=0;verticalLabelPosition=bottom;verticalAlign=top;align=center;html=1;fontSize=12;fontStyle=0;aspect=fixed;shape=mxgraph.aws4.resourceIcon;resIcon=mxgraph.aws4.sqs;" vertex="1" parent="1">
          <mxGeometry x="710" y="-208" width="78" height="78" as="geometry" />
        </mxCell>
        <mxCell id="82hZbd6NY0PPkRuZH4To-15" value="DLQ" style="sketch=0;points=[[0,0,0],[0.25,0,0],[0.5,0,0],[0.75,0,0],[1,0,0],[0,1,0],[0.25,1,0],[0.5,1,0],[0.75,1,0],[1,1,0],[0,0.25,0],[0,0.5,0],[0,0.75,0],[1,0.25,0],[1,0.5,0],[1,0.75,0]];outlineConnect=0;fontColor=#232F3E;fillColor=#E7157B;strokeColor=#ffffff;dashed=0;verticalLabelPosition=bottom;verticalAlign=top;align=center;html=1;fontSize=12;fontStyle=0;aspect=fixed;shape=mxgraph.aws4.resourceIcon;resIcon=mxgraph.aws4.sqs;" vertex="1" parent="1">
          <mxGeometry x="830" y="-208" width="78" height="78" as="geometry" />
        </mxCell>
        <mxCell id="82hZbd6NY0PPkRuZH4To-16" value="Topic" style="sketch=0;points=[[0,0,0],[0.25,0,0],[0.5,0,0],[0.75,0,0],[1,0,0],[0,1,0],[0.25,1,0],[0.5,1,0],[0.75,1,0],[1,1,0],[0,0.25,0],[0,0.5,0],[0,0.75,0],[1,0.25,0],[1,0.5,0],[1,0.75,0]];outlineConnect=0;fontColor=#232F3E;fillColor=#E7157B;strokeColor=#ffffff;dashed=0;verticalLabelPosition=bottom;verticalAlign=top;align=center;html=1;fontSize=12;fontStyle=0;aspect=fixed;shape=mxgraph.aws4.resourceIcon;resIcon=mxgraph.aws4.sns;" vertex="1" parent="1">
          <mxGeometry x="441" y="190" width="70" height="70" as="geometry" />
        </mxCell>
        <mxCell id="82hZbd6NY0PPkRuZH4To-17" value="SAP" style="shape=image;verticalLabelPosition=bottom;verticalAlign=top;imageAspect=0;aspect=fixed;image=data:image/png,iVBORw0KGgoAAAANSUhEUgAAAKgAAACoCAYAAAB0S6W0AAAACXBIWXMAAC4jAAAuIwF4pT92AAAQ2UlEQVR4Ae2d/XHbPBLGwZv737kKpKsgvgqst4L4rUBKBVEqiFJBlAoidqBUEKuCszoQK7ioAt7AfuDA9C4AkiAJkvub4eTDMkVRD/cLCyAry1IJQqr8Q74ZIWX+Kd+Omyy/rJRS75RSt3jhLf5tuHOc4KqUerT+fcHxG///u1wvHx2/P3vExYMsvyyVUlqM5k8txJue3v4M4WqxPug/y/VSi3j2zFagWX65hRDN0ZcYQykg1qejXC8viV1fL8xGoFl+eQch3uNITZA+zhDrYU5hweQFmuUXLcaNUupDApcTC21dj3MQ6yQFCve9jWwpi0qCYzCJD4WdUFUTrZjXtYdYJxe3TkqgWX7ZQJjvW5ymgABNwtJZpo0KwTJiYpZDqA8RL3NQRi9QxJZbHE2+3HMlGRnUClnVBHMsGpxGf6Z9uV4eOrjEXhmtQFsI84r4TQvymLpbtKoN956aK4X2BrsxC3V0Am0oTCNKLchjx5fYGfjsJumrI9bRCnVUAs3yixblroYwTzomG4OlrAtCgQ2O0DDgBKGOJkYdhUCRTBwCvwhjLXdzKW6jlLatYVXzsdyfpAUKl6ZLKOuAl1/x2v1chwmt8lro/dIi3fdwaY1JVqCwCocAdz57YVaB+98FClW7/W2qBf/kBAqreQgY+RFheoBQD4Gu/3OK1jQpgSLWPAZYzdHEUCmA+7oPGMDQ1vQ+pQc+GYFm+UW7pC+el53hjiYzUtIngVWQK0SaxD0eXKBw6ceAxl/tync9XtokqRFCfU3hfg8qUGSdR0/56IwnWtx5RAKT0J+6zjqkyx9MoGjs2HtuUBJP8VQJ9F6DGohBBApx/nC8pMCTK7FmDyA2/eZ4Jx1irYYoRfUu0Cy/HDz1ueQyyTkQUEEZRKS9CjRAnN/L9XLb2wUJr4DLf/CUoz722XTS27z4AHF+FHEOC7zWCnVmjh8I0XqhFwvqEedg8Y3Ak+UXncB+crykF0vauUBFnOMlIJntXKSdCtQjzgLJkIgzYTwi7dzAdCZQzwc744NJpj4ChhRpJwIVcU6PAJEuu/hOo2fxGL7k2rauQw+dCc1ArPmR+WVdO31AmSoqUQVq1dGoYq8kRCPHI9L3DsPUmNgWlBOnEnFOA4j0O/Nh1hg2jUY0gaJuxo1AfBRxTgcMqHDF/G8YNo1CFIGidYsr6n6dwgoXwhu2SHgpjrHi0dYCtRpgKX5Ku9w0QaJ7j9yiyo1DE7WIYUG5DpgCiwoI0xXpBSKl+BAjHm0lUFwA1+wqLXMzAD27X5lPusPM0sY0Fqg195risyRF8wFh3In4wK1dfRsLys1nOaW+WoXQCRsmHr1r057XSKDI2inXfpW4c54gHuU86r5pVl9boNZ6SRSymMKMgefkXH2jak4TC7plpgmLaxeUw9V/apIw1RKotXgshUzXEIyr5wxV7YSprgXl5rF/l6xdMCCrL4gbcld3GDRYoDDPVHf8tWl8IUwazqPW0kodC8qdeCcFeaEK9gKgEqZaVjRIoA7rWUhiJDhgjVroTQu1oK3fSJgfGAZtZUW9ArW2PqlSSBudEABnxIKqPiEWlNuPSKyn4MVhRT+E1EVDBEoNXV7Fego1aGxFnQLFmDs1aiSJkRAMrChVF/X2bfgsKHcCsZ5CXSgreuPrdGIFiuSIWsc8l4YQoQFHZoy+mUAdvzjazViF4cBgDqWdO1eyVFegxZh3CxYGh8tduHlN6p/Uf0LR1Bz3zsWZ5cU4N7CfD3m5XjRqStcNRVl+KYjEe8OJl7OgnKIlOZo3jcVpQRm595ybryPQQlrqZk0McSqHkSOHPt8IFNk7Nd9IYs/5EkucCkaOqomSXpuyoNwgvrj3eRJNnBaUsSO3ZgwV6FXc+yzpQpwKqyC+gepwChWo7Pg2P7oSp3KUKt0CRfxJlZdEoPOiM3FaUB1OXgt6y5xMBDof+hCnYjT1Rn/VQv2Y4k+9NqXuCaCuTX9Qrhoh8PQlTgWBfqn8n24eubX1VhUoZUFTEmeBEYdjuV4ENaxkebHCg3fv2YPS5lquF96lWrK8+O3ZTlyV60UW+J72eXXRWh+3OFaePfVj0Kc4lUNXt/bPQgSagnvXXTDbcr2oXeoq14sHfIYdvviNY5aAIbTme/TsP9oIPHz6eLn3eNB2HXmFvsX51DzCDHu+GlGqxqDUUzq0BdWu/LaJOKvoL75cL3YBndyhDdm9NW7rB61cL7RI/2La1prSuzgtKG29CjNfBOqYZTdk7yc2/Qpz5yFkeeFa/Ew9D+kugh5KvI4aFekMeIRVJJEOKU7FCJS1oGTMNXCCtCnXi9iLQvjce12r2PsIGx6MtjtpDC1OxQj0lRe3BUrFn71ahwp5qCULBTFoNXOsUrfnYJAhYNwb177uLlIQp4Y0Ptit8Ak7SaIs6JDu3WvJsrzYIDs3/aum+GvKT9Vs33fOn3XDCf36LC/ONSoEr7CqDDYPcOU+dg2StFTE+TSZLsvJ2/2iRVuglAUdSqBXn/XM8oLacP/O+nP9vKlUcYKVu3ANCRZNO7b2nn3VXawIq/4lywtsV87fhwYPRzLi9PASh/pmdQ4l0BDXzo16VbmDeH55XndtUSnoohVRx2IPSOpchJYBUxUntRkYKdDQLzwVYsd+TpEhfiVBItc0HnRxE5AMhSSRKVtO5/XbAqUy22TH4GHt/oqYyPniU98D0VVDd1vDMRa3bhPs4ociaLQExWv9Yf7WCU6La3XWPpHI3HmsKDfvuy1tymxjECdlBJMXqBYFOxW1ihZHuV7o1/8L+5nXFavPet5X/uToouTU1DKP0XK+IVmBNlk9T8eC2vVbYv0cGAL4RDCUQL8HlL0oqz4JcSoj0FhbJ0fmfZYXjZd4hFj3CAE+Otyvs/aZ5cWtNbpx58qqESZwW1SHcoUH+LtcL0LW0KwmUZMRp7LqoFwgPnSjiK4HPgmtzUm0Vc3y4ghLWY1vfVav+mXfe35H/+xbjWvbNV1rFbGxPTQ4KXGqxF28QRfbj64EJQRY1FUlPr0iuXFRtVA+N9/n9Gxb2JMTp7IE6moeTQE9AvSoXX5A4drHxopLndYTD0V1lMY5GoVwoU1FIYgsL+yt0CcpTmUEOpJtZG4wJPi/LC8OcG+1QVHdWB6feyetZUCFoVMrih4EE0ZMVpxqJC6eQo+z/8ryQo9F7+uUpNSfIv85oFuK++Kd74fzd1ETVUgczbj/pMWpuNXtRsQCDSOfsry4op65D+whDRH1EYXyW1jwK8KhkBG2aNNBENbcw/KbpGjy4lQTEKiNCQE2ujTkE2lIWx0y7KYcQgRqTZCrokVpJs1V494piZMK1V6+G1ugV2I8fjXCOfEL13qTfaGHYdEy52MT0ERtMwfL+SJQOwZNde2lU4NOoVQeqtjJ0hTF6azK+JKkFEaYdvhS/q2H/gKSj5+xp4q0IKYVn6rlpJqtSRf/SIyyDF0HPZmpD4gZde1vi+HHFfEAHRMSZ1CcG8gsEiILUqBUUtFq9CYCZJICEc5lOcjJitMx1f1Fi1ULWqXr5VZcnAInjkUFRfAd4ljuQVjh4b3HohJdTY2ZuuX0TnX3WVBVXcypR4barNZs/7gOrGPed1QxmINb9051f0mSsJ8ixVBuPtr76kI3hkedSR9+7pv5WaXWKFYgc4k5vTOJq1k8VbcbKlH6gaHMXZtOJrhs7QHeBYwwNRGbs0e0AXNKiLyL1VVHkh6JuLPtEittWKCI/QXzv48hixogy99Y7loT0mDSVBi6stA0XrYfvtmIE03yVI7zyoJSAq26uFRa7t7j0GJV1ri4DbeEuTJC7+jaYpx7bqWkoCb5qounrMCNvVZOQtygbmsfjZafSYC5iVOFruZdFSiXrQ/p5qfOHMWpGE290d8rgaJxmZr0JQLthrmKUzFrH7zx4NRYPOXmRaDxma04s/zCVUsaCzTVOHSszNlyKs7gUbX4UIGqFiUY4TVzF6di6s3kRMM3AkUcSu0C1sWIydyYvTjhian6J9k7y/WDUi9eiJtvxezFCbh7QHruOgJV4uYbI+L8A+WJz+V6SXaEZWVZkmfJ8ssjUfguyvVy6B5RYaTAA/+XuPrP5XpJdoS5pnxQixosHCUCQfDBLYbGzt2qK1AlyZLQBDSHUNo5ce5duQSKbJ5K/ddZfhE3L9Tlnllm3rn8kG9WJ/fLEvALdaFmSOjmkOYCLdfLI9PEHLKwqiA8gclxVO3TuyJ1yOJh1En00KdYUSEUbn6Zdy5XiED3zGIJQ01qE0YErCfVufTTlRwZvAJFssSNLIkVFXw0tp6qxvqg3JuIFRVYHNbz5JhF/IoggcIUUwt4aSsqCZPA0dqw1VlhmX2zRLexEQYEI46trKeqI1CHFb0RVy8QcDFmLa3UXaN+y2T0n6QVTzBk+WXH1D1rWU9VV6DI6LknY9AVjYU0wDA4l5fUrvo02eVjz4wu3UnCJGBghxpz/x5S96xSW6CwopwQd9JIMl9goKjE6No0T2m0TxLG6Kl5SzcdbUktJA4MEyfCbdPN4tps5LVhEiZx9fOEc+0nX8eSi8YCRTzBPTHfJKufD8jaOdfeajicnZMUfIL88sBcXPG8PPYo9gEVGoLhzF/Mb7NzjUKJsVfnPePqFxKPThvEndx8op9txaliCBQWkjPjH2D+hYmB4e0jE3e2du2GKLsdI6v/zvz4i7TlTZK9Yz3W+1ihXesY9NXJ6Ln0hv8MtFuIEJksv+yxyzRF67jTJvZ+8SvHVoUPktmPH3hDTpx5THGq2AKFWedEeiMiHTcQ5w/mQ5y7mEwZ24KaXcK4C7153m1D+kfHhkec2iCtuigpRheoehapLi99ZH78HpZURDoShhKn6kqg6o9IuX3etUgfxd2nT6A4O0t+OxOoehbpxiHShcSkaeMRp0ITSKeVmU4FqvwilcQpUVBKconzY5smkFCi1kFdZPnl4Nk9uJcPLLhBbrBP5bvqTaAqTKS661pa9QYC4nzw7NjXqyHpVaAqTKSnmENlQhjoSuLG1lUfCRFF5zFoFcSkXAlKoXXvETdM6AE0mP9KTZxqCAv68sbPGeLecVM0X8v1UrqhOsLqSKL6eQ1neLTaE95iMJhA1Z9F9Y/MHGrDoDdoqmDlD26ahkGvsL0ZMtwaVKAq/CnWLmYv1rQ9uN9amB88J0vCew0uUAMam794XnZGcbjW6hTCM4g1dx6reYXHSuIeJyNQFZZJGnThfyduPwzcV1eDsSG5CkpSAlX1XNAVN30vJSkazBk6eMInQ9RG41gkJ1BDYBCvRKhvsRZRcNWbDac+xtSbkqxAVfiwm2H2QkVVZFvjfu1StJo2SQvUgBjq4ClHGa6IY2cTo8LbcOsiUYwmhh+FQA2BWajNCcI+Ts2qwo1vcIQ8uAr3YzemKsioBKr+uP0tjlChGqt6xBTpUWLtd7mpYS0VVnnZjbFbbHQCNTQUqrLE+jAGy4q4cgVh1hGlGrMwDaMVqKGFUA1niPXpGFqwcN0r6wh13zZPoc0U+mtHL1AbNKBsAwrSLrTVecShRfu7qxIMkr8lDv3324YPmSGHMCcz0jYpgRqscgu3BXQTtHB11vsb4jVccFDo6zCzV9/h3yqCEG0KlNcOUyyvTVKgNijBbAJGpsZEgTj6MPXlhCYvUANiVZNsxLSsfWFi5cmL0mY2Aq1iZcfmSE2w2kraydssG2NmK9AqVvYcK2GpwxlxrEnMHqWv4BkRqAdk2tUEx162x9doTSVUJtHqrEIwFUSgQtL0PqtTEIJRSv0fXVqC2S68eGUAAAAASUVORK5CYII=" vertex="1" parent="1">
          <mxGeometry x="540" y="850" width="80" height="80" as="geometry" />
        </mxCell>
        <mxCell id="82hZbd6NY0PPkRuZH4To-18" value="Finance" style="shape=image;verticalLabelPosition=bottom;verticalAlign=top;imageAspect=0;aspect=fixed;image=data:image/png,iVBORw0KGgoAAAANSUhEUgAAAKcAAACoCAYAAACFQP45AAAACXBIWXMAAC4jAAAuIwF4pT92AAAQWklEQVR4Ae1dvW5byRUeBukSQNonMBdIL+4TWHkCc7t0pItUKUxXW5p+gtBAug1g3j5BKCBFOlNA+oi9gb18gjWfgMHI36VH1Dkzcy/vz/ycDxBgixJ1OfPN+ZvzMzoej0ogCBG/kV0RhIrfys7wGBXlWCllfl0rpSbGL+jvvbC8xV4pVRr/f1BKfcH3Hr+Os3Fp+f2sIWodGBXlLYg3Aele9vjn70FWTd6H42y87fFvB4tsyTkqyqlSqiJkn0T0xT3Iuj3OxpsAn69zZENOqOiKkK8CeKS6uNNEVUptcjEFkianQci5UuomgEdqCzul1Dp1oiZJzlFRzkHKNiXk7syZqWCzD2+Nf1eO1XXLB+UOJF23+J5BIBlyQkpqUi6UUlcXvNUT5wQOypcWH/URo6K8NhywNpywg1JqpSVqKtI0enKClEul1KzhW1S2XBBeshE1uMQ2LvSaxE7SaMmJTVw2kDY69riBKgw+ZIPPOcWXLaZK4R4kjTI0FR05ISnXNUlZEVKrvIcOH69TjIpyAtOlLlE1SeexSdJoyAkbbVVTfRcgZHJBbUjUeYP1WHRhQ3eBKMg5KsplDUdnbzgGUWzCJcChrRxBH2n66DgdZ+NluJ/qK4ImJ6TDyjP0ssOiJxdS8QVCaIsa67UIWasESU5IA32y33j8eNRGfxeo6Sx+wPoFp2WCIycWdu2hovZY1GwlpQuQpEvPtZyHdsCDIidsy3eOHzuAlKueHit6jIpyAZK6bPb3IdmiQZATanzjoYai8jZDQo1ohzaTpiGs8eDkhBrfOE51kGonRniaTQcQdND1HrRMAzbRJwcxtcE+EWK2A6zjBOvKQe/HJ+zPYBhMco6Kcu1QMUGc3pThqbWK42w8CEl7Jydsn7UjqeEOalxsy44R8n70Sk4sxNYRJA7KY8wFHpESHbS/7ZOgvZHTg5iixgeGh5rvlaC9OEQexKw+tBBzQGD9b7EfFPT+bbGfnaNzyVmDmGJfBoJQ9qxTyenxIe+EmOEB+3GL/aHQiwTtTHJ6EHOwEIXAH46QX6cStEvJKcRMANingvkkN47q04vQCTlx2oSYicBFUOx362idnIiXcWpAiBkpHASdYd9bRas2J+5iPzIv746z8YR5TRAJRkX5YNGKr9vMr21NcqIykMux3J11vxDEC1scdAUetMOpNiSnwzPXNz9jCRelA+x3ydwktebBtyU5uSK0g8Qx04MRBz0QH+7GokFr4WJyws7kHKBFzE0MBDywrwvmB2Zt5IJepNbRfeOBEe/imWcAS5D+gCTxxl1GLpWca87uEGLmAewz5SBdgR+N0ZicqOijCtIO6ECRLLRHquN6Ls9Uaxa9TmjxnTLmjP35EjxpxrEmat3hrb1NuWyXUGNkbA+E/JfxrbvjbJwsSUHCvxIvNY7WNJWcnDq/T5yYY8K+4j7v+Y3JKyTzJgns+z3x2Rqr99rkxAJT9SbJq3N0Hz4HlzWeUg96X3DqvdHBbCI5WUkhA5/yBvafu2OvrVFrkROxK0oi7KQ9jEB9U++U935TN/ZZV3Jyp6KxRyZIEhwfamUueZMTKVFUC5NCCtMEJsAHKr3uRZ3UOi9yInTUymkQZANWy/rWHvlKzjnjlX4QJ0hAAbyg+jFd+UZ1fEdaU1LzIFLzK0ZF6XuTMemy5iZALBnBtvDx3p03RJbs9izaxhjzM6ctThe+B0m3qdvrljY3zqx5H3JyafnfJz0U9Ov1I5c/0CYOxtCu5EZX43D/QrzkLNuxkhNR/U/ES8mmw9Xoo94F9rjqS2Z+pbKn1f3RpjlcDhFHwOTUOTKNtjBhhiCmwt/VKvAXvaGQOimA44tVwLGSE+7+r8RLOrkjqQQGz0EJNvyIcdcmKI3TBGkMWf168CkT6TsuY8nmrXPpXcmMVvHsF1pBX8n9Vyn1l/MXKFtxVJBc+rNS6vc1JwJrdTjVJlbkJS/cvNIpxymbWifDR6nM/alBTC25foDx/o8L/+xnffes8zqPs/EIEpdrVGDiKnZTCryhMpbYq2+SnLB1qE3LiZgFIhLzriSWlrhwLL/TSdpwiDj00hOzY1D8ueFsa05ypq7SNxZi7uFF9jYCWttckKhjSFMqaTeFMBPHH5JvHDkpL2qfQpkvnB8udlkMPVYG0lTbpK9B0ntceESfkgj+UNqB9NqfOURQeZRUif7kQn1wNk5QsVvYaCnO9dwQA3e1ar8+99opyZmySufmP95LKXNv8FbtFDmpGGb0Kh0agSv+T710NxhYVPsz3vmSM4XkBI6AMui1f1B8spMTNhl1dZcqOfcyr30QUHx6cR5SOpec3LVkCmEMKpaWXBZQJODW/Qn/fMi5S0TtUREIqX0aAOATVaFpJSeVX5dyC0OxNYcDxasn/DsnZ8rShbrXlR71w4Hi1RP+nchpaReSStIrdVIlhDQcSF6ZPDQlJ3n5nlCNC0XOlyk31woZFl6deOgiJzc1IUZwIaNVX1NwBc9A8YskJyVBkqljwc0Ele1zk+gddgyg+HXyA1w1RKl56lzSxyvU7IgE7RcUv057YJKTSiNLKtQC6Ul1oVC4d98mVFQWAyh+nXiYm+TUBF1YbOkbVD5uMujjHgKs/HrM58xQWtw6yjReQdUrDMTfym1Sf9B81FUIleRMPYz0BMYEMp9oxCs04v+fUurfPT5m8nCFk3wbeSUHTVDEOFeWCXTn+B31TdRkb+F9ltKvtB1kS071TYLO0S6Fm9/pg5emIc/UrGv8QcwDf1TkJLPfQ3zgLgBJN4EkneNak5uScQl+HhXlz7jnf4C3+gCJ+5DpnNA9kUP86BPYJGd2TWFB0kfJBqJOsVBtj225MiTtqfPHqCj3yHXUZcK5rH/J9abKWq3bYBJVfSOrbUJyG3iBysQ3o6Isci8haWveevIAWblrzrsO8hD0IShzTkwRcrYA9D6aoP/RD7pjSEtvrdX/pzZml8cIUesto3JqLF3mPhsO6AQxPZdN+1G/X27FeELOfvH53JZV32rqp46OypqgWXn0NrUuCRA9AY281mjk9ZYpKVGJVouyPKvISdYRd/c8Ag5o2KXVPkXQWhPQIgHbJ0EcogAB1c12KMllHYScgQK26Xvi6a5y8d4rcjor4QSDYMWo9yRyTV0Vv4/klPmVYQK3Q5QTlLTQqPjoUuvSdGB4UOS8SiRB3Movk5xUZaIUfA0PZ313xKD4deKhSU4qwUAk58BIPPGD4tfp85rkpG4eJBA/MBIvV6b4deKhSU7KKWo7j1FQHylrL4pfJx66yCnhpOFBrn/sdUo+jeNO5PRprCToF5bRNCn0sHJW/J6HkpzdZgX9ALbmhqllin5gFtdF2/zPOTmd3WZjhlYlMcQHHbM5Uxmy4OyifU5Ostts7B4jBv1/wQz0qt1MkBrBY2hs9IkflimBT/jnQ06VwF3u6kw9vkL5g67RmYdy+HBgSgsxC2q2e4Tg+MSTE3eaXtO1IgM3iFXnEn5USv2KFoiDHEJ9ONDY4ZOlXn6X0AhEbkrgk4gRVaaxJcpfYyfnnVkfzkB/5tmoKA9wRDZdSynYv3OoalsTh11ijqnXlEBfcuoM7EnE9StzEI6ToCauDKIq3PW21mXOqBeaehwYhYM1T+UaU/PId0oglZXESYtoVQpqdG5RsntX89c1od9B5X6ifqCGc/V3bULAlPAh5nuUHad0v87x6BnvRsfj8dlP6So/wijfowArehjqdB5orZRW4/MUKy21E0qsubann4WWuHxOKo72AiI5emjD+zgbL3HYftResKXisU9oZ/Q1GjSkSExOpZNxW46cyal2Dtrp0V7wcTa+HpCoFSnHiTdO8FbpilPrilftB2xi8sApr7rM+ThSdVF1lFvn0igBFyHnUQlSpStHx48VDHcTj5V/ObRFAWFOpAFZ/6SU+umCt/0nWndvc6vbQsVorTwBWw1RNqrdByDrf5gf/R6RAPOLwt/Q2SPHgsJaKl3ZJCd6phdEzPNlNe2g8WMmBqzFk/WwtN7ODoiOUKZRYQuTuaovOfWdWksUQbfg+GI1D63kROInleM5k0lnAh+AJ1Q36J0rm9+nHQ1nsGZpewpqg+OJM2HaSU545lSm0kIGmQpsAD+o/FOvhGnfRl4Uy6/E9hQ4sLykzMSXnGvm1uSN2J4CCuDFG+Klg+98ey9ywt3n2C7Sk0YId/VDguPFyjfLyrs/p06UYGzPWS617fAuz9eA6jGlCOlwSHFEOAXwgfLQ9+CRF+oOLFgSV5oKUjWXvkrVYIFrBN65grNqEybo/7PMaOBVK1qWTfxgf4FOCNF4i37mgowxKsoFRoCfg03w4NCk7TYrKcQ5yhvYf0461i5prk1O2F1UqcOVrxcmSBZrJnR016S3U9OBBXPGG30JsS7IDNh3Krnj0PQ2sRE5Ydhz4nuZSjmHwA/Yb5YPTR3BxqNe4PxQYRRR7/mBU+f3lzjJl84h4tT7DTpYCBIH9pmK3jRW5xUuIieSbDkbc5brKOZcgP2lgu0ai0sT0mvHOck3+Xp6qIfUp+c2p0m3uQB25pZR50UbfZ3aGi+4YJKS9YNvJbUuLRhtGili7tpq09gKOeGNcfanEDQhOIh5aLOvU2uDWaG6uRNz01YjLMHgsDa2bdOEa3VqMLKbqUm3Sjz4+GHxzBWajrW6v604RM/elHeQVFvGsqBfDLGnnZBT2bOXlBA0LjiIWTvbyBetqvUz3Frm5cxExccBFzG77LjcmeRUfpMhkuramxKwd2tLk9sdYtid7V2n5FR+BO38QwrqIZQ961KtPwIfwKbibxAHlUymAGDc/AwuTDqXnKc/5D6NOoA7jX3gaMxAYRo30lD1reU6l5wVPCToFQZXSanxAMC6W+cg9W1+9SY5T3/QbWgrcZT6Q8j70Ts5T3/YHqJQoua7h4caV0PGpAcjp/qWD0jVwZv4kFnNd+eAtFwy7WJMvB6yxfqg5FT+p3cPtSJS9EJgvdeO+UtBaK3ByameDr53Ta0okPkiUrQmsMYrhymlUBcWxNS4IMhZAR7jO8ePHaDmpbuIJ1C2y7UjNPG+Ti+jzp87JHIqf7WjoOqXOYydaQrY9EvPtQzObAqOnKqewa6ghpZij34DDvjSc7hXsA5nkOSsgEVeWW6VTOzQ+zFbSQpJuaixXouQD3XQ5KwAW9Q1ML/CHoRe5+A4QctUpPSZgHzAIQ7+Ji4Kcqp63qaJAiRNTuVDq9jqxilEFe2IhpwV0GZvXXNYahJDUJExNEcD2zpz4u/h8EQ1Vi46claoafSbqIi6iUGi4nNOGxBSxe4sRkvOCkbD0jrqzcQdUvkeQthEkFFLyFtHMoYNBUgZ9QDO6MlZASSd13CcONyj13s10vqhCxsNNvTE+OKGl/riYDiCSUyFTYacJhBSmV4geSjsMHjgfEKwTdqaxV9jfF17hnp8cQcTJbkQWpLkrABpOoVEbZMQQ2MHp3CT8mjxpMlpwiDqJbbckKhs46QJaSIbcp5jVJQVUScX2npd4R427/Y4G28CfL7OkS05z2F4yW04J3XxxAmTPIGvEHJaAFNgfObMmCXMY0fscc84T5VTVeaioptAyCkIFr2VBgsEtaCU+j90em8mQzaqtAAAAABJRU5ErkJggg==" vertex="1" parent="1">
          <mxGeometry x="380" y="850" width="79.52" height="80" as="geometry" />
        </mxCell>
        <mxCell id="82hZbd6NY0PPkRuZH4To-19" value="HR" style="shape=image;verticalLabelPosition=bottom;verticalAlign=top;imageAspect=0;aspect=fixed;image=data:image/png,iVBORw0KGgoAAAANSUhEUgAAAKgAAACnCAYAAACFHRdhAAAACXBIWXMAAC4jAAAuIwF4pT92AAAS4ElEQVR4Ae1dS3YaSxJN3nlz3LOeQa9A8qxnxisQbwWgFRivwNIKjFdgagUPTXvSqDfQ0rBHTa2gzQrok9ZNHCQRWVlF/SvuORzLUgH1uRn/iBwdj0ejULQVv+uTKYZRsp8aY6aRb345LqY/2nYNXYBKUAajZP/OGHMLAk7xs/vd+MqPfzXGWLLu8Xqx/x4X05dKLqbjUIK+EXJmjJmBgPY1aehUXkFY+9opaQdKUELIuTHmpgWnJOFgiYrX9riY7tt5mtVhEASFyp4TUl6rpptCaolqjNkMRbr2mqCjZD8HIRctOJ2yMQiy9o6g8K5XxphlSZLSOTU7/N/9a46L6U5+2+l8nHNliKNFnbAy7F17jmuYAb2KFvSGoLArLTHvrviYZxCwVs8a5z4ljlpRu9jarBtL1r7Yq50n6CjZW0n5UFASPUNNtspjhtR1jtysIGETqP9MKd9mdJagBYl5ACEdKTuhDmG2OCcvr4awi/Chq0TtHEHh+KxzEjOBfbat8NRqAaTrEq88kjUBUTul+jtD0FGyvwUxP0S+JcXxm76mGQs6hN9A1G5oj7YTFBLDqvJPkW/ptEorAhLnjTV5rKmzOi6mm/ZdzTlaTVCo802kdOikCisbsM2XkZrGLuZlm+9ZKwkKibCJdAiUmAwQutpEStTH42L6UPtJRqB1BM0hNZ+hpgZfUBFCjmhHK6Vpawiaw9ZMcSMHY2NeC9zbFV6hhd8627QVBIWHvokIm7RWFXUB8Po3EfZpclxMl224pMYJGqnSVZ2XiMh7bvP786ZVfqMEHSV7Kw2/ZBymUrMCRDqiVuXPmhQMjRF0lOw3GWVwr7A1VWpWiFGyX8H2D0nT+6bs0toJipW7y7A3E6h0bTSrAZE+wOfjYrqu/dzqJGgkORtbrUNGpMqv3XmqjaAR5Gzc3lFE+QW1kvS3Or4kgpzW3rxVcjYPOKT3EBgcFvAfakHlEjSSnDO1N9sF2KW7gPNUiyStlKAR5GxNQFhxiTaQtDIVr+TsPmBy3ULLcbDqvlLPvkobdKvk7D6QSZoFSPoJBSmVoBKCwoiW8r1Kzo4B/sEMhTocviN9WjpKJygyE1KGSMnZUYCk84B3v4HNWipKJSiKZL8Kf35FuZeiuyR9gSTlSGodqS18j9JQGkFRyiV1TWooqScASSV1PkE2qjSUKUG3QjjigKIPJWdPgGLxe+Fq7pCNKgWlEBShBsljn2uGqH9AvUQiXNgXmHtX4+pAPU7kn8KfG6mAUdSHUbLfCRGbFOnrqzTnVRIUBrFkdz4pOQcBybOfYHDGVbhWxUttAyl6sxU9Bwk/cVhcGx8tTFCodql2cK5O0XAAp+mbcMHra0JPhQhKils5PKpTNDwcF9OVkA6doKWkEIpK0JUwCOBVG9wGDcms+1Q0y5SboAjISxXXancOGNCcj8IdKOQwFZGg0hd9U9WuAD+4opIPRaqechE04BgdrrEzFP0BnGOJiLk5kleCSl+gLcKKE+DVPzN3ZIJqt2hEZ5ICGaPn42JaSlpL0R/AV/kvc0FW205jBVoeCSpJT1XtigugEp/L1Y/zlF1GERTSk8u3PusYREUAD0IatFyCqvRUFAGkKBf1Gcd69JkERYBVpaeiKKSwZJRwi5GgkjhW6anIBJwhzhadxBSSBAmKnDvXAPeq0lORA5Iwy1TzWRJU+gCt81REA7boE3P8HcJRIn7P+BJOvR90POIlRknqYsF0++09XuZt9+TJkLfKWQtZyGXIXBQD9XCO/s386RtKqwaLUZLeokj3Fm24efalf8Z237u3DW0ng8nAjZL9nqmCS4+LqShFQwRdC1vC/G2Im2aBlEsQs8jW3xKe3ja6nfReKyHNyc1NeC8VGoUIyrHdOkelT49oM0ZJOoepE7uJbVEcoAbXfZWqgfSnqJVZggbU+2DGc8OmfIggZgqV/eLZnA7OJnX/Zn1er4kqdIGKal4iqKTe/9L3qqVRksbMan9CN+u2CIlA/nmGuYAd9Sa9Cuchg/Sd+ROr5iWCcurdthFXMsGsLYA6D3WqYv/58iQbyLoKLAjs794PaYrY+v+YP7H7YV0QNGAn9HoIwyhJJa2RgiCVmjajJJ0GQjHY9a0fYapRsn9hJtGw/g0XqJdqO6UBDZ2GVemjJN0I5Hx8m45RvYdtyXdcTKwE/8i0TNiH+YJIQh/A3c8brj2ZIyinxtM+hpZgb+6YdG76ZhNNaletsDlvmfy1NTt2PSGpZFdfCEeOoNwN6KX0FGboP0FqNtYAaBfFcTGxzoQ/Qa4XJIUzxNWJhgkK+5PzKntXGAK17pMzsWq2LQ4JTIv33sPsiyTlOJUpQSX7s1ftxKMkfWDUegKp1SpAkvtTjcdvI7fTUqcZ1wyOoBcjPH2CcquyV/Ynwjr+4IlWktOBkJTipuxpxjWDT216c0VjCNob6UmC8BSvbSanA0jq26R3iN12DoF64jMODoqgSF1SG/sQMGtaB9ikvnffZVXP9c6fpTxPBEUMisug9MJBQiDcj3UuO5ihWXlx0nGH228401GUoJJX2Bf701ftT8fFpHPhMywo3yT5hAXYNVxP0D44SAjJ+BU0nS26RjDfb6HoohTltPOZFqcE5ewYzkboInyJk/Qgr+0vMGl3vzaDNa+oJ08J2kUVEQv/RpQibZDH346SdEd6kkqB/Tx87pZT31hgiXc+nXqGMeM6swjalwzSFhVB1mv/o0TpeYvqow8VRAPcuKG7gPBYkdnw9x3VClzK82RuZnV19gKIIfauVQUO06rje6C+MP7BydykEpRrRRhym6yiBcga3KAEVVQNzlE6abvS94tXKHKCc5ROKr4RG9R6pjiJl+NicmE/of3CraKVX5uJuKZrP1lyzsEoSZdkuMIExvguqwcd3/0ObR5771zsoIXoCABpWTbo0rxIDOCYJWn1eM4zWgjXucQ5jpFl2qF3aucdOyUJC/ZaSL3CO0xDabROoSknyU3j+GAJQAmGcA1NSW4YB4e2A0+pKRLoyhzjdz8LLNBewcF99x7nUqgfHsRx3YsHzlxCTaofv/yAF7cpFn2v2yfVP78JPnMxStJ7bzH+IMfbe79lCrPn5N41nuP/qeKzBjhVACpJ/PCMT5wbphji9B6mLfeB3GBLjM/o83kkIY07SMYQvuBhPuEVLdkYcs4YLTD3yPmE8/yM90jbm9PrdGSzZP4DL7pP0XcaG4XXT2OnnHSk97/xcj4nQVmCVjhikfYBzbwb4cj3Sh7SzJEa6t2lw84yXV5BSApiOMllg96WJH/i/5986c3gMY9KJ+cXJCdAyUG/x52ntMU5V/hCOz5tYN+QmtcH77vW5N4vaYgKgoBqnsZrFZyTJKWcqpKslPgnaYgb5EhJSUtXNVX3/g08W/0++WADPgnH+zjkHTMJcrprC5HTeEQ4+x5ohVCamWqdi7QtyJ4yx7qYsPvssVdPSn9+akPg/ydBAymnSgiKC3c21oSoIXoz6UOiv/ePMZF/c6DEDwXvX3KW4k3xneMIcp5B+J6Q9qLPRZJyjlxcjxm9B1S6UoK2otKryTATJ0XdDTrg4bpjKIlvvWMoYox6SoYyF+CCmB7rHF2hQWcoAtIiEgkOx8lJ2DtBQChByc8z798tc8zcMwHaVsv5RJywVY6uy6o85azFd2ZCQdW7BfbUlkLuxgjqxQRvsYqdOtqZX7aYe+gzTyVzEoJKLenBx5gBRfBC1GWe1uCJUIUUS3CpSCWLoNTuXTao3oPnmUXQquNgzsa88W7Qjvl5FkGuM4krfCf9jFL7rbDoXJgnqzWYtm2ckZHxpn3Q67wIFeH9wfitF3K68cyrk3S1krXiHnyOoKfnQgnK2UJVVwDRlepudOp5j+5hjAPH/AQI4h68DVQ/OIKgdpMOok2raPmAB+0iBTcBKU2/m57nNKs6CZrFXecE12XMZbYoC1SKOvW+JZ81wzH/qHlQxMm8+I37ZY2gD0+yLen/J8IxFFSifEFGaAuvlo6frrJdd0kIdIOMkY81MV9ucJ57TBb8ItRJ+t/h8HWUpD9sgTPeH5K+J3ghJ4ezhYN7/q8KS/quUvGVrhrcIP9B7Lxj9sy0t5CHusO4GPcel+J0EsL+/mOEl114wUJ9zsm1LaiUM7+ua+adp1uAz94CujgXXOdH7/1OOzwhIxUDungOnlaxBP2PMeavFRKUC4Odng3NxXOjmevIxd6SVfRDIM4s4pgT8Pcp2Y3DYRcxsfi9K2TJOnH7WaMk/cgdb88B3z8TRoPT85wTYfDiSDJK0vfkOPb78X5qn9P3xziB9LPPNBOu7+/2+qrw6rlxi8Dpu04DbEfJ/oEZCWP3ROry/B9FBryClfd1TvVDcxyX0j2NmqcqPrMFVNEvoKjFkfO1gZGTUqt7vJPkD3NSdB9kqjTdzKCJvnrOQTpz2k4EDeTjB7Uv0kBAJecBHaFNZOY4bp0JSr9g+ZWpQ+xzv/wgcVxM1oi7/kCHQVNVS5nD6nyCcrsvqIrvIfLWuZYNlHJmDqvz46Ccms+q7FYoiiBqmncMQdVRUlQBaZr3mQ16RtBAi4cSVFE2OE5d8I9LdXKtBkpQRWmA/cmZjhcanCMoJ0U/BNJSCkVeRO9myBFUioepFFWUhejdDC8IGtgFrNc7HStqRZT9aQLldpwUVYIqrsYo2c+F+CerufMQdIwPVyiuAcuh42Kai6BSuEkJqrgWHIf8DSFOYAmKYCn3prl684qiGCX7ZR71bjJaPrg+mrFKUcUV4IaV2aJ4sclPJChsAs6b7/I8dEVDQHCea4UOlvllNc1xzL7R3LyiACTBFmyRziKoNN2t9bsDK9oD+C0cZ9KsEZ9BgiKyz+XmFw0MvVV0F5JzlDneMmY2kySCu7rDrqJ+cOr9EDMBJZOg8LD8wQlGQ06KGCC0xM4o9Ws/OcROt+Ok5Vg9ekUEJE0bNb06lqBSyOmL2qIKCQHpmcRu8x5FUIhiifFqiyouAPPvas7kGWC7FqSo9ei1d17hYyV47tHS0+QhKKSoZHPm2g1D0W/A7JO4kkvj5hoBHvDoP8DeUCgMBBYnPR/zSM/cBAVEKaphJwVqhrkBurn3nTJFCIoiEi67NFZVP2xkOEarmLinj6K7fEjqfKGFJIPGWggrPYdK6kIoRFDYEY/Cn7eq6ocHqHZ/52aHwgmdwvskHRfTB2FnkHEbdslV1AcIJOmZPwZGe2bi2o28JFV/N0r2mgYdDraC1/4KQVYYVxEUK0NS9V81gN9/YG8DadOwq0OPp00UrvqQZM/NFTWImd4W8d4U7Qfszj+FP38+LqZXR3XK2qtzLqRBJyXvh6loCaAdJbvzuQxymrIICq9eEue2h0mdph4BTpFkdx7K7PwtbbdjBPC/CX9ewFZRdBwg506Id1rMyjTpSt2O+7iYroQsk0HtqObru49NYCz8/TUhJQ5V7Bc/F+KjFt+VpN0FTDVpo9qkaLYohFK8eB8ot3oJ7FR3X8XFKKoDyCllip6Oi2klE2eqkKDOaZoFtpRWSdohZJDztco5CZUQ1PwK4odWlZK0A4ggZ6lOkY9KVDwFSPg9cIiq+xaChJKkLFHl5DR1ENTEkdQa2CpNWwISSpK89VrIaeoiqIkjqZ1HutS0aLNAhmgXcHBrI6ep0gb1ATV+H3CcbPhip332zQFCpDXkNHVK0NMXZq/QAyRpE9tDDxajZG9z558C1187OU0TBDW/SLoNpMssviEzpaj2WUzxLEKbBidFe4quRSMENXGGuHExtrLTZ4rTM5gjdSlpM9O0oGiMoOa8C1CKsxmo/IeyyrcUZy0aUtrS3fdV0yHARgl6Oom39pCvGYepNC0BcISkwQoOttB83oZ73QqCmni71KCk70HDUfmA+7sOBN4dWhXuaw1BTbzqMW1RP10A7ulDhodu2mpKtYqgDpHGu4EqWmlI6hIg5iowZY7iFSo919ykOtBKgpp80tSgSHqtRM1NzAPuW2u7HVpLUAdIU2mkio8Uampwqh/xzGUkMQ0W9bKNUpOi9QQ1+aWCIZPUNm1/ANcCs7CWGaE6ik6ZRZ0gqAOkxEOOh2HglW77JFVxH+ZYsDGaxXRBnXPoFEEdcoRMKA4IY227aKuClDMQM8Yud3DaZN3F0FwnCeoA9bbK+cAMHtoOhN211QzAQpzjFUoJc+g0MR06TVCHgqqfIgVhX0DY2jMosLNvISVn+DnG3vaRIvrRaWI69IKgDmTT0jy2mYRXEHaPf+3Dfrn2oWMx0dcMP197vs9wCnsVwegVQSmIdzsvKIlCOIC0Puzv3oFwFO8KqOgYOGnZ22hFbwnqAKnq7LhZBWStGyls580QCmd6T1AfCPw7b/hatVoXnp1TN7RqrsERlIKEbpxzUoUaLgJHyF3Whv99x6AJygG26y3syNuSHBgJz875cg6Z1rueQwkaCeJ9GxDX38nEhYl+CA7UHi8zdKmYB0pQRXthjPk/tmCGvd6IU5kAAAAASUVORK5CYII=" vertex="1" parent="1">
          <mxGeometry x="220.00000000000003" y="850" width="80.48" height="80" as="geometry" />
        </mxCell>
        <mxCell id="82hZbd6NY0PPkRuZH4To-22" value="" style="group" vertex="1" connectable="0" parent="1">
          <mxGeometry x="150" y="620" width="660" height="150" as="geometry" />
        </mxCell>
        <mxCell id="systemLayer" value="" style="rounded=0;whiteSpace=wrap;html=1;fillColor=#ECEFF1;strokeColor=#808080;fontSize=14;align=left;verticalAlign=top;sketch=1;curveFitting=1;jiggle=2;" parent="82hZbd6NY0PPkRuZH4To-22" vertex="1" connectable="0">
          <mxGeometry y="6" width="660" height="144" as="geometry" />
        </mxCell>
        <mxCell id="82hZbd6NY0PPkRuZH4To-9" value="System APIs" style="text;html=1;strokeColor=none;fillColor=none;align=center;verticalAlign=middle;whiteSpace=wrap;rounded=0;fontStyle=1;fontSize=16;" vertex="1" parent="82hZbd6NY0PPkRuZH4To-22">
          <mxGeometry width="120" height="60" as="geometry" />
        </mxCell>
        <mxCell id="82hZbd6NY0PPkRuZH4To-2" value="Client ID Enforcement and IP Whitelisting" style="text;html=1;strokeColor=none;fillColor=none;align=center;verticalAlign=middle;whiteSpace=wrap;rounded=0;fontStyle=1" vertex="1" parent="82hZbd6NY0PPkRuZH4To-22">
          <mxGeometry x="10" y="80" width="120" height="60" as="geometry" />
        </mxCell>
        <mxCell id="82hZbd6NY0PPkRuZH4To-32" value="DB API" style="shape=image;verticalLabelPosition=bottom;verticalAlign=top;imageAspect=0;aspect=fixed;image=data:image/png,iVBORw0KGgoAAAANSUhEUgAAAH8AAABqCAYAAACVpo47AAAAAXNSR0IArs4c6QAAAAlwSFlzAAAXEgAAFxIBZ5/SUgAAHXVJREFUeAHtnQmcVPWRx6vPmek5mBPkkBtFAS8Q1MRr1Rg08YommhijoOJiiEfWjclmV+InxpiNR9ZVCa4ESci6ksuYqDGJqBFU8FYQBUfkPoa5e2Z6+tpvvZ43/bp5Pc7BzLwe5v+Znu5+7/2v+lXVv6r+R4sMpoOWAi6n9XzhwoX+nVt3nhyKhtYtXbp0l9Pa19n2XHHFFWVer/d7rrjrOM0Tj8c3jB47egH9i3S2jN5+ztvbFXS1/HXr1klhQeG/e1ye8quuumolBPxTLBZb+8gjj1R3taz+eH7BVQsqml3NF8YkdqXE5dhoPJrrdrm1KYEdO3Y4StgcB35JSUk80hrJE7cc4RHP2Eg48hWXy1V5zdxrVseisZXhWPiNZcuWbe8PYDPViTR7t2zZMoX7FwYl+AXAHi8xKYzFY14YQMRRkCd74TjwtWlxV9zvEpc7Eovk8zU/HouXwgBTYYjLYYhdc66cs47rryJdrxQXF2+47777ajVfX6Zrr73WR5smRcPR0wH+TJVyt9tdGo1EAxFXxGO0RYEn8Ry8EPMnvjnnv+PAHzFiRHTrJ1tXQqLRXre3FJUvMVfME41FDUaAKcpcbtckCPr5eDQeqqut+5jh4W2+rw6Hw2thhsr7778/1BskXrBgQVFjY+NUt7hPjUViJyHZU6m3mDblwag5fE9IeRvoHrfHAD4u8SpP3PO89q032tXdMh2pkK688spipOgICHsuInMBxtIUPosyAlohta9xiXo8nhD3WxgW6lCxGwBnFZL498KSwrfvvffe5tQMXfs2Z86cQoA7DhY8GwY8hXom0rY82pIL2Cr9CRqaUk4DaI9wTw27t2DUJ2DKZ8nzIQZsn2uojnrrSPC1wZdcconH7/fnQ7Qy3s+AAS4B0JMZT/Oi0Sgf26md7B8XwSJCnmbAaeLGuzDCn/15/icfeuihyuSDn/5p7ty5E6nzfKo5l6ePpMz8NsCT2rK9CS7hfqJQl+ygGX/zRD1/DMVDr2Cw1jc0NDStWLHCUVKvjXUs+AlKGv9dMEJuAckdd093eVxfApRzUbXDeRek0fJoao9glDCgBGGWXW6P+ykAWbp46eJ3UzOkfrv66quPYjiZQ9nnkGcogOcjxfsBrrnUilfQAbuJ9qzFJnmytbH1OV++7xMs++DTTz/dK8NPaou7/y0bwG/vHUzg9/l8+UjTWF6zIfhFgHMMY6snRRuYOczegQ6quAlAd/LxD/je6i20iar5MAOMS0bxzAUAegjlBfieKMEy0piAw3RRPm9gGPoLbXgmFAq9Q5saJ0yY0Iz1z+Dv/GSSx/kttbQQ4rr3rNsTqPPXFed4c2ahDb7A7TPxCkapJAKGjrnJHGYvQR6AgtxIUxdtj8bFE4niYVhA149apg7tMIQOKxupb6U74v5r2BV+nSGphtxNixcvDicrzI5PJlmyo7U2rZw9e3YOVrTaBsMB/UTk90wwPglGOFQNLx0a2l/pxqJNeQq2CbiRT+LKLB9w8UWGnVVxd/yt5ubmfTU1NU1OV+s23Uu5lPXgW3rjZljIycvLC/Aa1traOg2GmAFDHA2YE3huKINzAMl1qxSnpzagI7zXkW8bLPMez7zG6+1IJPIh14K7d+9uBvBWrlkGgvSSsuf7/lTox7YTOJkGWDMAoCYQCDyHv17fzea4cRf9wWAwJzc3NwcNMATAR/AahuquAMgSxusCIPQzZiuQQe7twSDchirfwjNVeo12tGzdujX0/PPPdzkef92V142NeqL/xADki4fje3xeX2VYwpVLlixp6GafDng2R4BPkKYC4n+H3n0JUIogeozXO1jbv4EZnoBgO3rYc9dpp53mmTZtmgfDzIMke3C/3ISSjWJhkjgMEa2qqorgVER64Ja5cBGPoe2X0YNzYbrhWgHfo9ggzWigSvyDv3pzvMsXLVq02ai8H//1O/gEUUZgfT+MMj4FUAoYW40EE6ib1gj4m/n8NyT0CbTBa70VvesJBsq8Xpf39KhEz0ObfJZ2l6m3wNCR9CjQL1yPwORNMMZmfI2fwNTLe1JvT/P2K/iES3MIly5hBu9iwqOJ2Lc5mra1DGmJqZsGMYMwyJsQ7+/euPf54bHh7y1curClpwTobn4FHIk+nrafCWOeDOjjaGs+/ciljYlizb6YlVj6BEPXkm8hDHC/ebuv3/sVfMblr+OjL8Znzs1oQllaiMpsZShoxh1rhFA6ufMahH45T/Lejvgiu3rT3Zo/f34BYdoxaKcZtGMWUj2DusfShgCMmYvGSpnM4XrmRJ9gFHUfq70+72W0+9nMD/feHQtpe6+S9JKRGNe8efPywq3h5yDALFR7+iP2383WqgrVYcHjbqEsjelXoUY3UdYGPPj3XF7XR/jfO/Hpq8rKypq6soBCtRFjf2FRbtFQwrMjUdWTqWMqUE0C8PEwayHfcwE8px1wbW26lNv3IHmVvujED31/oThYPPveFT2bg0gW3PlPJjk7n+MAPKnToS0tLTO8Hu9KDKGcLhNO22BpOcAo90QYHtQNawWYMEDVc30v4O2h/Dqs7mpsizqYJAR4+oqhsn0879OpYxinhFexvnNvGNdLyRcAID9l+bnmQ0PpRA632lJXATfzme9aVFxa6cupTPq8Yl7uq/dkzLqvaqQegiR+pPIsCJlDUKZ7yUJ4xk41rPwMB8k587gMxUYYB2gazYuhKTR8q7WpZa+59YWjF3fhhum7qm03xpgG670wixEPgDG4nEgwU9cl3Mxs904LaIsfOlzA7YMDfFRyDpMnX0sJwdoRp7PXLIzQnkXVQWJCJsHgds+0P5z2AYzREgcW6LQqzK8GDeJyKd9vNa/11Xu/SD7jnAdJm2BV3Qe8w10B+4BX3oUCaSeSH+hCjgP2aNIPPWBFdrIgtY6zBaBOdinbHus/8AeB73de6T/w+73rgw0YBP8g5oFB8AfBP4gpcBB3fVDyB8E/iClwEHd9UPIHwT+IKXAQdz0Z3l22eZz4c65nzVGAecZeJclvWqpzv/TiPb1aRzYVHnbnFMjybQ/2dZt1UjGRfr39LskNzJdQS68PBW62Ww2r+6TX6zG75vT3GPP6u4vH9K7E2RAhKfnxeIW0thZIa+/vMNJe7iwYadOcg/hSH9A9nbpW8Im2a8B9MOieTqSB+n1Q9Q5UZDvRr0HwO0GkgfrIIPgDFdlO9GsQ/E4QaaA+Mgj+QEW2E/1KWvudeDirHzGcGP5ZvWmNcujLdHDMd+M6//R9AKeBDb6CaWzCFSngcLfRAb9MKPDI+CK/DM1xS47HJUU+t9SHY8LebNkXisnWYES2NEZlS3NEdjax+y5KIQOUGQYm+Ao4El6U45JZ5bnyuRF5MrMiTyYVecXndokXMD2865jHG6d4JIRfcY7wRRmhvjUu79WGZM3ekLywKyRv1IQkxFYQI5N140YWa4aBBT7YKJIj8j3y5bEFctHogBxe7JcAaDdF4rKhthVAW6WyISJbmyJs7YlLA9cLfcoQLilHGxya75VxBV6ZVuqXM4YHjNeNU2LyVnVIntzSLL/bEpSdQfaBKNeoRsjiNHDAB/Riv1u+PqFI5hxWIOMAUdOLu1sArUler26V7ajxEGCH26RbeUX3ZuhpLYqjBwZQraDaIZ+ydIiYUZYjZ4/MkxPL8wwtcs3hhfLYR42yjNcOyiOTVpOVKdnyX219RLy+ORLq0ZmFfU8EA8G4nDosV/7t6GI5vjwHcEUe/7hRVmwOyrrasAQBHC3OHk7+6fOdSVBG2Yf91hLAXpgyxCcXjM6Xi8cGpMDnkQ/qw3Lfe3Wy4pOghHWYycKhILvBh+gcaS03HFEkN08dguR7ZAWgP7ihXtbXRqQxqoZcG9LJnnYG+sQzZl6+qUYoQMrHFXrlGxML5YoJBYbj8KetTfLvb9YYhqIxFHS+9H5/MrGnXJtx0c3ni9tzrESTGxP7vXUdNQDVPTTHI3fPLJV5k4dgqUflljXV8rMNDVLZGJEm7htenYLeHeC1bjMv7xQnLRS4JxSXl3e1yAsYghNhhNmjAnL6IbnycUPYsCWySQNkJ/ggMSrglYc/WyHnYdQ9v6tZ5q/eJy8wvjdgxPUYdDuma2MEVQbKBNtxCZ/d3iIR6juP4eDzMMEWrq2vYZd4lgwB2RfhQ9WPxphbenK5nIUL9+vKBpm3ap+8WxeWFkXGlFb9rOJ6oJK1POpQr29nS1T+k3F//stVGIkii04sl2sPKzyw9R6o9tuUk13gQ/ByrPD7TyiTU4blyQOM7besrZUdgKA+ert6B/QijLQL0Ap4bz1PMNxEYgTnjspLGIyGgZeor56KV3zcJJe/sFfqWqPy4xml8jXsgUSDel51b5ZwIEjTm+1Llg24evLCj6eX4XoF5JGN9XL7WzVS04oOtko7YJyG5f/YyUPl4c9UyNn46j3SANTrwx/8wTEl8gvKfHBWKS4gfoCpVai7GWZ4HjtgLkNPHe25Bwb4HO6h0xkge8CH2HMnF8plE/IZa5vktjfqpFb9N7MHxse4XHd4kSw7ZaicwZCgQZubpxZxtgoIcb9biXq/PCEgF6JFKihPLf3HTx8mZw3PTYKrwwCFr4IBvvnKPrSNS+6dWSbjMQjN8HK36u7lTNlh8AHArIocY0zdTcz96lVV8okGWCzAq3q/Hen8zlHFMiyPH2NRbUAagWG4AZ/8PYI8XXbFkOgx2BeLTqqQEZSpSQNAQ3M9ctohAfm4MSwfYGsYBh71qaH5CdHDmkhMLkf1jyLvHz9pSpzy3NYeoxCH/DPJ55Dm2DQDic2D4D84tliKQfi7b9TKh/jw1uRCrL9/9BBZcOQQKcEmsCb9evORRUberkq/h7o1cHR4kZ7blEzKWKOJ/j2AgafRv3b1znU9EerRDxtl+UcN8sVDA2gNfh3GHCKSRTjiUyqlHNGktEZAuEvGF8jpjN2/3NQoTxOqjWmrTUni/lxU8Q1HFEuBRmJs0jGEaL82oYtWOLbDObhvX6VuU4tYi9aaRgQ88t+zyuU4oortAHMjSHDpjnfqZFdzVBaijcY6VP07G3wkT2fmbjyiEMNO3ap6zlGD6ibGAD8dwi88tsSYnLGCY/2sPLGAMoYzBHRK+qlDh47bjiuR/AwMpeVrM8bjBdw5vdiYGm4vG031UV1E7llfJ2MxDudMgvH0TDCHJWeDD7jnjy5ghi1HHkGVfsTYbR3n1ZC7DbWsEvhpaWKhT65lUqZdQjvKwFh/y7QhcnRJ8mS3TI8rAXX8v/awopSyVTst/ygo72JrXAX4Y3XoUBfRQcnR4Otii2smFUgD7tMvNjWkCg+MccHYfFwq/TWUT0+quq8GhElM0HQIAur+DCz5uZOKjHj+p5eMCwoVvzWlUCZYy6a+GkKBiz5okJEw58W0NbUDnSm5d59xLviAewwqfWZFrjyzs4nYOUaeiTIClM8c/HVE09TK72zSef7rJ6uEZshBuaW5brn92FImiczKMjybdlnDzV/HPrACrNPFT2wLGqHgy8YFmCbmgoOEvwukS+ttb38FoPMOzTPAfbwSdwlmSIIfl1MOYX4dxuhK0s5+FRfsWAxAW/WPWv4WHsPxuJVdTcoqGtkbBoO1A0yFuxtj8tT2ZmPoms6qog61Tlcr7eHzzgQfnHOQbF1+tRO/fnUVawyskyXcv4jJlDSvrp0U61mt836dOl37Jw383DClqN10aH8C5joJZppPkIiqMyadPKrVqKJN0hVAJxN2tjIWPwMpf97abJSps38ZtY5Neb19yZngQ7CxBT45Yohf1la1yt4m0DZbinSWE2Q55ZDM0rn4wwa57c06Yy1eOgEV1wvG5JNfgaBcTbwVgfjtxxVTtllR4pb1/xamir/JJM6Le+yP+Ve7Yjbxfyuf6pc3q1tkL/MPCr5PH2qr1lp2f3zO3NP+aI1ZJ4J1ZLHPcLNe3RMSDkM27xiEm4wVPh7r3S7tgch/2tbM0q2gPMW7XRqC+/btKcWSY6JE+fMOH2JIbQdCL/e+Xy/v7w0zkRNs55v08meW+XE7IavZZD7uaI6hicIylXaXB5xDcue0xEpFCDdZLWfSe6q+rYjAGFOHeDNa4rradjPGYQuA/vDtWtnLIg+7dObIXJmNTSGocA3S3MhYn2kY0fzP7WyRZRsbhUPX5R+7Q8biEbtyx8KUwzSe0I4+NiDLiXQYKmXIGZGn/TI5w66EvrvmTPAB+wgA1oWWlayhTwEf2hzJitxM6SXAT6y1R91WheRuAkN2SZd/3TRliFTghv0HsYLhHUikztTdxgxiNYEmbcs25hXeqdGpnP2TBoUm0/b0sV1D0srDuijU6hHsX0LfXXEo+C45BAlpRmJqUeMp6NPi0dgDmdImllMZVIbS/JqR/A/j/1qYwC7NxPpezGqgs3Wctnug7drDSLwOP+YETpTw7cYGe4NSyxmWs38kcU+bBlJ7xSnJkeArAXXY1NUyxFxSsNd7mejXiqbYpbN9JpK869q+O96tlZBRUCrZtRxdg6daIFNSdf1fhGm1Le3l8rnGiDPb5ypLb6C2o81D2O+efRF9ctV54ENYHXvV+tZtVC3Ww6G458VazjSBo/gY8QAr6ZD+Z9hs8dhm/U2m/VNHQSLllzuZoNmmQ08apfjplf0La7vCIuL9EnxpJDX2nZLSuuSAZkEcXaOBVyWFXjeMYGki99QO0A0zdsmPBBcq51hxIQ8/qCM/eadetrHAsivpGRaN/Jb5eONHXNIyWqtIu2UMV+nXnPjdQlnnNE/nPxRksN/fqsfar81gwatQBTRTekL6ddHFz3DVOptqqEO9hSYWZrSre0vmwg5m+/ZrH/3R4JKmvUzzOiXZUMoBTQN4jewVMPAXGf6XRc74qON4pjRcx1vL48ZzcEWU1xJmBl9Sw60TaRFG3ut71c1UlkpLaJjR+Zk9Do01pDNMadtYUM1O4PR7aaX32Vdngk/3N9VHDKkfXwiY0MuaPmCuPFOawPy6bQJDddXueEelOZ07UnPoZs4H1MjTy+nYk1Xd+InaLpvUiGW4ScestHyH0S6ttVLHrLR7NsX0ySVngg9x3q9PuFKHFRHGtWJFi99kjlz349mlmUzaGCFUu5tI8UomWZazpStT0uHmRxh5O5qowJY6caKLflbn2LublY2txjo+K8JuNMVkYhN1SP32oLKUM9C37V4mwvTZdQW/higd5vYJFX5xpbTSJRthjF0MC3bpSEKoY1T61XBIT5Srxt9P363jAAb7/E+y9+4JNl/qdKxtQnDPGJGbcYXPW/vC0qR+odlm6htGAGlaiU/Wsxhlr273Me/ZVtB3FzPoyL5rgG1NSKgGa3Qn7AlMr+rCzRp1ARQQCLcbqVzF2H3puP2bX8az5+G73wPAxjbb9AqQwk2Ef299o4aFILkpMXq17R5i8UWT+ng8Z5fycEG/PMZ+AUkUoH8P8yTcwLb8lDkVqa/AFnmUNYghrcQh/t7+1LPrcV9fg24a3VtJPP1b7MDVbdfPoq5N4ysGkf+PyZVL2C6te+qtSb99g3n1X7LyZ6/JMNYH+Az55fdM/PyFqVZTP2g+/ax7/cx6+JqauHcOK3KMefnUO8a3ddgKum8whXEobnbbaqO/7bSfaLIpqk8uOUQB2fRVpUhX6nLrK+NYIWOipI8CuM6rb8gwZ6+q/5vE7VPE2loFSKtBXo0U6hp7fZmfI1pRKj8lctIeXeVzC1vBMwWGlmwMSp1uGDTz81HnDi6ESXWNwRozRGxtSz9+di74qF2Nyb+5LyTnsKhDN0C0MwCtrmXsfGBDY/slKw3VBb+eRRmXjmfdXCbLXgGye1kLsnzW0ztuYRpYVwvbJW3rr1DrKQEhjEcNH4/GPfjN5ibjnB+njPfaB+eCDzDNmPQP45sPQ3qumJi6+VENssdQ/WuZxbNLOvbffXwZR7QU8uvIIAcQ3U6o+6vYG3A9mz/sYjs6RP0IG8OI3ytDaaK6AuyD+awY1rjE/+Jh8IPPiXsO+e9c8JVAqPffMja/j8qchySP0g2SJv1ouUbh7mCLtBLfLumS7p9yeMOiE8rlsyzRAouuJxjn88z6/XA6ewPskKfE+4gcPoOh167utRaY7SIOhToO13MZS7g3aWwizT7pemMObA5ng68Ao97vW9+A2vfIv7KWPkWCIeZfsAvuXp85bKvbty5Ha/zilHJD/dq6gB3RFKPjfNYLHtK2Vy/90T9sDcrdSL16cO3gwzAjUfXfm1Ysurfw5x/UJ6bwu8N86RUewO/OBp+OGuq9MigvsgNWd76ciY9t3RunM6v3Iv1PbUPyMqQ8XCt1w3ZrWDijA58hM+Wv3tvSjqv1qWfwQG56pVr2acTJQknV7reyQET39N+1rk4qiVZa71vL6M/Plib3ZzM6qBtpaeBnWW7j0CONvt01o8w4K69dA9CD6nBUblhbzWGJ9gsrtfTXWHsXtG7p7qDKlFsYni/uDDHXAONY0p9htutfadstbLmujKmHNV2FttFnHsUD0HkFJybng29QzSUv4yb9kEUZR3E44l3Hl0q+BkrMoR71r9I1b3WVcUiCHaFXIb0pC0HtHrK7BoX0wMZXLauBllc2ynUcxPAxa/KNJpjgAvyprNC9k8MZdpHn1teqpQHGtFUbdnX18bXsAB/iakR88fsNspwzePSghNunl4oRXW9jAB1yNxK5m/vSXnmU7dHW1AwohlfQzd7G0DhPYdDVsxrn+2igm9bUyDY0gWG9W4DXzR4PnlRurAy68bUaIpTOM/KsdElOTTn9KDaIrOsn1zDNOpU4+cWsvc/F+l5FsAdsDenSN85cNOyDIIGbo9ngmcczejTbnYy9xkoqEywrFT71s8uwF1YyrPyW83c0KJQizXgbCvySk8tlbL5PFqzZJ3/ErzdmD7pV36c26IA8kD3ga3chZCOE1uXZMwi26ImY5Vjhq3c3J9boaTyeP5X0N2GSl1D1GlPfiJv1OKB12+iiTJ2M06PWWIKfBF65Da3wRTTRIiR+ZMDHnME+Wb6pSQzrg3xOTs6M7XdAMaW3SvI1q/bKfbPKjJ23I/K88t3X9yW2cHvQ7RC9AVBeYn39+rp9xnpAzdeTpKO7sZzQBJTydbPoAg6AvJnInw4B/4wB+AckXg9oStEMPam4F/Nml+QrISC+AqmHMal1X5HnZoIn3ziAaTcrd3Um0HgALQA+rPdj+TfPdtXDs6W5Aq/A8jcTzaOHLl1B5E/P5lnwcrXomr9mbZzJILaFOOdi9oGvtGtjAN21/Q/G/H3M0nxxVL58ATtAD2HQQ5F2m64ZnoDi0eOknMSfHrn6L0wa/RiPY2pJjjyG5f9t3My3WGCScmpIjyvs/QKyTu23k8RggDhLs+JE0BrlbXbQKCi6TVqPQn0cUJYTHHqb41DVWjfG+66EV5Vj2qTcj9E4FePxUvbYX0zItgI74wNCzje9uk+e3cGuXYI8+ni2SLxJw6SCytYj17UnUF7j9iUcxHzhoblyDUek6I8sNAKKTv0+jZv2KkZiJQab/sBCuypI9j55TctjyCjmLKCJWO6fGZojZzEfP50NmLqgVFcR6cFQv2MvgPry2Sbt2j0zJbufzeBrb1T06E0A6VYP4GzCwBfjDZw4LHH+vnoA+rMpumfuQ1YJ7WFY0EOeNDKr8aISVtcOYR5gjP4Gj24Ph3l0YiiXm+rZrd7TbKwvWMlPrlSRV5f4GSt2khQ0aZo178mmZzv4JskN/Zs4u09/VOkoFnaciA/+GWb1phAfKEU7aJhYFYC+zKReojKB/tyK3tcNHrqKVyOLa1hToBFE/dGGZh1CNCUpl/iehf+zd8zPROw2UBSkZlbV6ITQGly+n/sajLF6JFrhUKRbJV3X0useD8VTl3XrwsvtqHI9yFnXCeqwoYtIdcZOJ4aMNABAN0k38MA3e9YGki6k1Z9BaWBwruK1EVfQu9sl6ua0xYSMEUMZIEYeBTmCX5jykyxa1gAC3STRwAXf7KEFNB2jdYwPG3CbD9i8mytuLHltnsr6SwMf/HSIBjig6d3t6Hs357k6KnLwXrZQYBD8bEGqF9o5CH4vEDVbihwEP1uQ6oV2DoLfC0TNliL/HyOEvS6Nh8GPAAAAAElFTkSuQmCC" vertex="1" parent="82hZbd6NY0PPkRuZH4To-22">
          <mxGeometry x="490" y="50" width="59.91" height="50" as="geometry" />
        </mxCell>
        <mxCell id="82hZbd6NY0PPkRuZH4To-23" value="" style="group" vertex="1" connectable="0" parent="1">
          <mxGeometry x="150" y="310" width="650" height="170" as="geometry" />
        </mxCell>
        <mxCell id="processLayer" value="" style="rounded=0;whiteSpace=wrap;html=1;fillColor=#ECEFF1;strokeColor=#808080;fontSize=14;align=left;verticalAlign=top;sketch=1;curveFitting=1;jiggle=2;" parent="82hZbd6NY0PPkRuZH4To-23" vertex="1" connectable="0">
          <mxGeometry width="650" height="170" as="geometry" />
        </mxCell>
        <mxCell id="82hZbd6NY0PPkRuZH4To-10" value="Process APIs" style="text;html=1;strokeColor=none;fillColor=none;align=center;verticalAlign=middle;whiteSpace=wrap;rounded=0;fontStyle=1;fontSize=16;" vertex="1" parent="82hZbd6NY0PPkRuZH4To-23">
          <mxGeometry width="134.48275862068965" height="85" as="geometry" />
        </mxCell>
        <mxCell id="82hZbd6NY0PPkRuZH4To-27" value="User API" style="shape=image;verticalLabelPosition=bottom;verticalAlign=top;imageAspect=0;aspect=fixed;image=data:image/png,iVBORw0KGgoAAAANSUhEUgAAAH8AAABqCAYAAACVpo47AAAAAXNSR0IArs4c6QAAAAlwSFlzAAAXEgAAFxIBZ5/SUgAAHXVJREFUeAHtnQmcVPWRx6vPmek5mBPkkBtFAS8Q1MRr1Rg08YommhijoOJiiEfWjclmV+InxpiNR9ZVCa4ESci6ksuYqDGJqBFU8FYQBUfkPoa5e2Z6+tpvvZ43/bp5Pc7BzLwe5v+Znu5+7/2v+lXVv6r+R4sMpoOWAi6n9XzhwoX+nVt3nhyKhtYtXbp0l9Pa19n2XHHFFWVer/d7rrjrOM0Tj8c3jB47egH9i3S2jN5+ztvbFXS1/HXr1klhQeG/e1ye8quuumolBPxTLBZb+8gjj1R3taz+eH7BVQsqml3NF8YkdqXE5dhoPJrrdrm1KYEdO3Y4StgcB35JSUk80hrJE7cc4RHP2Eg48hWXy1V5zdxrVseisZXhWPiNZcuWbe8PYDPViTR7t2zZMoX7FwYl+AXAHi8xKYzFY14YQMRRkCd74TjwtWlxV9zvEpc7Eovk8zU/HouXwgBTYYjLYYhdc66cs47rryJdrxQXF2+47777ajVfX6Zrr73WR5smRcPR0wH+TJVyt9tdGo1EAxFXxGO0RYEn8Ry8EPMnvjnnv+PAHzFiRHTrJ1tXQqLRXre3FJUvMVfME41FDUaAKcpcbtckCPr5eDQeqqut+5jh4W2+rw6Hw2thhsr7778/1BskXrBgQVFjY+NUt7hPjUViJyHZU6m3mDblwag5fE9IeRvoHrfHAD4u8SpP3PO89q032tXdMh2pkK688spipOgICHsuInMBxtIUPosyAlohta9xiXo8nhD3WxgW6lCxGwBnFZL498KSwrfvvffe5tQMXfs2Z86cQoA7DhY8GwY8hXom0rY82pIL2Cr9CRqaUk4DaI9wTw27t2DUJ2DKZ8nzIQZsn2uojnrrSPC1wZdcconH7/fnQ7Qy3s+AAS4B0JMZT/Oi0Sgf26md7B8XwSJCnmbAaeLGuzDCn/15/icfeuihyuSDn/5p7ty5E6nzfKo5l6ePpMz8NsCT2rK9CS7hfqJQl+ygGX/zRD1/DMVDr2Cw1jc0NDStWLHCUVKvjXUs+AlKGv9dMEJuAckdd093eVxfApRzUbXDeRek0fJoao9glDCgBGGWXW6P+ykAWbp46eJ3UzOkfrv66quPYjiZQ9nnkGcogOcjxfsBrrnUilfQAbuJ9qzFJnmytbH1OV++7xMs++DTTz/dK8NPaou7/y0bwG/vHUzg9/l8+UjTWF6zIfhFgHMMY6snRRuYOczegQ6quAlAd/LxD/je6i20iar5MAOMS0bxzAUAegjlBfieKMEy0piAw3RRPm9gGPoLbXgmFAq9Q5saJ0yY0Iz1z+Dv/GSSx/kttbQQ4rr3rNsTqPPXFed4c2ahDb7A7TPxCkapJAKGjrnJHGYvQR6AgtxIUxdtj8bFE4niYVhA149apg7tMIQOKxupb6U74v5r2BV+nSGphtxNixcvDicrzI5PJlmyo7U2rZw9e3YOVrTaBsMB/UTk90wwPglGOFQNLx0a2l/pxqJNeQq2CbiRT+LKLB9w8UWGnVVxd/yt5ubmfTU1NU1OV+s23Uu5lPXgW3rjZljIycvLC/Aa1traOg2GmAFDHA2YE3huKINzAMl1qxSnpzagI7zXkW8bLPMez7zG6+1IJPIh14K7d+9uBvBWrlkGgvSSsuf7/lTox7YTOJkGWDMAoCYQCDyHv17fzea4cRf9wWAwJzc3NwcNMATAR/AahuquAMgSxusCIPQzZiuQQe7twSDchirfwjNVeo12tGzdujX0/PPPdzkef92V142NeqL/xADki4fje3xeX2VYwpVLlixp6GafDng2R4BPkKYC4n+H3n0JUIogeozXO1jbv4EZnoBgO3rYc9dpp53mmTZtmgfDzIMke3C/3ISSjWJhkjgMEa2qqorgVER64Ja5cBGPoe2X0YNzYbrhWgHfo9ggzWigSvyDv3pzvMsXLVq02ai8H//1O/gEUUZgfT+MMj4FUAoYW40EE6ib1gj4m/n8NyT0CbTBa70VvesJBsq8Xpf39KhEz0ObfJZ2l6m3wNCR9CjQL1yPwORNMMZmfI2fwNTLe1JvT/P2K/iES3MIly5hBu9iwqOJ2Lc5mra1DGmJqZsGMYMwyJsQ7+/euPf54bHh7y1curClpwTobn4FHIk+nrafCWOeDOjjaGs+/ciljYlizb6YlVj6BEPXkm8hDHC/ebuv3/sVfMblr+OjL8Znzs1oQllaiMpsZShoxh1rhFA6ufMahH45T/Lejvgiu3rT3Zo/f34BYdoxaKcZtGMWUj2DusfShgCMmYvGSpnM4XrmRJ9gFHUfq70+72W0+9nMD/feHQtpe6+S9JKRGNe8efPywq3h5yDALFR7+iP2383WqgrVYcHjbqEsjelXoUY3UdYGPPj3XF7XR/jfO/Hpq8rKypq6soBCtRFjf2FRbtFQwrMjUdWTqWMqUE0C8PEwayHfcwE8px1wbW26lNv3IHmVvujED31/oThYPPveFT2bg0gW3PlPJjk7n+MAPKnToS0tLTO8Hu9KDKGcLhNO22BpOcAo90QYHtQNawWYMEDVc30v4O2h/Dqs7mpsizqYJAR4+oqhsn0879OpYxinhFexvnNvGNdLyRcAID9l+bnmQ0PpRA632lJXATfzme9aVFxa6cupTPq8Yl7uq/dkzLqvaqQegiR+pPIsCJlDUKZ7yUJ4xk41rPwMB8k587gMxUYYB2gazYuhKTR8q7WpZa+59YWjF3fhhum7qm03xpgG670wixEPgDG4nEgwU9cl3Mxs904LaIsfOlzA7YMDfFRyDpMnX0sJwdoRp7PXLIzQnkXVQWJCJsHgds+0P5z2AYzREgcW6LQqzK8GDeJyKd9vNa/11Xu/SD7jnAdJm2BV3Qe8w10B+4BX3oUCaSeSH+hCjgP2aNIPPWBFdrIgtY6zBaBOdinbHus/8AeB73de6T/w+73rgw0YBP8g5oFB8AfBP4gpcBB3fVDyB8E/iClwEHd9UPIHwT+IKXAQdz0Z3l22eZz4c65nzVGAecZeJclvWqpzv/TiPb1aRzYVHnbnFMjybQ/2dZt1UjGRfr39LskNzJdQS68PBW62Ww2r+6TX6zG75vT3GPP6u4vH9K7E2RAhKfnxeIW0thZIa+/vMNJe7iwYadOcg/hSH9A9nbpW8Im2a8B9MOieTqSB+n1Q9Q5UZDvRr0HwO0GkgfrIIPgDFdlO9GsQ/E4QaaA+Mgj+QEW2E/1KWvudeDirHzGcGP5ZvWmNcujLdHDMd+M6//R9AKeBDb6CaWzCFSngcLfRAb9MKPDI+CK/DM1xS47HJUU+t9SHY8LebNkXisnWYES2NEZlS3NEdjax+y5KIQOUGQYm+Ao4El6U45JZ5bnyuRF5MrMiTyYVecXndokXMD2865jHG6d4JIRfcY7wRRmhvjUu79WGZM3ekLywKyRv1IQkxFYQI5N140YWa4aBBT7YKJIj8j3y5bEFctHogBxe7JcAaDdF4rKhthVAW6WyISJbmyJs7YlLA9cLfcoQLilHGxya75VxBV6ZVuqXM4YHjNeNU2LyVnVIntzSLL/bEpSdQfaBKNeoRsjiNHDAB/Riv1u+PqFI5hxWIOMAUdOLu1sArUler26V7ajxEGCH26RbeUX3ZuhpLYqjBwZQraDaIZ+ydIiYUZYjZ4/MkxPL8wwtcs3hhfLYR42yjNcOyiOTVpOVKdnyX219RLy+ORLq0ZmFfU8EA8G4nDosV/7t6GI5vjwHcEUe/7hRVmwOyrrasAQBHC3OHk7+6fOdSVBG2Yf91hLAXpgyxCcXjM6Xi8cGpMDnkQ/qw3Lfe3Wy4pOghHWYycKhILvBh+gcaS03HFEkN08dguR7ZAWgP7ihXtbXRqQxqoZcG9LJnnYG+sQzZl6+qUYoQMrHFXrlGxML5YoJBYbj8KetTfLvb9YYhqIxFHS+9H5/MrGnXJtx0c3ni9tzrESTGxP7vXUdNQDVPTTHI3fPLJV5k4dgqUflljXV8rMNDVLZGJEm7htenYLeHeC1bjMv7xQnLRS4JxSXl3e1yAsYghNhhNmjAnL6IbnycUPYsCWySQNkJ/ggMSrglYc/WyHnYdQ9v6tZ5q/eJy8wvjdgxPUYdDuma2MEVQbKBNtxCZ/d3iIR6juP4eDzMMEWrq2vYZd4lgwB2RfhQ9WPxphbenK5nIUL9+vKBpm3ap+8WxeWFkXGlFb9rOJ6oJK1POpQr29nS1T+k3F//stVGIkii04sl2sPKzyw9R6o9tuUk13gQ/ByrPD7TyiTU4blyQOM7besrZUdgKA+ert6B/QijLQL0Ap4bz1PMNxEYgTnjspLGIyGgZeor56KV3zcJJe/sFfqWqPy4xml8jXsgUSDel51b5ZwIEjTm+1Llg24evLCj6eX4XoF5JGN9XL7WzVS04oOtko7YJyG5f/YyUPl4c9UyNn46j3SANTrwx/8wTEl8gvKfHBWKS4gfoCpVai7GWZ4HjtgLkNPHe25Bwb4HO6h0xkge8CH2HMnF8plE/IZa5vktjfqpFb9N7MHxse4XHd4kSw7ZaicwZCgQZubpxZxtgoIcb9biXq/PCEgF6JFKihPLf3HTx8mZw3PTYKrwwCFr4IBvvnKPrSNS+6dWSbjMQjN8HK36u7lTNlh8AHArIocY0zdTcz96lVV8okGWCzAq3q/Hen8zlHFMiyPH2NRbUAagWG4AZ/8PYI8XXbFkOgx2BeLTqqQEZSpSQNAQ3M9ctohAfm4MSwfYGsYBh71qaH5CdHDmkhMLkf1jyLvHz9pSpzy3NYeoxCH/DPJ55Dm2DQDic2D4D84tliKQfi7b9TKh/jw1uRCrL9/9BBZcOQQKcEmsCb9evORRUberkq/h7o1cHR4kZ7blEzKWKOJ/j2AgafRv3b1znU9EerRDxtl+UcN8sVDA2gNfh3GHCKSRTjiUyqlHNGktEZAuEvGF8jpjN2/3NQoTxOqjWmrTUni/lxU8Q1HFEuBRmJs0jGEaL82oYtWOLbDObhvX6VuU4tYi9aaRgQ88t+zyuU4oortAHMjSHDpjnfqZFdzVBaijcY6VP07G3wkT2fmbjyiEMNO3ap6zlGD6ibGAD8dwi88tsSYnLGCY/2sPLGAMoYzBHRK+qlDh47bjiuR/AwMpeVrM8bjBdw5vdiYGm4vG031UV1E7llfJ2MxDudMgvH0TDCHJWeDD7jnjy5ghi1HHkGVfsTYbR3n1ZC7DbWsEvhpaWKhT65lUqZdQjvKwFh/y7QhcnRJ8mS3TI8rAXX8v/awopSyVTst/ygo72JrXAX4Y3XoUBfRQcnR4Otii2smFUgD7tMvNjWkCg+MccHYfFwq/TWUT0+quq8GhElM0HQIAur+DCz5uZOKjHj+p5eMCwoVvzWlUCZYy6a+GkKBiz5okJEw58W0NbUDnSm5d59xLviAewwqfWZFrjyzs4nYOUaeiTIClM8c/HVE09TK72zSef7rJ6uEZshBuaW5brn92FImiczKMjybdlnDzV/HPrACrNPFT2wLGqHgy8YFmCbmgoOEvwukS+ttb38FoPMOzTPAfbwSdwlmSIIfl1MOYX4dxuhK0s5+FRfsWAxAW/WPWv4WHsPxuJVdTcoqGtkbBoO1A0yFuxtj8tT2ZmPoms6qog61Tlcr7eHzzgQfnHOQbF1+tRO/fnUVawyskyXcv4jJlDSvrp0U61mt836dOl37Jw383DClqN10aH8C5joJZppPkIiqMyadPKrVqKJN0hVAJxN2tjIWPwMpf97abJSps38ZtY5Neb19yZngQ7CxBT45Yohf1la1yt4m0DZbinSWE2Q55ZDM0rn4wwa57c06Yy1eOgEV1wvG5JNfgaBcTbwVgfjtxxVTtllR4pb1/xamir/JJM6Le+yP+Ve7Yjbxfyuf6pc3q1tkL/MPCr5PH2qr1lp2f3zO3NP+aI1ZJ4J1ZLHPcLNe3RMSDkM27xiEm4wVPh7r3S7tgch/2tbM0q2gPMW7XRqC+/btKcWSY6JE+fMOH2JIbQdCL/e+Xy/v7w0zkRNs55v08meW+XE7IavZZD7uaI6hicIylXaXB5xDcue0xEpFCDdZLWfSe6q+rYjAGFOHeDNa4rradjPGYQuA/vDtWtnLIg+7dObIXJmNTSGocA3S3MhYn2kY0fzP7WyRZRsbhUPX5R+7Q8biEbtyx8KUwzSe0I4+NiDLiXQYKmXIGZGn/TI5w66EvrvmTPAB+wgA1oWWlayhTwEf2hzJitxM6SXAT6y1R91WheRuAkN2SZd/3TRliFTghv0HsYLhHUikztTdxgxiNYEmbcs25hXeqdGpnP2TBoUm0/b0sV1D0srDuijU6hHsX0LfXXEo+C45BAlpRmJqUeMp6NPi0dgDmdImllMZVIbS/JqR/A/j/1qYwC7NxPpezGqgs3Wctnug7drDSLwOP+YETpTw7cYGe4NSyxmWs38kcU+bBlJ7xSnJkeArAXXY1NUyxFxSsNd7mejXiqbYpbN9JpK869q+O96tlZBRUCrZtRxdg6daIFNSdf1fhGm1Le3l8rnGiDPb5ypLb6C2o81D2O+efRF9ctV54ENYHXvV+tZtVC3Ww6G458VazjSBo/gY8QAr6ZD+Z9hs8dhm/U2m/VNHQSLllzuZoNmmQ08apfjplf0La7vCIuL9EnxpJDX2nZLSuuSAZkEcXaOBVyWFXjeMYGki99QO0A0zdsmPBBcq51hxIQ8/qCM/eadetrHAsivpGRaN/Jb5eONHXNIyWqtIu2UMV+nXnPjdQlnnNE/nPxRksN/fqsfar81gwatQBTRTekL6ddHFz3DVOptqqEO9hSYWZrSre0vmwg5m+/ZrH/3R4JKmvUzzOiXZUMoBTQN4jewVMPAXGf6XRc74qON4pjRcx1vL48ZzcEWU1xJmBl9Sw60TaRFG3ut71c1UlkpLaJjR+Zk9Do01pDNMadtYUM1O4PR7aaX32Vdngk/3N9VHDKkfXwiY0MuaPmCuPFOawPy6bQJDddXueEelOZ07UnPoZs4H1MjTy+nYk1Xd+InaLpvUiGW4ScestHyH0S6ttVLHrLR7NsX0ySVngg9x3q9PuFKHFRHGtWJFi99kjlz349mlmUzaGCFUu5tI8UomWZazpStT0uHmRxh5O5qowJY6caKLflbn2LublY2txjo+K8JuNMVkYhN1SP32oLKUM9C37V4mwvTZdQW/higd5vYJFX5xpbTSJRthjF0MC3bpSEKoY1T61XBIT5Srxt9P363jAAb7/E+y9+4JNl/qdKxtQnDPGJGbcYXPW/vC0qR+odlm6htGAGlaiU/Wsxhlr273Me/ZVtB3FzPoyL5rgG1NSKgGa3Qn7AlMr+rCzRp1ARQQCLcbqVzF2H3puP2bX8az5+G73wPAxjbb9AqQwk2Ef299o4aFILkpMXq17R5i8UWT+ng8Z5fycEG/PMZ+AUkUoH8P8yTcwLb8lDkVqa/AFnmUNYghrcQh/t7+1LPrcV9fg24a3VtJPP1b7MDVbdfPoq5N4ysGkf+PyZVL2C6te+qtSb99g3n1X7LyZ6/JMNYH+Az55fdM/PyFqVZTP2g+/ax7/cx6+JqauHcOK3KMefnUO8a3ddgKum8whXEobnbbaqO/7bSfaLIpqk8uOUQB2fRVpUhX6nLrK+NYIWOipI8CuM6rb8gwZ6+q/5vE7VPE2loFSKtBXo0U6hp7fZmfI1pRKj8lctIeXeVzC1vBMwWGlmwMSp1uGDTz81HnDi6ESXWNwRozRGxtSz9+di74qF2Nyb+5LyTnsKhDN0C0MwCtrmXsfGBDY/slKw3VBb+eRRmXjmfdXCbLXgGye1kLsnzW0ztuYRpYVwvbJW3rr1DrKQEhjEcNH4/GPfjN5ibjnB+njPfaB+eCDzDNmPQP45sPQ3qumJi6+VENssdQ/WuZxbNLOvbffXwZR7QU8uvIIAcQ3U6o+6vYG3A9mz/sYjs6RP0IG8OI3ytDaaK6AuyD+awY1rjE/+Jh8IPPiXsO+e9c8JVAqPffMja/j8qchySP0g2SJv1ouUbh7mCLtBLfLumS7p9yeMOiE8rlsyzRAouuJxjn88z6/XA6ewPskKfE+4gcPoOh167utRaY7SIOhToO13MZS7g3aWwizT7pemMObA5ng68Ao97vW9+A2vfIv7KWPkWCIeZfsAvuXp85bKvbty5Ha/zilHJD/dq6gB3RFKPjfNYLHtK2Vy/90T9sDcrdSL16cO3gwzAjUfXfm1Ysurfw5x/UJ6bwu8N86RUewO/OBp+OGuq9MigvsgNWd76ciY9t3RunM6v3Iv1PbUPyMqQ8XCt1w3ZrWDijA58hM+Wv3tvSjqv1qWfwQG56pVr2acTJQknV7reyQET39N+1rk4qiVZa71vL6M/Plib3ZzM6qBtpaeBnWW7j0CONvt01o8w4K69dA9CD6nBUblhbzWGJ9gsrtfTXWHsXtG7p7qDKlFsYni/uDDHXAONY0p9htutfadstbLmujKmHNV2FttFnHsUD0HkFJybng29QzSUv4yb9kEUZR3E44l3Hl0q+BkrMoR71r9I1b3WVcUiCHaFXIb0pC0HtHrK7BoX0wMZXLauBllc2ynUcxPAxa/KNJpjgAvyprNC9k8MZdpHn1teqpQHGtFUbdnX18bXsAB/iakR88fsNspwzePSghNunl4oRXW9jAB1yNxK5m/vSXnmU7dHW1AwohlfQzd7G0DhPYdDVsxrn+2igm9bUyDY0gWG9W4DXzR4PnlRurAy68bUaIpTOM/KsdElOTTn9KDaIrOsn1zDNOpU4+cWsvc/F+l5FsAdsDenSN85cNOyDIIGbo9ngmcczejTbnYy9xkoqEywrFT71s8uwF1YyrPyW83c0KJQizXgbCvySk8tlbL5PFqzZJ3/ErzdmD7pV36c26IA8kD3ga3chZCOE1uXZMwi26ImY5Vjhq3c3J9boaTyeP5X0N2GSl1D1GlPfiJv1OKB12+iiTJ2M06PWWIKfBF65Da3wRTTRIiR+ZMDHnME+Wb6pSQzrg3xOTs6M7XdAMaW3SvI1q/bKfbPKjJ23I/K88t3X9yW2cHvQ7RC9AVBeYn39+rp9xnpAzdeTpKO7sZzQBJTydbPoAg6AvJnInw4B/4wB+AckXg9oStEMPam4F/Nml+QrISC+AqmHMal1X5HnZoIn3ziAaTcrd3Um0HgALQA+rPdj+TfPdtXDs6W5Aq/A8jcTzaOHLl1B5E/P5lnwcrXomr9mbZzJILaFOOdi9oGvtGtjAN21/Q/G/H3M0nxxVL58ATtAD2HQQ5F2m64ZnoDi0eOknMSfHrn6L0wa/RiPY2pJjjyG5f9t3My3WGCScmpIjyvs/QKyTu23k8RggDhLs+JE0BrlbXbQKCi6TVqPQn0cUJYTHHqb41DVWjfG+66EV5Vj2qTcj9E4FePxUvbYX0zItgI74wNCzje9uk+e3cGuXYI8+ni2SLxJw6SCytYj17UnUF7j9iUcxHzhoblyDUek6I8sNAKKTv0+jZv2KkZiJQab/sBCuypI9j55TctjyCjmLKCJWO6fGZojZzEfP50NmLqgVFcR6cFQv2MvgPry2Sbt2j0zJbufzeBrb1T06E0A6VYP4GzCwBfjDZw4LHH+vnoA+rMpumfuQ1YJ7WFY0EOeNDKr8aISVtcOYR5gjP4Gj24Ph3l0YiiXm+rZrd7TbKwvWMlPrlSRV5f4GSt2khQ0aZo178mmZzv4JskN/Zs4u09/VOkoFnaciA/+GWb1phAfKEU7aJhYFYC+zKReojKB/tyK3tcNHrqKVyOLa1hToBFE/dGGZh1CNCUpl/iehf+zd8zPROw2UBSkZlbV6ITQGly+n/sajLF6JFrhUKRbJV3X0useD8VTl3XrwsvtqHI9yFnXCeqwoYtIdcZOJ4aMNABAN0k38MA3e9YGki6k1Z9BaWBwruK1EVfQu9sl6ua0xYSMEUMZIEYeBTmCX5jykyxa1gAC3STRwAXf7KEFNB2jdYwPG3CbD9i8mytuLHltnsr6SwMf/HSIBjig6d3t6Hs357k6KnLwXrZQYBD8bEGqF9o5CH4vEDVbihwEP1uQ6oV2DoLfC0TNliL/HyOEvS6Nh8GPAAAAAElFTkSuQmCC" vertex="1" parent="82hZbd6NY0PPkRuZH4To-23">
          <mxGeometry x="295.05" y="60" width="59.91" height="50" as="geometry" />
        </mxCell>
        <mxCell id="82hZbd6NY0PPkRuZH4To-26" value="" style="endArrow=none;html=1;rounded=0;entryX=0.5;entryY=1;entryDx=0;entryDy=0;exitX=0.5;exitY=0;exitDx=0;exitDy=0;" edge="1" parent="1" source="82hZbd6NY0PPkRuZH4To-20" target="82hZbd6NY0PPkRuZH4To-4">
          <mxGeometry width="50" height="50" relative="1" as="geometry">
            <mxPoint x="910" y="210" as="sourcePoint" />
            <mxPoint x="960" y="160" as="targetPoint" />
          </mxGeometry>
        </mxCell>
        <mxCell id="82hZbd6NY0PPkRuZH4To-30" value="" style="endArrow=none;html=1;rounded=0;entryX=0.5;entryY=1;entryDx=0;entryDy=0;exitX=0.5;exitY=0;exitDx=0;exitDy=0;exitPerimeter=0;" edge="1" parent="1" source="82hZbd6NY0PPkRuZH4To-16" target="82hZbd6NY0PPkRuZH4To-20">
          <mxGeometry width="50" height="50" relative="1" as="geometry">
            <mxPoint x="820" y="210" as="sourcePoint" />
            <mxPoint x="870" y="160" as="targetPoint" />
          </mxGeometry>
        </mxCell>
        <mxCell id="82hZbd6NY0PPkRuZH4To-31" value="" style="endArrow=none;html=1;rounded=0;entryX=0.5;entryY=1;entryDx=0;entryDy=0;exitX=0.5;exitY=0;exitDx=0;exitDy=0;entryPerimeter=0;" edge="1" parent="1" source="82hZbd6NY0PPkRuZH4To-27" target="82hZbd6NY0PPkRuZH4To-16">
          <mxGeometry width="50" height="50" relative="1" as="geometry">
            <mxPoint x="511" y="300" as="sourcePoint" />
            <mxPoint x="695" y="210" as="targetPoint" />
          </mxGeometry>
        </mxCell>
        <mxCell id="82hZbd6NY0PPkRuZH4To-33" value="" style="endArrow=none;html=1;rounded=0;entryX=0.5;entryY=1;entryDx=0;entryDy=0;exitX=0.5;exitY=0;exitDx=0;exitDy=0;" edge="1" parent="1" source="82hZbd6NY0PPkRuZH4To-32" target="82hZbd6NY0PPkRuZH4To-27">
          <mxGeometry width="50" height="50" relative="1" as="geometry">
            <mxPoint x="555.39" y="554" as="sourcePoint" />
            <mxPoint x="641.39" y="450" as="targetPoint" />
          </mxGeometry>
        </mxCell>
        <mxCell id="82hZbd6NY0PPkRuZH4To-34" value="" style="endArrow=none;html=1;rounded=0;entryX=0.5;entryY=1;entryDx=0;entryDy=0;exitX=0.5;exitY=0;exitDx=0;exitDy=0;" edge="1" parent="1" source="82hZbd6NY0PPkRuZH4To-12" target="82hZbd6NY0PPkRuZH4To-32">
          <mxGeometry width="50" height="50" relative="1" as="geometry">
            <mxPoint x="800" y="670" as="sourcePoint" />
            <mxPoint x="520" y="414" as="targetPoint" />
          </mxGeometry>
        </mxCell>
        <mxCell id="82hZbd6NY0PPkRuZH4To-35" value="JDBC" style="edgeLabel;html=1;align=center;verticalAlign=middle;resizable=0;points=[];" vertex="1" connectable="0" parent="82hZbd6NY0PPkRuZH4To-34">
          <mxGeometry x="-0.2828" relative="1" as="geometry">
            <mxPoint as="offset" />
          </mxGeometry>
        </mxCell>
      </root>
    </mxGraphModel>
  </diagram>
</mxfile>
